<?xml version="1.0" encoding="UTF-8" standalone="no"?>
<svg
   width="196.54662"
   height="170.40126"
   viewBox="0 0 1965.4662 1704.0126"
   fill="#02176a"
   version="1.1"
   id="svg1"
   xmlns="http://www.w3.org/2000/svg"
   xmlns:svg="http://www.w3.org/2000/svg">
  <defs
     id="defs1" />
  <path
     d="m 993.30407,1382.9007 179.28703,-373.165 -164.9498,-79.25008 -179.28699,373.16508 -137.00746,-65.8252 -10.73047,-141.6152 91.03785,43.7391 L 897.67484,877.65222 637.18039,752.49778 816.9005,378.43136 570.82789,260.20584 587.19299,475.53161 458.42336,563.43714 408.80911,54.779666 983.87989,331.07227 802.42754,708.74414 l 143.31701,68.85658 182.35375,-377.23878 137.9088,66.25826 10.5895,132.67201 -89.2352,-42.87299 -131.6503,274.0149 270.4094,129.9182 -174.0903,362.34858 249.6781,119.9578 -23.2135,-224.1632 124.8369,-82.029 52.424,516.664 z M 1482.3346,570.55472 1965.4662,802.67512 1203.4635,1294.1595 1313.8939,1064.3114 1707.449,806.29512 1498.3323,705.82509 Z M 767.66774,404.70178 656.37119,636.35255 264.18582,896.13642 461.58472,990.97662 473.21655,1133.0248 -4.794922e-7,905.66812 Z m 195.67724,-127.87265 75.71462,36.37708 -48.9358,101.85423 286.8261,-190.58535 79.3386,776.99761 124.8368,-82.02898 L 1387.0178,-4.3994141e-6 Z m -356.69513,439.92111 61.38177,772.80806 334.22088,-219.9577 -61.49456,127.9938 58.58871,28.1489 -429.91185,278.2693 -88.05484,-904.33198 z"
     id="path1"
     style="fill:#552200" />
</svg>
