<?xml version="1.0" encoding="UTF-8" standalone="no"?><svg height="660" width="600" xmlns="http://www.w3.org/2000/svg" xmlns:xlink="http://www.w3.org/1999/xlink"><radialGradient id="a" cx="221.44487" cy="226.33101" gradientTransform="matrix(1.35322 0 0 1.34893 -77.62935 -85.746928)" gradientUnits="userSpaceOnUse" r="300"><stop offset="0" stop-color="#fff" stop-opacity=".313726"/><stop offset=".19" stop-color="#fff" stop-opacity=".25098"/><stop offset=".60000002" stop-color="#6b6b6b" stop-opacity=".12549"/><stop offset="1" stop-opacity=".12549"/></radialGradient><path d="m300.00001 658.5s-298.50001-112.43608-298.50001-398.18182v-258.81818h597.00001v258.81818c0 285.74574-298.5 398.18182-298.5 398.18182z" fill="#e20909" fill-rule="evenodd"/><path d="m224 1.5v210h-222.5v48.77734c0 37.32121 5.1004286 71.67966 13.957031 103.22266h208.542969v256.01758c43.5224 26.64113 76 38.8789 76 38.8789s32.4776-12.23777 76-38.8789v-256.01758h208.54297c8.8566-31.543 13.95703-65.90145 13.95703-103.22266v-48.77734h-222.5v-210z" fill="#fff" stroke="#000" stroke-width="3"/><path d="m300.00001 658.49999s298.5-112.43608 298.5-398.18182v-258.81817h-597.00001v258.81817c0 285.74574 298.50001 398.18182 298.50001 398.18182z" fill="url(#a)" fill-rule="evenodd"/><path d="m299.99999 658.39715s-298.49999-112.41841-298.49999-398.11925v-258.7775027h596.99999v258.7775027c0 285.70084-298.5 398.11925-298.5 398.11925z" fill="none" stroke="#000" stroke-width="3"/></svg>