<?xml version="1.0" encoding="UTF-8" standalone="no"?>
<svg
   viewBox="0 0 553.59906 377.45309"
   version="1.1"
   id="svg47"
   sodipodi:docname="radio-151338.svg"
   inkscape:version="1.4 (86a8ad7, 2024-10-11)"
   xmlns:inkscape="http://www.inkscape.org/namespaces/inkscape"
   xmlns:sodipodi="http://sodipodi.sourceforge.net/DTD/sodipodi-0.dtd"
   xmlns="http://www.w3.org/2000/svg"
   xmlns:svg="http://www.w3.org/2000/svg">
  <defs
     id="defs47" />
  <sodipodi:namedview
     id="namedview47"
     pagecolor="#505050"
     bordercolor="#eeeeee"
     borderopacity="1"
     inkscape:showpageshadow="0"
     inkscape:pageopacity="0"
     inkscape:pagecheckerboard="0"
     inkscape:deskcolor="#000244"
     inkscape:zoom="1.4142136"
     inkscape:cx="249.96225"
     inkscape:cy="184.20132"
     inkscape:window-width="2560"
     inkscape:window-height="1424"
     inkscape:window-x="-11"
     inkscape:window-y="-11"
     inkscape:window-maximized="1"
     inkscape:current-layer="svg47" />
  <g
     transform="translate(-226.73 -161.76)"
     fill="none"
     stroke="#000"
     id="g13"
     style="stroke:#2b2b2b;stroke-opacity:1">
    <path
       d="m360.15 278.34 170.71-7.8572c3.4212 0.62013 6.7358 1.4266 6.4286 8.5714l1.6811 158.02c-0.03257 6.71-1.6416 15.019-7.3521 15.418-14.725 1.6008-172.57 11.484-174.33 11.559-6.7605 0.2858-7.8447-7.5983-7.8571-10l-0.86508-167.14c1.0436-3.0648 2.9841-10.167 11.579-8.5714z"
       stroke-linecap="round"
       stroke-linejoin="round"
       stroke-width="4"
       id="path1"
       style="stroke:#2b2b2b;stroke-opacity:1" />
    <path
       d="m231.32 211.74c0.08001-21.815 11.47-29.237 26.264-32.325l411.64-16.162 88.821 27.963c11.216 3.5312 20.865 18.26 20.781 39.717l-1.0102 255.57c0.97022 5.6316 0.85581 10.781-10.102 11.112l-456 39.1c-4.1808 0.35848-13.011 3.5253-20.795-3.7448-18.897-17.649-44.751-41.09-56.334-51.518-3.0231-2.7216-5.941-5.8567-5.7038-14.856-1.7023-114.56 0.18602-146.59 2.4387-254.85z"
       stroke-linecap="round"
       stroke-linejoin="round"
       stroke-width="3"
       id="path2"
       style="stroke:#2b2b2b;stroke-opacity:1" />
    <path
       d="m567.11 308.72s164.95-7.1056 167.77-7.5762c4.5903-0.76654 9.338 2.8296 9.0914 8.0812l-0.50508 70.206c-2.0756 5.2717-5.9504 5.7453-9.0914 6.0609l-167.09 11.443c-5.8505 0.12627-6.899-8.2139-7.1577-11.443l-0.59174-67.68c-0.33276-6.673 3.479-8.4512 7.5762-9.0914z"
       stroke-linecap="round"
       stroke-linejoin="round"
       stroke-width="3"
       id="path3"
       style="stroke:#2b2b2b;stroke-opacity:1" />
    <path
       d="m251.43 181.24c0-2.8571 46.429 35.357 46.429 35.357 6.0084 9.5658 11.429 19.893 11.429 37.5v283.57"
       stroke-linecap="round"
       stroke-linejoin="round"
       stroke-width="3"
       id="path4"
       style="stroke:#2b2b2b;stroke-opacity:1" />
    <path
       d="m240.36 188.74s28.265 16.201 36.786 26.429c9.3384 11.209 18.479 18.27 19.286 44.643 1.7557 57.394-1.4286 274.29-1.4286 274.29"
       stroke-width="3"
       id="path5"
       style="stroke:#2b2b2b;stroke-opacity:1" />
    <path
       d="m234.91 193.56s28.265 15.782 36.786 25.745c9.3384 10.919 18.479 17.798 19.286 43.489 1.7557 55.91-1.4286 267.19-1.4286 267.19"
       stroke-width="2.5"
       id="path6"
       style="stroke:#2b2b2b;stroke-opacity:1" />
    <path
       d="m232.77 199.81s25.768 15.363 33.536 25.062c8.5134 10.629 16.847 17.326 17.582 42.335 1.6006 54.426-1.3024 260.1-1.3024 260.1"
       stroke-width="2.5"
       id="path7"
       style="stroke:#2b2b2b;stroke-opacity:1" />
    <path
       d="m747.87 199.45c8.8706 6.612 18.836 13.324 18.836 43.61v254.44"
       stroke-linecap="round"
       stroke-linejoin="round"
       stroke-width="2"
       id="path8"
       style="stroke:#2b2b2b;stroke-opacity:1" />
    <path
       d="m762.47 203.87c5.1909 3.7303 10.254 14.442 10.517 30.279 0 0 0.71428 229.86 0.35714 259.68"
       stroke-linecap="round"
       stroke-linejoin="round"
       stroke-width="2"
       id="path9"
       style="stroke:#2b2b2b;stroke-opacity:1" />
    <path
       d="m765.82 482.77-456.83 35.756"
       stroke-linecap="round"
       stroke-linejoin="round"
       stroke-width="3"
       id="path10"
       style="stroke:#2b2b2b;stroke-opacity:1" />
    <path
       d="m765.31 476.71-451.27 34.746"
       stroke-linecap="round"
       stroke-linejoin="round"
       stroke-width="3"
       id="path11"
       style="stroke:#2b2b2b;stroke-opacity:1" />
    <path
       d="m575.25 389.24s0.06292-41.586-0.64775-58.711c-0.144-3.47 2.3204-6.836 7.7547-7.1577 42.58-2.521 46.749-2.4659 133.34-7.0711 5.4848-0.15251 5.2068 3.5762 5.1987 6.7139l-0.14794 56.926c0.14176 4.0613-1.8472 5.2815-4.5457 5.5558l-134.35 9.0914c-6.7705 0.45815-5.564-3.1172-6.6019-5.3466z"
       stroke-linecap="round"
       stroke-linejoin="round"
       stroke-width="3"
       id="path12"
       style="stroke:#2b2b2b;stroke-opacity:1" />
    <path
       d="m595.39 381.24s0.04612-27.106-0.47463-38.269c-0.10553-2.2618 1.7003-4.4558 5.6824-4.6655 31.201-1.6432 34.256-1.6073 97.707-4.609 4.0191-0.09941 3.8154 2.331 3.8094 4.3762l-0.10841 37.105c0.10388 2.6472-1.3536 3.4426-3.3309 3.6214l-98.447 5.9259c-4.9612 0.29863-4.0771-2.0318-4.8376-3.485z"
       stroke-width="3"
       id="path13"
       style="stroke:#2b2b2b;stroke-opacity:1" />
  </g>
  <g
     transform="translate(-226.73 -161.76)"
     stroke="#000"
     id="g37"
     style="stroke:#2b2b2b;stroke-opacity:1">
    <path
       d="m362.86 287.67c0.35715 2.5204 1.4286 176.43 1.4286 176.43"
       fill="none"
       stroke-linecap="round"
       stroke-linejoin="round"
       stroke-width="2.5"
       id="path14"
       style="stroke:#2b2b2b;stroke-opacity:1" />
    <path
       d="m369.29 287.67c0.35715 2.5051 1.4286 175.36 1.4286 175.36"
       fill="none"
       stroke-linecap="round"
       stroke-linejoin="round"
       stroke-width="2.5"
       id="path15"
       style="stroke:#2b2b2b;stroke-opacity:1" />
    <path
       d="m355.36 288.02c0.35715 2.5153 1.4286 176.07 1.4286 176.07"
       fill="none"
       stroke-linecap="round"
       stroke-linejoin="round"
       stroke-width="2.5"
       id="path16"
       style="stroke:#2b2b2b;stroke-opacity:1" />
    <path
       d="m389.64 286.59c0.35715 2.5102 1.4286 175.71 1.4286 175.71"
       fill="none"
       stroke-linecap="round"
       stroke-linejoin="round"
       stroke-width="2.5"
       id="path17"
       style="stroke:#2b2b2b;stroke-opacity:1" />
    <path
       d="m396.07 286.24c0.35715 2.4796 1.4286 173.57 1.4286 173.57"
       fill="none"
       stroke-linecap="round"
       stroke-linejoin="round"
       stroke-width="2.5"
       id="path18"
       style="stroke:#2b2b2b;stroke-opacity:1" />
    <path
       d="m402.86 286.32c0.35715 2.509 1.4286 175.63 1.4286 175.63"
       fill="none"
       stroke-linecap="round"
       stroke-linejoin="round"
       stroke-width="2.5"
       id="path19"
       style="stroke:#2b2b2b;stroke-opacity:1" />
    <path
       d="m408.93 285.88c0.35715 2.4745 1.4286 173.21 1.4286 173.21"
       fill="none"
       stroke-linecap="round"
       stroke-linejoin="round"
       stroke-width="2.5"
       id="path20"
       style="stroke:#2b2b2b;stroke-opacity:1" />
    <path
       d="m431.79 284.81c0.35715 2.4643 1.4286 172.5 1.4286 172.5"
       fill="none"
       stroke-linecap="round"
       stroke-linejoin="round"
       stroke-width="2.5"
       id="path21"
       style="stroke:#2b2b2b;stroke-opacity:1" />
    <path
       d="m439.64 284.45c0.35715 2.4643 1.4286 172.5 1.4286 172.5"
       fill="none"
       stroke-linecap="round"
       stroke-linejoin="round"
       stroke-width="2.5"
       id="path22"
       style="stroke:#2b2b2b;stroke-opacity:1" />
    <path
       d="m446.07 284.6c0.35715 2.4571 1.4286 171.99 1.4286 171.99"
       fill="none"
       stroke-linecap="round"
       stroke-linejoin="round"
       stroke-width="2.5"
       id="path23"
       style="stroke:#2b2b2b;stroke-opacity:1" />
    <path
       d="m452.14 283.74c0.35715 2.4592 1.4286 172.14 1.4286 172.14"
       fill="none"
       stroke-linecap="round"
       stroke-linejoin="round"
       stroke-width="2.5"
       id="path24"
       style="stroke:#2b2b2b;stroke-opacity:1" />
    <path
       d="m476.07 283.02c0.35715 2.4745 1.4286 173.21 1.4286 173.21"
       fill="none"
       stroke-linecap="round"
       stroke-linejoin="round"
       stroke-width="2.5"
       id="path25"
       style="stroke:#2b2b2b;stroke-opacity:1" />
    <path
       d="m481.07 283.13c0.35715 2.4424 1.4286 170.97 1.4286 170.97"
       fill="none"
       stroke-linecap="round"
       stroke-linejoin="round"
       stroke-width="2.5"
       id="path26"
       style="stroke:#2b2b2b;stroke-opacity:1" />
    <path
       d="m487.5 282.61c0.35715 2.4549 1.4286 171.84 1.4286 171.84"
       fill="none"
       stroke-linecap="round"
       stroke-linejoin="round"
       stroke-width="2.5"
       id="path27"
       style="stroke:#2b2b2b;stroke-opacity:1" />
    <path
       d="m494.29 282.69c0.35715 2.4405 1.4286 170.83 1.4286 170.83"
       fill="none"
       stroke-linecap="round"
       stroke-linejoin="round"
       stroke-width="2.5"
       id="path28"
       style="stroke:#2b2b2b;stroke-opacity:1" />
    <path
       d="m515.71 281.92c0.35715 2.4495 1.4286 171.46 1.4286 171.46"
       fill="none"
       stroke-linecap="round"
       stroke-linejoin="round"
       stroke-width="2.5"
       id="path29"
       style="stroke:#2b2b2b;stroke-opacity:1" />
    <path
       d="m522.86 281.79c0.35715 2.4206 1.4286 169.44 1.4286 169.44"
       fill="none"
       stroke-linecap="round"
       stroke-linejoin="round"
       stroke-width="2.5"
       id="path30"
       style="stroke:#2b2b2b;stroke-opacity:1" />
    <path
       d="m529.29 281.1c0.35715 2.4152 1.4286 169.07 1.4286 169.07"
       fill="none"
       stroke-linecap="round"
       stroke-linejoin="round"
       stroke-width="2.5"
       id="path31"
       style="stroke:#2b2b2b;stroke-opacity:1" />
    <path
       d="m582.1 469.08c-19.353 1.3468-20.78-22.152-10.186-30.192s26.633-5.8658 29.629 7.7162"
       fill="none"
       stroke-linecap="round"
       stroke-linejoin="round"
       stroke-width="2"
       id="path32"
       style="stroke:#2b2b2b;stroke-opacity:1" />
    <path
       transform="matrix(1.0769 0 0 1 -109.8 5.5558)"
       d="m665.69 453.17a13.132 14.647 0 1 1 -26.264 0 13.132 14.647 0 1 1 26.264 0z"
       fill="none"
       stroke-linecap="round"
       stroke-linejoin="round"
       stroke-width="1.9272"
       id="path33"
       style="stroke:#2b2b2b;stroke-opacity:1" />
    <path
       d="m714.09 456.34c-19.353 1.3468-20.78-22.152-10.186-30.192s26.633-5.8658 29.629 7.7162"
       fill="none"
       stroke-linecap="round"
       stroke-linejoin="round"
       stroke-width="2"
       id="path34"
       style="stroke:#2b2b2b;stroke-opacity:1" />
    <path
       transform="matrix(1.0769 0 0 1 22.196 -7.1884)"
       d="m665.69 453.17a13.132 14.647 0 1 1 -26.264 0 13.132 14.647 0 1 1 26.264 0z"
       fill="none"
       stroke-linecap="round"
       stroke-linejoin="round"
       stroke-width="1.9272"
       id="path35"
       style="stroke:#2b2b2b;stroke-opacity:1" />
    <g
       fill="none"
       stroke-linecap="round"
       stroke-linejoin="round"
       stroke-width="1.4187"
       id="g36"
       style="stroke:#2b2b2b;stroke-opacity:1">
      <path
         transform="matrix(1 0 0 1.1179 -2.2728 -83.845)"
         d="m633.22 416.95a12.627 8.8388 0 1 1 25.128 -1.6137"
         fill="none"
         stroke="#000"
         stroke-linecap="round"
         stroke-linejoin="round"
         stroke-width="1.4187"
         id="path36"
         style="stroke:#2b2b2b;stroke-opacity:1" />
    </g>
    <path
       d="m643.01 370.99 35.355-44.102c4.9408-4.6797 3.1-0.91241 2.5994 1.6632l-26.634 47.342c-2.1422-2.6764-6.3219-4.6071-11.321-4.9028z"
       fill="#fff"
       fill-rule="evenodd"
       stroke-width="1.5"
       id="path37"
       style="stroke:#2b2b2b;stroke-opacity:1" />
  </g>
  <g
     transform="translate(-226.73 -161.76)"
     stroke="#000"
     stroke-linecap="round"
     stroke-linejoin="round"
     id="g47"
     style="stroke:#2b2b2b;stroke-opacity:1">
    <path
       d="m594.91 465.04c3.6643-0.78293 6.5748-5.3372 2.6707-10.654-0.61411-3.4557 7.1204 4.2654 5.9193 0.03853-0.40292-1.4219-1.3091-4.078-3.7051-6.3034 2.6472 0.02366 11.047 4.9658 5.0381 17.93-1.8383 3.9659-9.4564 7.3719-17.55 6.0366 5.2067-0.91402 5.9307-1.1188 7.4488-2.7536-8.608-1.0506-10.746-8.5198-4.8298-5.2165 1.1754 0.65619 2.7105 1.413 5.0083 0.92207z"
       fill-rule="evenodd"
       id="path38"
       style="stroke:#2b2b2b;stroke-opacity:1" />
    <path
       d="m716.43 451.79c8.0863 3.3321 18.026-0.28181 13.428-10.046-0.68359-3.4325 5.3407 1.84 6.3658-0.58647-0.25768-1.466-2.0234-4.9708-4.4194-7.1962 2.6472 0.02366 8.913 5.6214 5.3059 19.448-1.3102 5.0221-11.786 8.1597-21.39 3.8045 5.744-0.24415 1.2374-2.3946 0.70948-5.4243z"
       fill-rule="evenodd"
       id="path39"
       style="stroke:#2b2b2b;stroke-opacity:1" />
    <path
       d="m369.72 294.07 19.698-0.50507"
       fill="none"
       stroke-width="4"
       id="path40"
       style="stroke:#2b2b2b;stroke-opacity:1" />
    <path
       d="m414.42 291.8 15.91-0.50507"
       fill="none"
       stroke-width="4"
       id="path41"
       style="stroke:#2b2b2b;stroke-opacity:1" />
    <path
       d="m455.07 290.54 19.698-0.50507"
       fill="none"
       stroke-width="4"
       id="path42"
       style="stroke:#2b2b2b;stroke-opacity:1" />
    <path
       d="m456.34 432.97 17.678-0.50507"
       fill="none"
       stroke-width="4"
       id="path43"
       style="stroke:#2b2b2b;stroke-opacity:1" />
    <path
       d="m372.49 438.52 15.657-0.50507"
       fill="none"
       stroke-width="4"
       id="path44"
       style="stroke:#2b2b2b;stroke-opacity:1" />
    <path
       d="m412.65 436 18.688-0.50507"
       fill="none"
       stroke-width="4"
       id="path45"
       style="stroke:#2b2b2b;stroke-opacity:1" />
    <path
       d="m499.27 430.69 15.657-0.50507"
       fill="none"
       stroke-width="4"
       id="path46"
       style="stroke:#2b2b2b;stroke-opacity:1" />
    <path
       d="m495.73 290.28 16.162-0.50507"
       fill="none"
       stroke-width="4"
       id="path47"
       style="stroke:#2b2b2b;stroke-opacity:1" />
  </g>
  <path
     style="fill:#000000;fill-opacity:1;fill-rule:evenodd;stroke:#000000;stroke-width:0;stroke-linejoin:bevel;stroke-miterlimit:4.3;stroke-dasharray:none;stroke-opacity:1"
     d="m 454.06775,164.08411 c -0.92239,0.67342 -1.76347,1.46167 -2.43877,2.38697 -10.96369,13.5876 -21.89244,27.20348 -32.79129,40.84314 -0.31736,0.42531 -0.70499,0.83701 -0.97722,1.27391 3.37064,0.45114 6.75549,1.64347 9.32947,3.93946 0.19402,0.24448 0.38234,0.18388 0.45395,-0.11298 8.62791,-15.28477 17.22249,-30.58833 25.83218,-45.88336 0.19463,-0.81275 0.4477,-1.63619 0.59168,-2.44714 z"
     id="path121" />
  <path
     style="fill:#000000;fill-opacity:1;fill-rule:evenodd;stroke:#000000;stroke-width:0;stroke-linejoin:bevel;stroke-miterlimit:4.3;stroke-dasharray:none;stroke-opacity:1"
     d="m 454.13538,163.98517 c -0.69514,0.49971 -1.3246,1.08429 -1.94774,1.66908 -4.20064,5.24256 -8.40713,10.48047 -12.6017,15.72789 0.0292,0.0147 0.0669,-0.0832 0.097,-0.10097 2.93045,-3.63062 5.8507,-7.26948 8.78036,-10.90074 1.19418,-1.48117 2.38813,-2.96269 3.57767,-4.44748 0.58626,-0.68778 1.2578,-1.30451 1.99375,-1.82877 0.0628,-0.0502 0.0171,0.0647 0.0194,0.0899 -0.0396,0.24941 -0.11591,0.4998 -0.15119,0.74508 0.0891,-0.31481 0.17258,-0.63433 0.2378,-0.95392 -0.001,-0.001 -0.004,-0.001 -0.005,-6e-5 z"
     id="path122" />
  <path
     style="fill:#000000;fill-opacity:1;fill-rule:evenodd;stroke:#000000;stroke-width:0;stroke-linejoin:bevel;stroke-miterlimit:4.3;stroke-dasharray:none;stroke-opacity:1"
     d="m 453.5763,166.21922 c -0.0304,-0.008 -0.025,0.0275 -0.0327,0.047 -0.0235,0.0913 -0.0443,0.18366 -0.0694,0.27432 -1.31343,2.33309 -2.62628,4.66651 -3.93971,6.9996 0.009,0.005 0.0487,0.007 0.0507,-0.0195 1.28538,-2.28549 2.57312,-4.56967 3.85557,-6.85681 0.0263,-0.0496 0.0571,-0.0974 0.0807,-0.14826 0.023,-0.0979 0.0444,-0.19708 0.0653,-0.29494 -0.003,-0.002 -0.007,-0.001 -0.0104,-0.001 z"
     id="path123" />
  <path
     style="fill:#000000;fill-opacity:1;fill-rule:evenodd;stroke:#000000;stroke-width:0;stroke-linejoin:bevel;stroke-miterlimit:4.3;stroke-dasharray:none;stroke-opacity:1"
     d="m 438.39741,193.37588 c -0.0487,0.0404 -0.0719,0.10828 -0.10783,0.16074 -0.90578,1.60203 -1.8062,3.20709 -2.71005,4.81022 -1.81374,3.22212 -3.63024,6.4427 -5.44464,9.66444 -0.009,0.0228 0.0338,0.0107 0.0322,-0.007 0.25303,-0.41956 0.48769,-0.84997 0.7307,-1.27539 2.3973,-4.25285 4.78874,-8.509 7.18276,-12.76369 0.10719,-0.19527 0.22267,-0.38668 0.32458,-0.58444 0.001,-0.005 -0.004,-0.005 -0.008,-0.005 z"
     id="path124" />
  <path
     style="fill:#000000;fill-opacity:1;fill-rule:evenodd;stroke:#000000;stroke-width:0;stroke-linejoin:bevel;stroke-miterlimit:4.3;stroke-dasharray:none;stroke-opacity:1"
     d="m 445.91878,177.46568 c -1.04511,0.001 -2.09022,0.005 -3.13532,0.007 -8.02562,9.97659 -16.03775,19.96406 -24.02656,29.97014 -0.28566,0.37479 -0.60389,0.73057 -0.85722,1.12681 0.84852,0.14277 1.70208,0.28133 2.53553,0.50373 2.50777,0.64465 4.93117,1.77671 6.85779,3.5303 0.10082,0.11434 0.27427,0.0378 0.30523,-0.0983 1.06006,-1.93128 2.15197,-3.84562 3.23014,-5.7671 5.49145,-9.74663 10.98384,-19.49274 16.46097,-29.24742 -0.0318,-0.0549 -0.23118,-0.007 -0.32194,-0.0242 -0.34954,-0.001 -0.69908,-0.001 -1.04862,-0.001 z"
     id="path125" />
  <path
     style="fill:#000000;fill-opacity:1;fill-rule:evenodd;stroke:#000000;stroke-width:0;stroke-linejoin:bevel;stroke-miterlimit:4.3;stroke-dasharray:none;stroke-opacity:1"
     d="m 420.93716,204.62365 c -0.97825,1.2207 -1.95731,2.44084 -2.93458,3.66228 0.0201,0.003 0.0461,0.008 0.0645,-0.003 0.12763,-0.17419 0.26642,-0.33993 0.40179,-0.50812 0.19876,-0.24101 0.38784,-0.48974 0.5839,-0.73292 1.61664,-2.026 3.2377,-4.04846 4.85455,-6.07428 -0.01,-0.004 -0.0404,-0.009 -0.0466,0.009 -0.9745,1.21554 -1.94899,2.43108 -2.92349,3.64662 z"
     id="path126" />
  <path
     style="fill:#000000;fill-opacity:1;fill-rule:evenodd;stroke:#000000;stroke-width:0;stroke-linejoin:bevel;stroke-miterlimit:4.3;stroke-dasharray:none;stroke-opacity:1"
     d="m 440.8344,179.88086 c -3.28103,4.08144 -6.56135,8.16346 -9.83598,12.25003 -0.0639,0.0808 -0.13029,0.16137 -0.19225,0.24252 0.48151,0.0114 0.96353,0.005 1.44525,0.008 2.22551,6.3e-4 4.45102,-0.002 6.67653,-0.002 2.40316,-4.27106 4.80588,-8.54235 7.20877,-12.81356 0,-0.61032 0,-1.22065 0,-1.83098 -1.192,0 -2.384,0 -3.57601,0 -0.57544,0.7155 -1.15087,1.43099 -1.72631,2.14649 z"
     id="path127" />
  <path
     style="fill:#000000;fill-opacity:1;fill-rule:evenodd;stroke:#000000;stroke-width:0;stroke-linejoin:bevel;stroke-miterlimit:4.3;stroke-dasharray:none;stroke-opacity:1"
     d="m 440.8344,179.88086 c -3.32779,4.13848 -6.65338,8.27872 -9.97437,12.42265 -0.006,0.0194 -0.0662,0.0615 -0.0452,0.0709 0.71465,0.0108 1.42951,0.005 2.14424,0.007 1.98962,-2.5e-4 3.97923,-0.002 5.96884,-0.002 2.40308,-4.27072 4.80579,-8.54166 7.20864,-12.8125 5e-5,-0.61068 10e-5,-1.22136 1.5e-4,-1.83204 -1.192,0 -2.384,0 -3.57601,0 -0.57544,0.7155 -1.15087,1.43099 -1.72631,2.14649 z"
     id="path128" />
  <path
     style="fill:#000000;fill-opacity:1;fill-rule:evenodd;stroke:#000000;stroke-width:0;stroke-linejoin:bevel;stroke-miterlimit:4.3;stroke-dasharray:none;stroke-opacity:1"
     d="m 439.58099,181.38486 c -0.95017,1.17135 -1.89153,2.34984 -2.83638,3.52549 -1.92525,2.40117 -3.8511,4.80184 -5.77486,7.2042 -0.0658,0.0874 -0.1468,0.17722 -0.19996,0.26619 0.3957,-0.47401 0.77848,-0.9588 1.16699,-1.43875 2.54611,-3.17071 5.09085,-6.34255 7.63804,-9.51237 0.003,-0.01 0.0487,-0.052 0.0153,-0.0424 -0.004,0.002 -0.007,-0.006 -0.009,-0.002 z"
     id="path129" />
  <path
     style="fill:#000000;fill-opacity:1;fill-rule:evenodd;stroke:#000000;stroke-width:0;stroke-linejoin:bevel;stroke-miterlimit:4.3;stroke-dasharray:none;stroke-opacity:1"
     d="m 449.55247,173.54411 c -0.0289,-0.008 -0.0315,0.028 -0.0453,0.0451 -1.03032,1.83194 -2.06162,3.66364 -3.09107,5.49588 0.0204,0.002 0.0443,0.006 0.0496,-0.0196 1.03577,-1.84071 2.07074,-3.68187 3.10717,-5.52221 -0.007,2.7e-4 -0.0136,5.4e-4 -0.0204,8.1e-4 z"
     id="path130" />
  <path
     style="fill:#000000;fill-opacity:1;fill-rule:evenodd;stroke:#000000;stroke-width:0;stroke-linejoin:bevel;stroke-miterlimit:4.3;stroke-dasharray:none;stroke-opacity:1"
     d="m 454.1543,163.96284 c -0.0806,0.0499 -0.15503,0.10996 -0.23156,0.16605 -0.48625,0.37107 -0.94294,0.77896 -1.39286,1.19278 -0.1183,0.11138 -0.24048,0.21891 -0.3544,0.33476 -0.0156,0.0205 0.0118,-0.005 0.0166,-0.01 0.61271,-0.57518 1.23099,-1.14883 1.91296,-1.64218 0.0113,-0.004 0.0243,-0.024 0.0362,-0.0183 -0.0211,0.12034 -0.0514,0.23974 -0.0793,0.35895 -0.0485,0.19804 -0.10025,0.39551 -0.15674,0.59131 -0.0104,0.0177 0.003,-0.0325 -9e-4,-0.0206 0.007,-0.0462 0.0192,-0.0966 0.0218,-0.14054 -0.1171,0.48009 -0.24538,0.9576 -0.3686,1.43622 -3.4e-4,0.01 0.0211,0.006 0.0288,0.004 0.0149,-0.0408 0.0207,-0.0862 0.0325,-0.12863 0.14794,-0.61848 0.32699,-1.22901 0.47619,-1.84716 0.0209,-0.0921 0.0435,-0.18521 0.0608,-0.27716 -4.8e-4,-1.7e-4 -9.9e-4,-1.1e-4 -0.001,-3e-5 z"
     id="path131" />
  <path
     style="fill:#000000;fill-opacity:1;fill-rule:evenodd;stroke:#000000;stroke-width:0;stroke-linejoin:bevel;stroke-miterlimit:4.3;stroke-dasharray:none;stroke-opacity:1"
     d="m 430.14612,208.02385 c -0.0588,0.0607 -0.0923,0.14452 -0.13856,0.21559 -0.67038,1.17572 -1.33163,2.35663 -1.99639,3.53554 -0.12548,0.22989 -0.26233,0.45416 -0.37677,0.68976 -0.0313,0.0875 -0.0807,0.19823 -0.1837,0.21286 -0.12481,0.0223 -0.2079,-0.0907 -0.28838,-0.16512 -0.89949,-0.80308 -1.91253,-1.47483 -2.98523,-2.02347 -1.89262,-0.96646 -3.96204,-1.55613 -6.06063,-1.86043 -0.0857,-0.0139 -0.17695,-0.0226 -0.2593,-0.0405 0.0592,-0.10292 0.13113,-0.19803 0.1984,-0.29577 -0.0707,-0.0175 -0.0998,0.0664 -0.14107,0.10572 -0.0558,0.0698 -0.11141,0.13967 -0.16711,0.20951 1.84264,0.22495 3.66221,0.68062 5.37255,1.40689 1.43308,0.60997 2.79199,1.41741 3.9511,2.46309 0.13333,0.11698 0.25742,0.2441 0.38583,0.36606 0.90544,-1.60128 1.80765,-3.20442 2.70754,-4.80883 0.009,-0.0112 -0.0128,-0.0108 -0.0183,-0.0109 z"
     id="path132" />
  <path
     style="fill:#000000;fill-opacity:1;fill-rule:evenodd;stroke:#000000;stroke-width:0;stroke-linejoin:bevel;stroke-miterlimit:4.3;stroke-dasharray:none;stroke-opacity:1"
     d="m 429.24207,194.27402 c -0.0203,0.002 -0.026,0.0291 -0.0406,0.0405 -1.77546,2.21416 -3.55047,4.42867 -5.32448,6.644 0.014,0.007 0.0334,0.01 0.0406,-0.008 0.32641,-0.39748 0.6454,-0.80099 0.96755,-1.20192 1.46074,-1.82458 2.9217,-3.64899 4.38322,-5.47295 -0.009,-4.8e-4 -0.0175,-0.002 -0.0262,-0.001 z"
     id="path133" />
  <path
     style="fill:#000000;fill-opacity:1;fill-rule:evenodd;stroke:#000000;stroke-width:0;stroke-linejoin:bevel;stroke-miterlimit:4.3;stroke-dasharray:none;stroke-opacity:1"
     d="m 446.08232,179.69592 c -0.0205,7e-5 -0.0208,0.0298 -0.0329,0.0418 -1.36709,2.42671 -2.7318,4.85476 -4.09759,7.2822 0.023,-4.8e-4 0.048,0.002 0.0536,-0.0262 1.3683,-2.43216 2.7366,-4.86432 4.10491,-7.29648 -0.009,-4.9e-4 -0.0186,-0.002 -0.028,-0.001 z"
     id="path134" />
  <path
     style="fill:#000000;fill-opacity:1;fill-rule:evenodd;stroke:#000000;stroke-width:0;stroke-linejoin:bevel;stroke-miterlimit:4.3;stroke-dasharray:none;stroke-opacity:1"
     d="m 441.96663,187.02353 c -0.0956,0.13145 -0.16712,0.2803 -0.25028,0.42026 -1.11247,1.97803 -2.22714,3.95512 -3.33735,5.93423 0.0382,0.004 0.0427,-0.0538 0.0653,-0.075 0.51611,-0.89344 1.0171,-1.79553 1.52464,-2.69386 0.67017,-1.19277 1.34284,-2.38447 2.0102,-3.5786 -3.5e-4,-0.006 -0.008,-0.007 -0.0125,-0.007 z"
     id="path135" />
  <path
     style="fill:#000000;fill-opacity:1;fill-rule:evenodd;stroke:#000000;stroke-width:0;stroke-linejoin:bevel;stroke-miterlimit:4.3;stroke-dasharray:none;stroke-opacity:1"
     d="m 446.25679,179.36695 c -0.0617,0.1096 -0.12329,0.21931 -0.18522,0.3288 0.0232,-6.2e-4 0.0486,0.002 0.0543,-0.0262 0.1081,-0.19331 0.21896,-0.3863 0.32487,-0.58008 -0.0199,-0.004 -0.0431,-0.007 -0.0482,0.0184 -0.0486,0.0864 -0.0972,0.17274 -0.14578,0.25911 z"
     id="path136" />
  <path
     style="fill:#000000;fill-opacity:1;fill-rule:evenodd;stroke:#000000;stroke-width:0;stroke-linejoin:bevel;stroke-miterlimit:4.3;stroke-dasharray:none;stroke-opacity:1"
     d="m 444.78812,176.73144 c -0.47493,3.3e-4 -0.94985,6.5e-4 -1.42478,9.8e-4 -1.9437,2.41602 -3.88768,4.83182 -5.82864,7.25005 -0.0188,0.0235 -0.0376,0.0469 -0.0562,0.0705 1.72571,0.003 3.45143,0.001 5.17715,0.002 0.31947,0 0.63894,0 0.9584,0 0.86628,-1.53989 1.73255,-3.07978 2.59882,-4.61967 0,-0.90152 0,-1.80304 0,-2.70456 -0.47492,3.3e-4 -0.94985,6.5e-4 -1.42477,9.8e-4 z"
     id="path137" />
</svg>
