<?xml version="1.0" encoding="UTF-8"?>
<!-- Do not edit this file with editors other than draw.io -->
<!DOCTYPE svg PUBLIC "-//W3C//DTD SVG 1.1//EN" "http://www.w3.org/Graphics/SVG/1.1/DTD/svg11.dtd">
<svg xmlns="http://www.w3.org/2000/svg" xmlns:xlink="http://www.w3.org/1999/xlink" version="1.1" width="685px" height="391px" viewBox="-0.5 -0.5 685 391" content="&lt;mxfile host=&quot;Electron&quot; agent=&quot;Mozilla/5.0 (Windows NT 10.0; Win64; x64) AppleWebKit/537.36 (KHTML, like Gecko) draw.io/24.7.17 Chrome/128.0.6613.36 Electron/32.0.1 Safari/537.36&quot; version=&quot;24.7.17&quot;&gt;&#10;  &lt;diagram name=&quot;Page-1&quot; id=&quot;SH8CCHkMOnSKmfnF3Tms&quot;&gt;&#10;    &lt;mxGraphModel dx=&quot;832&quot; dy=&quot;526&quot; grid=&quot;1&quot; gridSize=&quot;10&quot; guides=&quot;1&quot; tooltips=&quot;1&quot; connect=&quot;1&quot; arrows=&quot;1&quot; fold=&quot;1&quot; page=&quot;1&quot; pageScale=&quot;1&quot; pageWidth=&quot;1169&quot; pageHeight=&quot;827&quot; math=&quot;0&quot; shadow=&quot;0&quot;&gt;&#10;      &lt;root&gt;&#10;        &lt;mxCell id=&quot;0&quot; /&gt;&#10;        &lt;mxCell id=&quot;1&quot; parent=&quot;0&quot; /&gt;&#10;        &lt;mxCell id=&quot;qe9bFyETUB0wSm8_aLsj-1&quot; value=&quot;&quot; style=&quot;rounded=1;strokeColor=#79796a;fontColor=#fffffe;fillColor=#242415;&quot; parent=&quot;1&quot; vertex=&quot;1&quot;&gt;&#10;          &lt;mxGeometry x=&quot;270&quot; y=&quot;210&quot; width=&quot;680&quot; height=&quot;390&quot; as=&quot;geometry&quot; /&gt;&#10;        &lt;/mxCell&gt;&#10;        &lt;mxCell id=&quot;qe9bFyETUB0wSm8_aLsj-3&quot; value=&quot;&quot; style=&quot;curved=1;endArrow=classic;rounded=0;strokeColor=#4D4D4D;fontColor=#fffffe;fillColor=#242416;strokeWidth=10;flowAnimation=1;flowAnimationDuration=2000;&quot; parent=&quot;1&quot; edge=&quot;1&quot;&gt;&#10;          &lt;mxGeometry width=&quot;50&quot; height=&quot;50&quot; relative=&quot;1&quot; as=&quot;geometry&quot;&gt;&#10;            &lt;mxPoint x=&quot;281&quot; y=&quot;323&quot; as=&quot;sourcePoint&quot; /&gt;&#10;            &lt;mxPoint x=&quot;796&quot; y=&quot;569&quot; as=&quot;targetPoint&quot; /&gt;&#10;            &lt;Array as=&quot;points&quot;&gt;&#10;              &lt;mxPoint x=&quot;378&quot; y=&quot;336&quot; /&gt;&#10;              &lt;mxPoint x=&quot;554&quot; y=&quot;536&quot; /&gt;&#10;            &lt;/Array&gt;&#10;          &lt;/mxGeometry&gt;&#10;        &lt;/mxCell&gt;&#10;        &lt;mxCell id=&quot;qe9bFyETUB0wSm8_aLsj-4&quot; value=&quot;&quot; style=&quot;endArrow=classic;rounded=0;strokeColor=#994C00;fontColor=#fffffe;fillColor=#242416;flowAnimation=1;strokeWidth=14;flowAnimationDuration=2000;fixDash=0;flowAnimationTimingFunction=linear;editable=1;movable=1;resizable=1;rotatable=1;deletable=1;locked=0;connectable=1;&quot; parent=&quot;1&quot; edge=&quot;1&quot;&gt;&#10;          &lt;mxGeometry relative=&quot;1&quot; as=&quot;geometry&quot;&gt;&#10;            &lt;mxPoint x=&quot;280&quot; y=&quot;399.5&quot; as=&quot;sourcePoint&quot; /&gt;&#10;            &lt;mxPoint x=&quot;800&quot; y=&quot;423&quot; as=&quot;targetPoint&quot; /&gt;&#10;          &lt;/mxGeometry&gt;&#10;        &lt;/mxCell&gt;&#10;        &lt;mxCell id=&quot;qe9bFyETUB0wSm8_aLsj-5&quot; value=&quot;Niveau moyen de la population&quot; style=&quot;edgeLabel;resizable=0;;align=center;verticalAlign=middle;strokeColor=#79796a;fontColor=#fffffe;fillColor=#242415;rotation=2.1;&quot; parent=&quot;qe9bFyETUB0wSm8_aLsj-4&quot; connectable=&quot;0&quot; vertex=&quot;1&quot;&gt;&#10;          &lt;mxGeometry relative=&quot;1&quot; as=&quot;geometry&quot;&gt;&#10;            &lt;mxPoint x=&quot;12&quot; y=&quot;-1&quot; as=&quot;offset&quot; /&gt;&#10;          &lt;/mxGeometry&gt;&#10;        &lt;/mxCell&gt;&#10;        &lt;mxCell id=&quot;qe9bFyETUB0wSm8_aLsj-6&quot; value=&quot;Évolution du niveau d&amp;#39;un(e) politicien(ne), en général&quot; style=&quot;edgeLabel;resizable=0;;align=center;verticalAlign=middle;strokeColor=#79796a;fontColor=#fffffe;fillColor=#242415;rotation=25;&quot; parent=&quot;1&quot; connectable=&quot;0&quot; vertex=&quot;1&quot;&gt;&#10;          &lt;mxGeometry x=&quot;596.9957310237&quot; y=&quot;537.9999708403259&quot; as=&quot;geometry&quot; /&gt;&#10;        &lt;/mxCell&gt;&#10;        &lt;mxCell id=&quot;qe9bFyETUB0wSm8_aLsj-7&quot; value=&quot;Évolution du niveau population / politicien(ne)&quot; style=&quot;text;align=center;verticalAlign=middle;rounded=0;fontColor=#fffffe;strokeWidth=1;fontSize=24;sketch=1;curveFitting=1;jiggle=2;fillColor=#00CC00;&quot; parent=&quot;1&quot; vertex=&quot;1&quot;&gt;&#10;          &lt;mxGeometry x=&quot;310&quot; y=&quot;220&quot; width=&quot;520&quot; height=&quot;30&quot; as=&quot;geometry&quot; /&gt;&#10;        &lt;/mxCell&gt;&#10;        &lt;mxCell id=&quot;qe9bFyETUB0wSm8_aLsj-10&quot; value=&quot;Début de &amp;quot;carrière&amp;quot;&quot; style=&quot;text;align=center;verticalAlign=middle;rounded=0;fontColor=#fffffe;&quot; parent=&quot;1&quot; vertex=&quot;1&quot;&gt;&#10;          &lt;mxGeometry x=&quot;292&quot; y=&quot;307&quot; width=&quot;60&quot; height=&quot;30&quot; as=&quot;geometry&quot; /&gt;&#10;        &lt;/mxCell&gt;&#10;        &lt;mxCell id=&quot;qe9bFyETUB0wSm8_aLsj-11&quot; value=&quot;Fin de &amp;quot;carrière&amp;quot;&quot; style=&quot;text;align=center;verticalAlign=middle;rounded=0;fontColor=#fffffe;&quot; parent=&quot;1&quot; vertex=&quot;1&quot;&gt;&#10;          &lt;mxGeometry x=&quot;780&quot; y=&quot;570&quot; width=&quot;60&quot; height=&quot;30&quot; as=&quot;geometry&quot; /&gt;&#10;        &lt;/mxCell&gt;&#10;        &lt;mxCell id=&quot;uZnUyjsdgYwMP4qiZMxo-1&quot; value=&quot;Dans un occident sous emprise&quot; style=&quot;text;align=center;verticalAlign=middle;rounded=0;fontColor=#fffffe;&quot; vertex=&quot;1&quot; parent=&quot;1&quot;&gt;&#10;          &lt;mxGeometry x=&quot;700&quot; y=&quot;260&quot; width=&quot;60&quot; height=&quot;30&quot; as=&quot;geometry&quot; /&gt;&#10;        &lt;/mxCell&gt;&#10;      &lt;/root&gt;&#10;    &lt;/mxGraphModel&gt;&#10;  &lt;/diagram&gt;&#10;&lt;/mxfile&gt;&#10;"><defs/><g><g data-cell-id="0"><g data-cell-id="1"><g data-cell-id="qe9bFyETUB0wSm8_aLsj-1"><g id="cell-qe9bFyETUB0wSm8_aLsj-1"><g><rect x="4" y="0" width="680" height="390" rx="58.5" ry="58.5" fill="#242415" stroke="#79796a" pointer-events="all"/></g></g></g><g data-cell-id="qe9bFyETUB0wSm8_aLsj-3"><g id="cell-qe9bFyETUB0wSm8_aLsj-3"><g><path d="M 15 113 Q 112 126 200 226 Q 288 326 507.03 355.87" fill="none" stroke="#4d4d4d" stroke-width="10" stroke-miterlimit="10" pointer-events="stroke"/><path d="M 518.92 357.49 L 501.99 363.25 L 507.03 355.87 L 504.15 347.4 Z" fill="#4d4d4d" stroke="#4d4d4d" stroke-width="10" stroke-miterlimit="10" pointer-events="all"/></g></g></g><g data-cell-id="qe9bFyETUB0wSm8_aLsj-4"><g id="cell-qe9bFyETUB0wSm8_aLsj-4"><g><path d="M 14 189.5 L 503.38 211.62" fill="none" stroke="#994c00" stroke-width="14" stroke-miterlimit="10" pointer-events="stroke"/><path d="M 518.36 212.29 L 497.93 221.38 L 503.38 211.62 L 498.84 201.4 Z" fill="#994c00" stroke="#994c00" stroke-width="14" stroke-miterlimit="10" pointer-events="all"/></g></g><g data-cell-id="qe9bFyETUB0wSm8_aLsj-5"><g id="cell-qe9bFyETUB0wSm8_aLsj-5"><g><g fill="#fffffe" font-family="&quot;Helvetica&quot;" text-anchor="middle" font-size="11px" transform="rotate(2.1,286.22,200.76)"><rect fill="rgb(0, 0, 0)" stroke="none" x="210" y="195" width="153" height="14" stroke-width="0"/><text x="285.72" y="204.76">Niveau moyen de la population</text></g></g></g></g></g><g data-cell-id="qe9bFyETUB0wSm8_aLsj-6"><g id="cell-qe9bFyETUB0wSm8_aLsj-6"><g><g fill="#fffffe" font-family="&quot;Helvetica&quot;" text-anchor="middle" font-size="11px" transform="rotate(25,331.24,328.66)"><rect fill="rgb(0, 0, 0)" stroke="none" x="203" y="323" width="258" height="14" stroke-width="0"/><text x="330.74" y="332.66">Évolution du niveau d'un(e) politicien(ne), en général</text></g></g></g></g><g data-cell-id="qe9bFyETUB0wSm8_aLsj-7"><g id="cell-qe9bFyETUB0wSm8_aLsj-7"><g><rect x="44" y="10" width="520" height="30" fill="none" stroke="none" pointer-events="all"/><path d="M 43.78 10.26 C 43.78 10.26 43.78 10.26 43.78 10.26 M 43.78 10.26 C 43.78 10.26 43.78 10.26 43.78 10.26 M 44.17 15.9 C 45.74 13.37 49.24 9.93 49.42 9.86 M 44.17 15.9 C 45.22 15.28 46.92 13.6 49.42 9.86 M 43.91 22.3 C 50.29 18.45 48.01 17.23 54.41 10.22 M 43.91 22.3 C 46.48 18.94 48.65 16.29 54.41 10.22 M 44.3 27.94 C 49.56 22.2 55.56 21.23 60.05 9.83 M 44.3 27.94 C 47.02 25.56 52.01 17.87 60.05 9.83 M 44.04 34.34 C 54.29 24.28 62.84 17.78 65.04 10.19 M 44.04 34.34 C 47.77 28.72 54.28 20.15 65.04 10.19 M 44.44 39.98 C 49.49 30.92 62.13 22.33 70.68 9.79 M 44.44 39.98 C 52.9 28.43 65.95 16.16 70.68 9.79 M 49.42 40.34 C 61.91 32.42 66.54 15.7 75.67 10.15 M 49.42 40.34 C 61.08 30.21 71.2 17.21 75.67 10.15 M 55.07 39.95 C 62.49 29.56 74.38 16.18 81.31 9.76 M 55.07 39.95 C 61.68 32.67 67.32 23.4 81.31 9.76 M 60.05 40.31 C 66.09 33.22 71.41 21.78 86.3 10.12 M 60.05 40.31 C 65.83 30.38 73.51 24.71 86.3 10.12 M 65.7 39.91 C 69.26 35.43 75.43 26.71 91.94 9.73 M 65.7 39.91 C 70.29 33.81 79.1 27.18 91.94 9.73 M 70.68 40.27 C 77.96 30.64 84.88 27.42 96.93 10.09 M 70.68 40.27 C 77.25 30.26 85.58 20.63 96.93 10.09 M 76.33 39.88 C 84.01 32.62 95.83 21.03 102.57 9.69 M 76.33 39.88 C 84.04 33.36 91.28 24.15 102.57 9.69 M 81.31 40.24 C 94.01 27.96 99.85 15.54 107.56 10.05 M 81.31 40.24 C 86.2 32.73 92.56 26.37 107.56 10.05 M 86.96 39.85 C 92.87 35.88 101.61 27.39 113.2 9.66 M 86.96 39.85 C 92.34 34.67 98.97 24.17 113.2 9.66 M 91.94 40.21 C 101.85 30.47 105.28 24.07 118.19 10.02 M 91.94 40.21 C 99.16 34.08 106.63 23.41 118.19 10.02 M 96.93 40.57 C 107.08 31.67 116.41 19.14 123.17 10.38 M 96.93 40.57 C 104.52 33.4 110.05 23.66 123.17 10.38 M 102.57 40.17 C 110.87 35.51 113.67 22.87 128.82 9.98 M 102.57 40.17 C 110.52 30.97 120.92 17.45 128.82 9.98 M 107.56 40.53 C 115.69 37.68 116.05 29.46 133.8 10.34 M 107.56 40.53 C 115.98 30.7 127.48 19.83 133.8 10.34 M 113.2 40.14 C 121.69 27.2 128.16 17.52 139.45 9.95 M 113.2 40.14 C 119.31 34.62 123.66 23.65 139.45 9.95 M 118.19 40.5 C 127.3 25.82 138.84 15.02 144.43 10.31 M 118.19 40.5 C 124.63 35.45 129.83 25.98 144.43 10.31 M 123.83 40.1 C 128.45 31.03 137 25.02 150.08 9.91 M 123.83 40.1 C 133.48 31.34 139.28 21.84 150.08 9.91 M 128.82 40.46 C 138.5 25.94 148.2 17.03 155.06 10.27 M 128.82 40.46 C 135.72 32.64 140.99 26.7 155.06 10.27 M 134.46 40.07 C 143.46 31.06 153.72 19.78 160.71 9.88 M 134.46 40.07 C 139.92 34.25 147.06 25.65 160.71 9.88 M 139.45 40.43 C 149.31 28.75 159.48 18.96 165.69 10.24 M 139.45 40.43 C 148.52 27.65 160.01 19.32 165.69 10.24 M 145.09 40.03 C 154.16 30.82 158.57 21.73 171.34 9.84 M 145.09 40.03 C 153.6 30.43 160.48 18.35 171.34 9.84 M 150.08 40.39 C 161.76 28.45 169.36 20.16 176.32 10.2 M 150.08 40.39 C 158.41 30.83 169.76 19.51 176.32 10.2 M 155.72 40 C 165.72 30.46 175.39 20.3 181.97 9.81 M 155.72 40 C 165.72 30.73 174.35 15.84 181.97 9.81 M 160.71 40.36 C 169.85 35.3 172.75 23.62 186.95 10.17 M 160.71 40.36 C 171.75 27.93 182.26 18.54 186.95 10.17 M 166.35 39.96 C 171.68 32.41 181.24 19.2 192.6 9.78 M 166.35 39.96 C 172.6 31.13 180.21 22.97 192.6 9.78 M 171.34 40.32 C 182.15 32.08 190.19 15.17 197.58 10.14 M 171.34 40.32 C 179.41 29.45 189.71 21.78 197.58 10.14 M 176.98 39.93 C 182.44 28.89 190.67 22.86 203.23 9.74 M 176.98 39.93 C 188.25 28.18 194.67 15.81 203.23 9.74 M 181.97 40.29 C 194.69 28.57 198.72 17.2 208.21 10.1 M 181.97 40.29 C 189.63 33.43 194.58 24.4 208.21 10.1 M 187.61 39.89 C 198.88 31.35 210.75 12.88 213.86 9.71 M 187.61 39.89 C 194.81 29.75 203.8 19.75 213.86 9.71 M 192.6 40.25 C 197.65 33.01 210.08 16.97 218.84 10.07 M 192.6 40.25 C 202.81 29.75 213.75 14.67 218.84 10.07 M 198.24 39.86 C 208.59 29.06 213.44 27.73 224.49 9.67 M 198.24 39.86 C 207.27 29.15 219.22 18.26 224.49 9.67 M 203.23 40.22 C 211.24 29.73 216.04 27.27 229.47 10.03 M 203.23 40.22 C 213.72 27.76 222.33 14.77 229.47 10.03 M 208.22 40.58 C 210.45 35.96 223.94 30.16 235.12 9.64 M 208.22 40.58 C 217.23 31.52 225.1 24.33 235.12 9.64 M 213.86 40.19 C 223.3 34.46 222.09 22.77 240.1 10 M 213.86 40.19 C 219.39 31.68 225.15 24.95 240.1 10 M 218.85 40.55 C 230.72 29.41 240.37 18.07 245.09 10.36 M 218.85 40.55 C 227.52 30.16 239.55 18.65 245.09 10.36 M 224.49 40.15 C 236.92 31.04 238.99 19.64 250.73 9.96 M 224.49 40.15 C 233.43 29.95 241.79 21.92 250.73 9.96 M 229.48 40.51 C 235.27 31.06 248.91 18.67 255.72 10.32 M 229.48 40.51 C 238.74 31.61 250.12 17.78 255.72 10.32 M 235.12 40.12 C 247.16 33.76 254.27 17.07 261.36 9.93 M 235.12 40.12 C 243.05 30.18 254.62 18.96 261.36 9.93 M 240.11 40.48 C 243.81 35.4 248.16 23.5 266.35 10.29 M 240.11 40.48 C 247.01 30 258.56 21.45 266.35 10.29 M 245.75 40.08 C 254.79 26.99 264.43 19.68 271.99 9.89 M 245.75 40.08 C 252.04 30.23 259.48 25.88 271.99 9.89 M 250.74 40.44 C 256.26 30.89 259.1 23.89 276.98 10.25 M 250.74 40.44 C 261.37 29.58 270.03 17.09 276.98 10.25 M 256.38 40.05 C 262.95 32.53 269.18 30.05 282.62 9.86 M 256.38 40.05 C 264 28.92 271.5 20.68 282.62 9.86 M 261.37 40.41 C 268.11 25.79 281.73 15.94 287.61 10.22 M 261.37 40.41 C 269.53 31.09 278.77 19.47 287.61 10.22 M 267.01 40.01 C 275.34 35.15 277.29 27.09 293.25 9.82 M 267.01 40.01 C 271.3 32.37 278.47 27.05 293.25 9.82 M 272 40.37 C 280.83 34.62 289.52 20.03 298.24 10.19 M 272 40.37 C 281.2 27.43 293.86 17.27 298.24 10.19 M 277.64 39.98 C 287.62 28.19 298.29 14.77 303.88 9.79 M 277.64 39.98 C 287.47 26.71 299.28 15.86 303.88 9.79 M 282.63 40.34 C 292.07 30.73 304.57 16.18 308.87 10.15 M 282.63 40.34 C 289.96 31.34 298.65 21.85 308.87 10.15 M 288.27 39.94 C 290.56 37.12 303.14 24.76 314.51 9.76 M 288.27 39.94 C 293.85 34.47 298.06 24.88 314.51 9.76 M 293.26 40.3 C 303.79 28.57 307.59 25.6 319.5 10.12 M 293.26 40.3 C 302.18 29.43 310.09 20.17 319.5 10.12 M 298.9 39.91 C 310.45 28.64 311.82 20.2 325.14 9.72 M 298.9 39.91 C 307.07 29.95 314.66 22.7 325.14 9.72 M 303.89 40.27 C 310.91 31.46 327.38 17.21 330.13 10.08 M 303.89 40.27 C 313.33 28.14 320.65 17.86 330.13 10.08 M 309.53 39.88 C 318.54 28.77 319.84 21.2 335.77 9.69 M 309.53 39.88 C 322.06 28.95 329.87 15.88 335.77 9.69 M 314.52 40.24 C 321.83 32.05 328.55 21.33 340.76 10.05 M 314.52 40.24 C 319.97 32.05 326.19 28.53 340.76 10.05 M 320.16 39.84 C 326.75 25.74 339.65 14.37 346.41 9.65 M 320.16 39.84 C 327.45 34.21 331.19 25.22 346.41 9.65 M 325.15 40.2 C 335.15 31.5 342.3 21.61 351.39 10.01 M 325.15 40.2 C 333.91 35.32 337.29 26.07 351.39 10.01 M 330.14 40.56 C 332.93 36.76 341.43 22.93 356.38 10.37 M 330.14 40.56 C 337.58 30.44 348.43 21.64 356.38 10.37 M 335.78 40.17 C 342.6 31.44 347.26 26.26 362.02 9.98 M 335.78 40.17 C 344.4 32.25 353.71 22.34 362.02 9.98 M 340.77 40.53 C 350.39 35.2 351.14 22.52 367.01 10.34 M 340.77 40.53 C 349.86 33.25 354.42 22.4 367.01 10.34 M 346.41 40.13 C 357.23 27.24 366.53 20.03 372.65 9.94 M 346.41 40.13 C 352.18 29.85 362.42 22.8 372.65 9.94 M 351.4 40.49 C 363.59 32.62 372.11 22.54 377.64 10.3 M 351.4 40.49 C 356.75 30.68 363.24 25.45 377.64 10.3 M 357.04 40.1 C 361.2 32.4 370.66 21.94 383.28 9.91 M 357.04 40.1 C 362.81 35.34 368.01 26.79 383.28 9.91 M 362.03 40.46 C 372.03 30.55 380.84 24.83 388.27 10.27 M 362.03 40.46 C 367.92 35.03 375.09 28.25 388.27 10.27 M 367.67 40.06 C 380.47 28.33 386.35 19.69 393.91 9.87 M 367.67 40.06 C 376.21 29.36 386.33 17.88 393.91 9.87 M 372.66 40.42 C 379.73 27.35 393.56 23.45 398.9 10.23 M 372.66 40.42 C 383.98 28.88 394.02 16.85 398.9 10.23 M 378.3 40.03 C 388.87 29.68 393.25 24.33 404.54 9.84 M 378.3 40.03 C 388.09 30.93 395.6 17.94 404.54 9.84 M 383.29 40.39 C 397.14 31.92 407.03 17.46 409.53 10.2 M 383.29 40.39 C 388.74 31 396.51 22.89 409.53 10.2 M 388.93 39.99 C 401.24 31.68 405.69 22.29 415.17 9.81 M 388.93 39.99 C 392.56 33.69 399.86 26.16 415.17 9.81 M 393.92 40.35 C 401.87 31.21 404.65 29.51 420.16 10.17 M 393.92 40.35 C 401.92 33.17 407.56 23.17 420.16 10.17 M 399.56 39.96 C 409.89 34 412.49 26.53 425.8 9.77 M 399.56 39.96 C 408.2 30.21 420.41 18.36 425.8 9.77 M 404.55 40.32 C 411.31 31.64 420.74 24.01 430.79 10.13 M 404.55 40.32 C 413.26 29.34 420.68 20.04 430.79 10.13 M 410.19 39.93 C 418.5 32.08 421.02 28.65 436.43 9.74 M 410.19 39.93 C 415.23 33.04 421.65 29.4 436.43 9.74 M 415.18 40.29 C 417.97 35.66 425.66 26.99 441.42 10.1 M 415.18 40.29 C 420.65 33.78 429.15 24.46 441.42 10.1 M 420.82 39.89 C 429.53 34.44 434.22 21.31 447.06 9.7 M 420.82 39.89 C 428.93 29.54 442.05 16.45 447.06 9.7 M 425.81 40.25 C 432.88 30.16 446.18 17.3 452.05 10.06 M 425.81 40.25 C 434.17 28.63 445.94 18.5 452.05 10.06 M 431.45 39.86 C 442.68 26.51 448.93 17.02 457.69 9.67 M 431.45 39.86 C 439.4 35.02 443.12 25.7 457.69 9.67 M 436.44 40.22 C 445.33 32.17 448.31 21.49 462.68 10.03 M 436.44 40.22 C 443.12 30.49 451.07 25.1 462.68 10.03 M 441.42 40.58 C 447.52 32.56 451.55 28.97 468.32 9.63 M 441.42 40.58 C 448.89 31.21 456.49 23.07 468.32 9.63 M 447.07 40.18 C 456.91 33.17 458.69 28.86 473.31 9.99 M 447.07 40.18 C 453.01 32.76 457.57 29.2 473.31 9.99 M 452.05 40.54 C 457.18 32.02 463.86 27.05 478.3 10.35 M 452.05 40.54 C 458.1 35.44 462.13 28.03 478.3 10.35 M 457.7 40.15 C 465.08 27.51 474.08 19.12 483.94 9.96 M 457.7 40.15 C 466.75 27.28 475.42 18.45 483.94 9.96 M 462.68 40.51 C 474.85 26.69 482.15 20.49 488.93 10.32 M 462.68 40.51 C 472.76 28.68 481.54 15.9 488.93 10.32 M 468.33 40.11 C 476.15 32.28 482.19 21.18 494.57 9.92 M 468.33 40.11 C 474.77 30.91 483.39 22.96 494.57 9.92 M 473.31 40.47 C 481.77 30.28 482.3 30.14 499.56 10.28 M 473.31 40.47 C 478.87 35.14 486.39 27.17 499.56 10.28 M 478.96 40.08 C 491.71 31.48 501.22 18.29 505.2 9.89 M 478.96 40.08 C 484.65 30.77 494.03 23.26 505.2 9.89 M 483.94 40.44 C 491.14 25.32 503.38 19.3 510.19 10.25 M 483.94 40.44 C 492.11 29.53 504 18.16 510.19 10.25 M 489.59 40.04 C 499.74 30.52 504.64 23.6 515.83 9.86 M 489.59 40.04 C 499.17 29.85 505.56 23.12 515.83 9.86 M 494.58 40.4 C 504.37 32.38 511.05 14.41 520.82 10.22 M 494.58 40.4 C 501.8 30.55 512.76 20.2 520.82 10.22 M 500.22 40.01 C 509.93 29.96 514.84 24.77 526.46 9.82 M 500.22 40.01 C 512.11 30.66 520.07 20.08 526.46 9.82 M 505.21 40.37 C 509.05 31.17 517.71 26.98 531.45 10.18 M 505.21 40.37 C 515.35 26.9 524.48 16.26 531.45 10.18 M 510.85 39.97 C 518.76 30.77 531.11 20.41 537.09 9.79 M 510.85 39.97 C 520.11 29.54 530.26 18.84 537.09 9.79 M 515.84 40.33 C 524.48 33.02 534.62 18.94 542.08 10.15 M 515.84 40.33 C 522.41 32.95 530.37 23.88 542.08 10.15 M 521.48 39.94 C 531.09 29.05 540.6 25.72 547.72 9.75 M 521.48 39.94 C 528.39 28.24 538.26 19.82 547.72 9.75 M 526.47 40.3 C 532.97 27.71 543.88 22.84 552.71 10.11 M 526.47 40.3 C 537.49 28.14 544.55 17.36 552.71 10.11 M 532.11 39.91 C 540.74 27.23 549.28 22.61 558.35 9.72 M 532.11 39.91 C 537.92 34.4 546.93 24.6 558.35 9.72 M 537.1 40.27 C 541.46 33.72 548.57 28.75 563.34 10.08 M 537.1 40.27 C 548.5 27.68 555.72 15.68 563.34 10.08 M 542.74 39.87 C 552.79 33.54 560.38 21.96 564.39 14.97 M 542.74 39.87 C 549.2 34.51 554.27 25.35 564.39 14.97 M 547.73 40.23 C 549.75 35.2 559.75 25.79 564.13 21.36 M 547.73 40.23 C 554.96 33.95 560.29 28.68 564.13 21.36 M 553.37 39.84 C 557.26 37.01 555.43 31.58 564.52 27.01 M 553.37 39.84 C 558.78 33.91 561.73 30.76 564.52 27.01 M 558.36 40.2 C 558.61 39.31 560.55 38.38 564.26 33.4 M 558.36 40.2 C 559.81 38.82 562.12 35.37 564.26 33.4 M 563.34 40.56 C 564.17 39.71 564.27 39.35 564.65 39.05 M 563.34 40.56 C 563.53 40 563.99 39.8 564.65 39.05" fill="none" stroke="#00cc00" stroke-width="0.5" stroke-linejoin="round" stroke-linecap="round" stroke-miterlimit="10" pointer-events="all"/></g><g><g fill="#fffffe" font-family="&quot;Helvetica&quot;" text-anchor="middle" font-size="24px"><text x="303.5" y="35.5">Évolution du niveau population / politicien(ne)</text></g></g></g></g><g data-cell-id="qe9bFyETUB0wSm8_aLsj-10"><g id="cell-qe9bFyETUB0wSm8_aLsj-10"><g><rect x="26" y="97" width="60" height="30" fill="none" stroke="none" pointer-events="all"/></g><g><g fill="#fffffe" font-family="&quot;Helvetica&quot;" text-anchor="middle" font-size="12px"><text x="55.5" y="116.5">Début de "carrière"</text></g></g></g></g><g data-cell-id="qe9bFyETUB0wSm8_aLsj-11"><g id="cell-qe9bFyETUB0wSm8_aLsj-11"><g><rect x="514" y="360" width="60" height="30" fill="none" stroke="none" pointer-events="all"/></g><g><g fill="#fffffe" font-family="&quot;Helvetica&quot;" text-anchor="middle" font-size="12px"><text x="543.5" y="379.5">Fin de "carrière"</text></g></g></g></g><g data-cell-id="uZnUyjsdgYwMP4qiZMxo-1"><g id="cell-uZnUyjsdgYwMP4qiZMxo-1"><g><rect x="434" y="50" width="60" height="30" fill="none" stroke="none" pointer-events="all"/></g><g><g fill="#fffffe" font-family="&quot;Helvetica&quot;" text-anchor="middle" font-size="12px"><text x="463.5" y="69.5">Dans un occident sous emprise</text></g></g></g></g></g></g></g></svg>