<?xml version="1.0" encoding="UTF-8"?>
<!-- Do not edit this file with editors other than draw.io -->
<!DOCTYPE svg PUBLIC "-//W3C//DTD SVG 1.1//EN" "http://www.w3.org/Graphics/SVG/1.1/DTD/svg11.dtd">
<svg xmlns="http://www.w3.org/2000/svg" xmlns:xlink="http://www.w3.org/1999/xlink" version="1.1" width="2012px" height="762px" viewBox="-0.5 -0.5 2012 762" content="&lt;mxfile host=&quot;Electron&quot; agent=&quot;Mozilla/5.0 (Windows NT 10.0; Win64; x64) AppleWebKit/537.36 (KHTML, like Gecko) draw.io/24.7.5 Chrome/126.0.6478.183 Electron/31.3.0 Safari/537.36&quot; version=&quot;24.7.5&quot;&gt;&#10;  &lt;diagram id=&quot;tc3efdtepJIbuWUbkQXq&quot; name=&quot;Page-1&quot;&gt;&#10;    &lt;mxGraphModel dx=&quot;2262&quot; dy=&quot;1247&quot; grid=&quot;1&quot; gridSize=&quot;10&quot; guides=&quot;1&quot; tooltips=&quot;1&quot; connect=&quot;1&quot; arrows=&quot;1&quot; fold=&quot;1&quot; page=&quot;1&quot; pageScale=&quot;1&quot; pageWidth=&quot;827&quot; pageHeight=&quot;1169&quot; background=&quot;#000000&quot; math=&quot;0&quot; shadow=&quot;0&quot;&gt;&#10;      &lt;root&gt;&#10;        &lt;mxCell id=&quot;0&quot; /&gt;&#10;        &lt;mxCell id=&quot;1&quot; parent=&quot;0&quot; /&gt;&#10;        &lt;mxCell id=&quot;2cB81hpbMroj3pdZVO9Y-20&quot; value=&quot;&quot; style=&quot;rounded=1;whiteSpace=wrap;html=1;labelBackgroundColor=none;strokeColor=#FFFFFF;fontSize=29;fontColor=#666666;fillColor=#000033;dashed=1;strokeWidth=2;&quot; parent=&quot;1&quot; vertex=&quot;1&quot;&gt;&#10;          &lt;mxGeometry x=&quot;-710&quot; y=&quot;100&quot; width=&quot;2010&quot; height=&quot;760&quot; as=&quot;geometry&quot; /&gt;&#10;        &lt;/mxCell&gt;&#10;        &lt;mxCell id=&quot;XIe4nDhoCcc2eIplrwcz-4&quot; value=&quot;&quot; style=&quot;rounded=1;strokeColor=none;fontColor=#fffffe;fillColor=#0066CC;gradientColor=#994C0040;&quot; parent=&quot;1&quot; vertex=&quot;1&quot;&gt;&#10;          &lt;mxGeometry x=&quot;-650&quot; y=&quot;150&quot; width=&quot;1910&quot; height=&quot;690&quot; as=&quot;geometry&quot; /&gt;&#10;        &lt;/mxCell&gt;&#10;        &lt;mxCell id=&quot;2cB81hpbMroj3pdZVO9Y-9&quot; value=&quot;&quot; style=&quot;ellipse;whiteSpace=wrap;html=1;labelBackgroundColor=none;strokeColor=#79796A;fontColor=#FFFFFF;fillColor=#663300;&quot; parent=&quot;1&quot; vertex=&quot;1&quot;&gt;&#10;          &lt;mxGeometry x=&quot;-560&quot; y=&quot;460&quot; width=&quot;1690&quot; height=&quot;360&quot; as=&quot;geometry&quot; /&gt;&#10;        &lt;/mxCell&gt;&#10;        &lt;mxCell id=&quot;UAkjG4toPhCPOxB0Bzuw-2&quot; style=&quot;edgeStyle=orthogonalEdgeStyle;rounded=0;orthogonalLoop=1;jettySize=auto;html=1;exitX=0.5;exitY=1;exitDx=0;exitDy=0;strokeColor=#4A0025;strokeWidth=90;&quot; parent=&quot;1&quot; edge=&quot;1&quot;&gt;&#10;          &lt;mxGeometry relative=&quot;1&quot; as=&quot;geometry&quot;&gt;&#10;            &lt;mxPoint x=&quot;134.81999999999994&quot; y=&quot;281.51&quot; as=&quot;sourcePoint&quot; /&gt;&#10;            &lt;mxPoint x=&quot;134.81999999999994&quot; y=&quot;281.51&quot; as=&quot;targetPoint&quot; /&gt;&#10;          &lt;/mxGeometry&gt;&#10;        &lt;/mxCell&gt;&#10;        &lt;mxCell id=&quot;2cB81hpbMroj3pdZVO9Y-1&quot; value=&quot;Une partie du peuple&quot; style=&quot;ellipse;whiteSpace=wrap;html=1;strokeColor=#CCCCCC;fillColor=#994C00;fontColor=#FFFFFF;fontSize=24;&quot; parent=&quot;1&quot; vertex=&quot;1&quot;&gt;&#10;          &lt;mxGeometry x=&quot;-270&quot; y=&quot;670&quot; width=&quot;1070&quot; height=&quot;80&quot; as=&quot;geometry&quot; /&gt;&#10;        &lt;/mxCell&gt;&#10;        &lt;mxCell id=&quot;2cB81hpbMroj3pdZVO9Y-2&quot; value=&quot;&quot; style=&quot;ellipse;whiteSpace=wrap;html=1;strokeColor=none;fillColor=#994C00;fontColor=#FFFFFF;fontSize=24;&quot; parent=&quot;1&quot; vertex=&quot;1&quot;&gt;&#10;          &lt;mxGeometry x=&quot;-260&quot; y=&quot;470&quot; width=&quot;1070&quot; height=&quot;180&quot; as=&quot;geometry&quot; /&gt;&#10;        &lt;/mxCell&gt;&#10;        &lt;mxCell id=&quot;2cB81hpbMroj3pdZVO9Y-8&quot; value=&quot;&amp;lt;font style=&amp;quot;font-size: 24px;&amp;quot;&amp;gt;Ellipse qui serait l&amp;#39;ellipse des ténèbres, de l&amp;#39;apostasie? : ils mirent de côté l&amp;#39;essentiel : Dieu, la théologie&amp;lt;/font&amp;gt;&quot; style=&quot;text;html=1;strokeColor=none;fillColor=none;align=center;verticalAlign=middle;whiteSpace=wrap;rounded=0;labelBackgroundColor=none;fontColor=#FFFFFF;fontSize=24;&quot; parent=&quot;1&quot; vertex=&quot;1&quot;&gt;&#10;          &lt;mxGeometry x=&quot;810&quot; y=&quot;590&quot; width=&quot;290&quot; height=&quot;100&quot; as=&quot;geometry&quot; /&gt;&#10;        &lt;/mxCell&gt;&#10;        &lt;mxCell id=&quot;2cB81hpbMroj3pdZVO9Y-18&quot; value=&quot;&amp;lt;font style=&amp;quot;font-size: 24px;&amp;quot;&amp;gt;Hiérarchie de qui serait dans le bon sens pour aller vers Dieu&amp;lt;br style=&amp;quot;font-size: 24px;&amp;quot;&amp;gt;&amp;lt;/font&amp;gt;&quot; style=&quot;text;html=1;strokeColor=none;fillColor=none;align=center;verticalAlign=middle;whiteSpace=wrap;rounded=0;labelBackgroundColor=none;fontSize=24;fontColor=#FFFFFF;&quot; parent=&quot;1&quot; vertex=&quot;1&quot;&gt;&#10;          &lt;mxGeometry x=&quot;970&quot; y=&quot;175&quot; width=&quot;160&quot; height=&quot;130&quot; as=&quot;geometry&quot; /&gt;&#10;        &lt;/mxCell&gt;&#10;        &lt;mxCell id=&quot;2cB81hpbMroj3pdZVO9Y-21&quot; value=&quot;&quot; style=&quot;ellipse;whiteSpace=wrap;html=1;dashed=1;labelBackgroundColor=none;strokeColor=none;fontSize=24;fontColor=#666666;fillColor=#0000CC;&quot; parent=&quot;1&quot; vertex=&quot;1&quot;&gt;&#10;          &lt;mxGeometry x=&quot;-580&quot; y=&quot;330&quot; width=&quot;1720&quot; height=&quot;115&quot; as=&quot;geometry&quot; /&gt;&#10;        &lt;/mxCell&gt;&#10;        &lt;mxCell id=&quot;2cB81hpbMroj3pdZVO9Y-16&quot; value=&quot;&quot; style=&quot;endArrow=classic;html=1;rounded=0;strokeColor=#FFFFFF;fontSize=16;fontColor=#FFFFFF;strokeWidth=5;&quot; parent=&quot;1&quot; edge=&quot;1&quot;&gt;&#10;          &lt;mxGeometry width=&quot;50&quot; height=&quot;50&quot; relative=&quot;1&quot; as=&quot;geometry&quot;&gt;&#10;            &lt;mxPoint x=&quot;1164&quot; y=&quot;748&quot; as=&quot;sourcePoint&quot; /&gt;&#10;            &lt;mxPoint x=&quot;1169.9796171570365&quot; y=&quot;174&quot; as=&quot;targetPoint&quot; /&gt;&#10;          &lt;/mxGeometry&gt;&#10;        &lt;/mxCell&gt;&#10;        &lt;mxCell id=&quot;A7CzKQWTGyI-V6dgjcdv-1&quot; value=&quot;&amp;lt;font style=&amp;quot;font-size: 24px;&amp;quot;&amp;gt;Hypothèse&amp;lt;br&amp;gt;Proximité par rapport à Dieu&amp;lt;br style=&amp;quot;font-size: 24px;&amp;quot;&amp;gt;F. Delavier / population&amp;lt;/font&amp;gt;&quot; style=&quot;text;html=1;strokeColor=none;fillColor=#00CC00;align=center;verticalAlign=middle;whiteSpace=wrap;rounded=1;fontSize=24;fontColor=#FFFFFF;sketch=1;curveFitting=1;jiggle=2;&quot; parent=&quot;1&quot; vertex=&quot;1&quot;&gt;&#10;          &lt;mxGeometry x=&quot;-630&quot; y=&quot;170&quot; width=&quot;303&quot; height=&quot;110&quot; as=&quot;geometry&quot; /&gt;&#10;        &lt;/mxCell&gt;&#10;        &lt;mxCell id=&quot;XZm--Fvkg2j1RMWWRliv-1&quot; value=&quot;&amp;lt;font style=&amp;quot;font-size: 24px;&amp;quot;&amp;gt;Une partie des Occidentaux&amp;lt;/font&amp;gt;&quot; style=&quot;text;html=1;strokeColor=none;fillColor=none;align=center;verticalAlign=middle;whiteSpace=wrap;rounded=0;fontColor=#FFFFFF;&quot; parent=&quot;1&quot; vertex=&quot;1&quot;&gt;&#10;          &lt;mxGeometry x=&quot;-480&quot; y=&quot;540&quot; width=&quot;143&quot; height=&quot;130&quot; as=&quot;geometry&quot; /&gt;&#10;        &lt;/mxCell&gt;&#10;        &lt;mxCell id=&quot;XZm--Fvkg2j1RMWWRliv-2&quot; value=&quot;&amp;lt;font style=&amp;quot;font-size: 24px;&amp;quot;&amp;gt;Une partie du peuple : la partie du peuple qui ne rejette pas la théologie, peuple plutôt croyant ou, du moins, cherchant&amp;lt;/font&amp;gt;&quot; style=&quot;text;html=1;strokeColor=none;fillColor=none;align=center;verticalAlign=middle;whiteSpace=wrap;rounded=0;fontColor=#FFFFFF;&quot; parent=&quot;1&quot; vertex=&quot;1&quot;&gt;&#10;          &lt;mxGeometry x=&quot;-461&quot; y=&quot;361.25&quot; width=&quot;1092&quot; height=&quot;52.5&quot; as=&quot;geometry&quot; /&gt;&#10;        &lt;/mxCell&gt;&#10;        &lt;mxCell id=&quot;XZm--Fvkg2j1RMWWRliv-3&quot; value=&quot;&amp;lt;font style=&amp;quot;font-size: 22px;&amp;quot; color=&amp;quot;#ffffff&amp;quot;&amp;gt;Frédéric Delavier, je l&amp;#39;ai estimé peut-être quand même au-dessus de la moyenne de cette population (population contenue dans l&amp;#39;ellipse marron), parce que quand même, il me sembla s&amp;#39;être posé pas mal de questions, mais il resta dans les ténébres : mise de côté de l&amp;#39;essentiel : Dieu / la théologie&amp;lt;/font&amp;gt;&quot; style=&quot;text;html=1;strokeColor=none;fillColor=none;align=center;verticalAlign=middle;whiteSpace=wrap;rounded=0;fontSize=20;&quot; parent=&quot;1&quot; vertex=&quot;1&quot;&gt;&#10;          &lt;mxGeometry x=&quot;60&quot; y=&quot;475&quot; width=&quot;630&quot; height=&quot;170&quot; as=&quot;geometry&quot; /&gt;&#10;        &lt;/mxCell&gt;&#10;        &lt;mxCell id=&quot;XIe4nDhoCcc2eIplrwcz-2&quot; value=&quot;Dieu&quot; style=&quot;text;strokeColor=none;fillColor=none;align=center;verticalAlign=middle;rounded=0;fontColor=#fffffe;fontSize=40;&quot; parent=&quot;1&quot; vertex=&quot;1&quot;&gt;&#10;          &lt;mxGeometry x=&quot;303.78&quot; y=&quot;110&quot; width=&quot;60&quot; height=&quot;30&quot; as=&quot;geometry&quot; /&gt;&#10;        &lt;/mxCell&gt;&#10;        &lt;mxCell id=&quot;XIe4nDhoCcc2eIplrwcz-5&quot; value=&quot;Frédéric Delavier et un certain pourcentage de la population&quot; style=&quot;text;strokeColor=none;fillColor=none;align=center;verticalAlign=middle;rounded=0;fontColor=#fffffe;fontSize=26;whiteSpace=wrap;&quot; parent=&quot;1&quot; vertex=&quot;1&quot;&gt;&#10;          &lt;mxGeometry x=&quot;-160&quot; y=&quot;545&quot; width=&quot;200&quot; height=&quot;30&quot; as=&quot;geometry&quot; /&gt;&#10;        &lt;/mxCell&gt;&#10;        &lt;mxCell id=&quot;EHsDwLgQYGCAZDJBqli4-1&quot; value=&quot;&quot; style=&quot;rounded=1;strokeColor=default;fontColor=#fffffe;fillColor=none;&quot; parent=&quot;1&quot; vertex=&quot;1&quot;&gt;&#10;          &lt;mxGeometry x=&quot;-170&quot; y=&quot;500&quot; width=&quot;210&quot; height=&quot;30&quot; as=&quot;geometry&quot; /&gt;&#10;        &lt;/mxCell&gt;&#10;        &lt;mxCell id=&quot;EHsDwLgQYGCAZDJBqli4-2&quot; value=&quot;&quot; style=&quot;ellipse;whiteSpace=wrap;html=1;strokeColor=none;fillColor=#007FFF;fontColor=#FFFFFF;fontSize=24;&quot; parent=&quot;1&quot; vertex=&quot;1&quot;&gt;&#10;          &lt;mxGeometry x=&quot;40&quot; y=&quot;180&quot; width=&quot;630&quot; height=&quot;125&quot; as=&quot;geometry&quot; /&gt;&#10;        &lt;/mxCell&gt;&#10;        &lt;mxCell id=&quot;KPkVJjidgFinRXyxGfJM-1&quot; value=&quot;certains judaïsants / Musulmanisans&quot; style=&quot;text;strokeColor=none;fillColor=none;align=center;verticalAlign=middle;rounded=0;fontColor=#fffffe;fontSize=24;&quot; parent=&quot;1&quot; vertex=&quot;1&quot;&gt;&#10;          &lt;mxGeometry x=&quot;860&quot; y=&quot;372.5&quot; width=&quot;60&quot; height=&quot;30&quot; as=&quot;geometry&quot; /&gt;&#10;        &lt;/mxCell&gt;&#10;        &lt;mxCell id=&quot;KPkVJjidgFinRXyxGfJM-2&quot; value=&quot;Autres véritables Catholiques&quot; style=&quot;text;strokeColor=none;fillColor=none;align=center;verticalAlign=middle;rounded=0;fontColor=#fffffe;fontSize=22;&quot; parent=&quot;1&quot; vertex=&quot;1&quot;&gt;&#10;          &lt;mxGeometry x=&quot;203.78&quot; y=&quot;220&quot; width=&quot;260&quot; height=&quot;40&quot; as=&quot;geometry&quot; /&gt;&#10;        &lt;/mxCell&gt;&#10;        &lt;mxCell id=&quot;KPkVJjidgFinRXyxGfJM-5&quot; value=&quot;Grandes figures de l&amp;#39;Église / Mystiques&quot; style=&quot;text;strokeColor=none;fillColor=none;align=center;verticalAlign=middle;rounded=0;fontColor=#fffffe;fontSize=22;&quot; parent=&quot;1&quot; vertex=&quot;1&quot;&gt;&#10;          &lt;mxGeometry x=&quot;203.78&quot; y=&quot;190&quot; width=&quot;260&quot; height=&quot;40&quot; as=&quot;geometry&quot; /&gt;&#10;        &lt;/mxCell&gt;&#10;        &lt;mxCell id=&quot;KPkVJjidgFinRXyxGfJM-6&quot; value=&quot;Partiellement Catholiques&quot; style=&quot;text;strokeColor=none;fillColor=none;align=center;verticalAlign=middle;rounded=0;fontColor=#fffffe;fontSize=22;&quot; parent=&quot;1&quot; vertex=&quot;1&quot;&gt;&#10;          &lt;mxGeometry x=&quot;303.78&quot; y=&quot;260&quot; width=&quot;60&quot; height=&quot;30&quot; as=&quot;geometry&quot; /&gt;&#10;        &lt;/mxCell&gt;&#10;        &lt;mxCell id=&quot;KPkVJjidgFinRXyxGfJM-7&quot; value=&quot;&quot; style=&quot;ellipse;whiteSpace=wrap;html=1;strokeColor=#CCCCCC;fillColor=#660033;fontColor=#FFFFFF;fontSize=24;&quot; parent=&quot;1&quot; vertex=&quot;1&quot;&gt;&#10;          &lt;mxGeometry x=&quot;-110&quot; y=&quot;760&quot; width=&quot;790&quot; height=&quot;60&quot; as=&quot;geometry&quot; /&gt;&#10;        &lt;/mxCell&gt;&#10;        &lt;mxCell id=&quot;FGddOvyuKjcCBz8nfpy3-1&quot; value=&quot;Créatures plus ou moins possédées.&quot; style=&quot;text;strokeColor=none;fillColor=none;align=center;verticalAlign=middle;rounded=0;fontColor=#fffffe;fontSize=16;&quot; parent=&quot;1&quot; vertex=&quot;1&quot;&gt;&#10;          &lt;mxGeometry x=&quot;-60&quot; y=&quot;770&quot; width=&quot;290&quot; height=&quot;30&quot; as=&quot;geometry&quot; /&gt;&#10;        &lt;/mxCell&gt;&#10;        &lt;mxCell id=&quot;FGddOvyuKjcCBz8nfpy3-2&quot; value=&quot;Certains judaïsants? certains musulmanisans?&quot; style=&quot;text;strokeColor=none;fillColor=none;align=center;verticalAlign=middle;rounded=0;fontColor=#fffffe;fontSize=16;&quot; parent=&quot;1&quot; vertex=&quot;1&quot;&gt;&#10;          &lt;mxGeometry x=&quot;280&quot; y=&quot;770&quot; width=&quot;290&quot; height=&quot;30&quot; as=&quot;geometry&quot; /&gt;&#10;        &lt;/mxCell&gt;&#10;      &lt;/root&gt;&#10;    &lt;/mxGraphModel&gt;&#10;  &lt;/diagram&gt;&#10;&lt;/mxfile&gt;&#10;" style="background-color: rgb(0, 0, 0);">
    <defs>
        <linearGradient x1="0%" y1="0%" x2="0%" y2="100%" id="mx-gradient-0066cc-1-994c0040-1-s-0">
            <stop offset="0%" style="stop-color: rgb(0, 102, 204); stop-opacity: 1;" />
            <stop offset="100%" style="stop-color: rgba(153, 76, 0, 0.25); stop-opacity: 1;" />
        </linearGradient>
    </defs>
    <rect fill="#000000" width="100%" height="100%" x="0" y="0" />
    <g>
        <g data-cell-id="0">
            <g data-cell-id="1">
                <g data-cell-id="2cB81hpbMroj3pdZVO9Y-20">
                    <g id="cell-2cB81hpbMroj3pdZVO9Y-20">
                        <g>
                            <rect x="1" y="1" width="2010" height="760" rx="114" ry="114" fill="#000033" stroke="#ffffff" stroke-width="2" stroke-dasharray="6 6" pointer-events="all" />
                        </g>
                    </g>
                </g>
                <g data-cell-id="XIe4nDhoCcc2eIplrwcz-4">
                    <g id="cell-XIe4nDhoCcc2eIplrwcz-4">
                        <g>
                            <rect x="61" y="51" width="1910" height="690" rx="103.5" ry="103.5" fill="url(#mx-gradient-0066cc-1-994c0040-1-s-0)" stroke="none" pointer-events="all" />
                        </g>
                    </g>
                </g>
                <g data-cell-id="2cB81hpbMroj3pdZVO9Y-9">
                    <g id="cell-2cB81hpbMroj3pdZVO9Y-9">
                        <g>
                            <ellipse cx="996" cy="541" rx="845" ry="180" fill="#663300" stroke="#79796a" pointer-events="all" />
                        </g>
                    </g>
                </g>
                <g data-cell-id="UAkjG4toPhCPOxB0Bzuw-2">
                    <g id="cell-UAkjG4toPhCPOxB0Bzuw-2">
                        <g />
                    </g>
                </g>
                <g data-cell-id="2cB81hpbMroj3pdZVO9Y-1">
                    <g id="cell-2cB81hpbMroj3pdZVO9Y-1">
                        <g>
                            <ellipse cx="976" cy="611" rx="535" ry="40" fill="#994c00" stroke="#cccccc" pointer-events="all" />
                        </g>
                        <g>
                            <g transform="translate(-0.5 -0.5)">
                                <switch>
                                    <foreignObject pointer-events="none" width="100%" height="100%" requiredFeatures="http://www.w3.org/TR/SVG11/feature#Extensibility" style="overflow: visible; text-align: left;">
                                        <div xmlns="http://www.w3.org/1999/xhtml" style="display: flex; align-items: unsafe center; justify-content: unsafe center; width: 1068px; height: 1px; padding-top: 611px; margin-left: 442px;">
                                            <div data-drawio-colors="color: #FFFFFF; " style="box-sizing: border-box; font-size: 0px; text-align: center;">
                                                <div style="display: inline-block; font-size: 24px; font-family: Helvetica; color: rgb(255, 255, 255); line-height: 1.2; pointer-events: all; white-space: normal; overflow-wrap: normal;">Une partie du peuple</div>
                                            </div>
                                        </div>
                                    </foreignObject><text x="976" y="618" fill="#FFFFFF" font-family="&quot;Helvetica&quot;" font-size="24px" text-anchor="middle">Une partie du peuple</text>
                                </switch>
                            </g>
                        </g>
                    </g>
                </g>
                <g data-cell-id="2cB81hpbMroj3pdZVO9Y-2">
                    <g id="cell-2cB81hpbMroj3pdZVO9Y-2">
                        <g>
                            <ellipse cx="986" cy="461" rx="535" ry="90" fill="#994c00" stroke="none" pointer-events="all" />
                        </g>
                    </g>
                </g>
                <g data-cell-id="2cB81hpbMroj3pdZVO9Y-8">
                    <g id="cell-2cB81hpbMroj3pdZVO9Y-8">
                        <g>
                            <rect x="1521" y="491" width="290" height="100" fill="none" stroke="none" pointer-events="all" />
                        </g>
                        <g>
                            <g transform="translate(-0.5 -0.5)">
                                <switch>
                                    <foreignObject pointer-events="none" width="100%" height="100%" requiredFeatures="http://www.w3.org/TR/SVG11/feature#Extensibility" style="overflow: visible; text-align: left;">
                                        <div xmlns="http://www.w3.org/1999/xhtml" style="display: flex; align-items: unsafe center; justify-content: unsafe center; width: 288px; height: 1px; padding-top: 541px; margin-left: 1522px;">
                                            <div data-drawio-colors="color: #FFFFFF; " style="box-sizing: border-box; font-size: 0px; text-align: center;">
                                                <div style="display: inline-block; font-size: 24px; font-family: Helvetica; color: rgb(255, 255, 255); line-height: 1.2; pointer-events: all; white-space: normal; overflow-wrap: normal;">
                                                    <font style="font-size: 24px;">Ellipse qui serait l'ellipse des ténèbres, de l'apostasie? : ils mirent de côté l'essentiel : Dieu, la théologie</font>
                                                </div>
                                            </div>
                                        </div>
                                    </foreignObject><text x="1666" y="548" fill="#FFFFFF" font-family="&quot;Helvetica&quot;" font-size="24px" text-anchor="middle">Ellipse qui serait l'ell...</text>
                                </switch>
                            </g>
                        </g>
                    </g>
                </g>
                <g data-cell-id="2cB81hpbMroj3pdZVO9Y-18">
                    <g id="cell-2cB81hpbMroj3pdZVO9Y-18">
                        <g>
                            <rect x="1681" y="76" width="160" height="130" fill="none" stroke="none" pointer-events="all" />
                        </g>
                        <g>
                            <g transform="translate(-0.5 -0.5)">
                                <switch>
                                    <foreignObject pointer-events="none" width="100%" height="100%" requiredFeatures="http://www.w3.org/TR/SVG11/feature#Extensibility" style="overflow: visible; text-align: left;">
                                        <div xmlns="http://www.w3.org/1999/xhtml" style="display: flex; align-items: unsafe center; justify-content: unsafe center; width: 158px; height: 1px; padding-top: 141px; margin-left: 1682px;">
                                            <div data-drawio-colors="color: #FFFFFF; " style="box-sizing: border-box; font-size: 0px; text-align: center;">
                                                <div style="display: inline-block; font-size: 24px; font-family: Helvetica; color: rgb(255, 255, 255); line-height: 1.2; pointer-events: all; white-space: normal; overflow-wrap: normal;">
                                                    <font style="font-size: 24px;">Hiérarchie de qui serait dans le bon sens pour aller vers Dieu<br style="font-size: 24px;" /></font>
                                                </div>
                                            </div>
                                        </div>
                                    </foreignObject><text x="1761" y="148" fill="#FFFFFF" font-family="&quot;Helvetica&quot;" font-size="24px" text-anchor="middle">Hiérarchie de...</text>
                                </switch>
                            </g>
                        </g>
                    </g>
                </g>
                <g data-cell-id="2cB81hpbMroj3pdZVO9Y-21">
                    <g id="cell-2cB81hpbMroj3pdZVO9Y-21">
                        <g>
                            <ellipse cx="991" cy="288.5" rx="860" ry="57.5" fill="#0000cc" stroke="none" pointer-events="all" />
                        </g>
                    </g>
                </g>
                <g data-cell-id="2cB81hpbMroj3pdZVO9Y-16">
                    <g id="cell-2cB81hpbMroj3pdZVO9Y-16">
                        <g>
                            <path d="M 1875 649 L 1880.84 88.84" fill="none" stroke="#ffffff" stroke-width="5" stroke-miterlimit="10" pointer-events="stroke" />
                            <path d="M 1880.92 80.59 L 1886.31 91.65 L 1880.84 88.84 L 1875.31 91.53 Z" fill="#ffffff" stroke="#ffffff" stroke-width="5" stroke-miterlimit="10" pointer-events="all" />
                        </g>
                    </g>
                </g>
                <g data-cell-id="A7CzKQWTGyI-V6dgjcdv-1">
                    <g id="cell-A7CzKQWTGyI-V6dgjcdv-1">
                        <g>
                            <rect x="81" y="71" width="303" height="110" rx="16.5" ry="16.5" fill="none" stroke="none" pointer-events="all" />
                            <path d="M 85.14 75.11 C 85.14 75.11 85.14 75.11 85.14 75.11 M 85.14 75.11 C 85.14 75.11 85.14 75.11 85.14 75.11 M 81.6 85.28 C 82.73 77.8 90.31 77.51 92.75 72.45 M 81.6 85.28 C 84.77 80.67 89.08 76.36 92.75 72.45 M 83.31 89.41 C 88.03 85.94 93.72 73.47 98.4 72.05 M 83.31 89.41 C 88.82 82.7 93.93 77.99 98.4 72.05 M 83.04 95.81 C 91.71 86.55 95.66 83.18 104.04 71.66 M 83.04 95.81 C 89.63 90.52 94.22 85.9 104.04 71.66 M 83.44 101.45 C 91.54 87.13 102.65 73.94 109.03 72.02 M 83.44 101.45 C 92.62 89.44 101.18 78.14 109.03 72.02 M 83.18 107.85 C 92.77 91.92 104.56 83.77 114.67 71.62 M 83.18 107.85 C 89.08 99 97.33 91.64 114.67 71.62 M 83.57 113.49 C 93.28 105.74 103.41 92.81 119.66 71.98 M 83.57 113.49 C 91.87 103.63 103.79 94.48 119.66 71.98 M 83.31 119.89 C 99.38 104.22 112.48 81.72 124.64 72.34 M 83.31 119.89 C 97.36 101.95 115.49 83.46 124.64 72.34 M 83.05 126.29 C 103.28 107.07 120.47 83.26 130.29 71.95 M 83.05 126.29 C 95.2 111.62 110.86 93.32 130.29 71.95 M 83.44 131.93 C 91.88 116.33 105.84 110 135.27 72.31 M 83.44 131.93 C 102.22 110.76 120.28 92.97 135.27 72.31 M 83.18 138.33 C 96.41 117.87 112.94 103.01 140.92 71.92 M 83.18 138.33 C 101.59 115.58 122.19 90.06 140.92 71.92 M 83.58 143.97 C 103.87 119.49 133.48 88.83 145.9 72.28 M 83.58 143.97 C 95.46 126.35 112.98 112.87 145.9 72.28 M 83.32 150.37 C 98.61 130.5 110.55 111.93 151.55 71.88 M 83.32 150.37 C 106.49 128.18 124.43 101.48 151.55 71.88 M 83.71 156.01 C 106.7 126.74 135.17 95.67 156.53 72.24 M 83.71 156.01 C 105.85 129.25 128.34 100.96 156.53 72.24 M 83.45 162.41 C 104.54 136.47 133.17 111.14 162.18 71.85 M 83.45 162.41 C 113.51 128.66 142.19 93.14 162.18 71.85 M 82.53 169.56 C 110.46 133.01 142.83 97.89 167.16 72.21 M 82.53 169.56 C 103.99 148.74 121.82 122.89 167.16 72.21 M 84.24 173.7 C 112.45 143.92 139.69 106.96 172.81 71.81 M 84.24 173.7 C 118.52 137.14 148.67 99.75 172.81 71.81 M 85.94 177.83 C 120.38 137.37 155.91 97.84 177.79 72.17 M 85.94 177.83 C 115.44 142.8 146.28 107.54 177.79 72.17 M 89.62 179.7 C 122.31 139.83 155.71 104.1 182.78 72.53 M 89.62 179.7 C 119.54 146.82 148.14 114.08 182.78 72.53 M 92.64 182.32 C 117.8 147.49 151.56 112.98 188.42 72.14 M 92.64 182.32 C 119.69 152.27 147.05 119.26 188.42 72.14 M 98.28 181.93 C 136.31 135.64 176.28 94.12 193.41 72.5 M 98.28 181.93 C 133.07 139.74 167.69 98.79 193.41 72.5 M 103.27 182.29 C 133.89 141.84 170.02 106.2 199.05 72.1 M 103.27 182.29 C 132.3 145.16 166.8 106.03 199.05 72.1 M 108.91 181.9 C 144.83 149.57 171.76 113.27 204.04 72.46 M 108.91 181.9 C 144.66 139.65 179.57 99.39 204.04 72.46 M 113.9 182.26 C 144.76 150.94 168.99 117.55 209.68 72.07 M 113.9 182.26 C 137.98 157.98 163.18 128.08 209.68 72.07 M 118.89 182.62 C 150.76 152.54 174.68 121.28 214.67 72.43 M 118.89 182.62 C 141.44 157.78 165.77 130.74 214.67 72.43 M 124.53 182.22 C 148.67 149.7 180.46 123.41 220.31 72.03 M 124.53 182.22 C 152.65 152.07 181.32 119.38 220.31 72.03 M 129.52 182.58 C 165.48 146.67 197.06 107.13 225.3 72.39 M 129.52 182.58 C 162.78 147.21 195.97 108.01 225.3 72.39 M 135.16 182.19 C 165.62 143.6 202.92 106.13 230.29 72.75 M 135.16 182.19 C 164.59 147.35 197.81 111.39 230.29 72.75 M 140.15 182.55 C 158.19 161.02 184.79 139.81 235.93 72.36 M 140.15 182.55 C 162.99 158.76 183.75 135.48 235.93 72.36 M 145.79 182.15 C 175.79 154.01 199.97 119.42 240.92 72.72 M 145.79 182.15 C 173.76 150.63 200.83 117.2 240.92 72.72 M 150.78 182.51 C 185.26 138.74 219.5 103.23 246.56 72.32 M 150.78 182.51 C 190.32 137.41 226.66 94.7 246.56 72.32 M 156.42 182.12 C 181.74 153.24 204.07 131.96 251.55 72.68 M 156.42 182.12 C 187.49 146.09 218.02 108.62 251.55 72.68 M 161.41 182.48 C 184.39 158.31 206.06 128.5 257.19 72.29 M 161.41 182.48 C 194.87 146.35 229.09 103.71 257.19 72.29 M 167.05 182.08 C 188.86 152.15 218.13 120.9 262.18 72.65 M 167.05 182.08 C 187.37 156.82 212.58 131.5 262.18 72.65 M 172.04 182.44 C 207.15 150.73 231.21 117.8 267.82 72.26 M 172.04 182.44 C 194.72 156.1 219.42 130.79 267.82 72.26 M 177.02 182.8 C 211.76 143.98 255.53 100.67 272.81 72.62 M 177.02 182.8 C 201.49 157.66 222.09 134.09 272.81 72.62 M 182.67 182.41 C 205.57 156.82 227.24 132.93 278.45 72.22 M 182.67 182.41 C 211.12 150.88 237.16 119.93 278.45 72.22 M 187.65 182.77 C 217.1 142.03 253.28 106.71 283.44 72.58 M 187.65 182.77 C 223.49 142.81 257.46 101.83 283.44 72.58 M 193.3 182.37 C 215.93 161.47 232.22 134.58 288.43 72.94 M 193.3 182.37 C 230.12 136.38 266.51 94.01 288.43 72.94 M 198.28 182.73 C 226.81 150.55 251.48 119.94 294.07 72.55 M 198.28 182.73 C 230.02 142.93 268.4 98.78 294.07 72.55 M 203.93 182.34 C 227.62 145.24 256.23 118.39 299.06 72.91 M 203.93 182.34 C 242.91 141.24 278.43 98.06 299.06 72.91 M 208.91 182.7 C 243.47 146.25 273.24 114.1 304.7 72.51 M 208.91 182.7 C 242.82 143.35 275.05 107.31 304.7 72.51 M 214.56 182.31 C 238.29 156.79 270.4 127.11 309.69 72.87 M 214.56 182.31 C 245.28 146.45 277.38 109.27 309.69 72.87 M 219.54 182.67 C 249.75 152.03 284.4 112.41 315.33 72.48 M 219.54 182.67 C 246.12 154.5 274.56 123.5 315.33 72.48 M 225.19 182.27 C 259.35 139.11 295.53 103.63 320.32 72.84 M 225.19 182.27 C 246.8 160.37 266.65 136.02 320.32 72.84 M 230.17 182.63 C 264.87 145.91 301.03 107.36 325.96 72.44 M 230.17 182.63 C 266.36 139.93 300.68 98.02 325.96 72.44 M 235.16 182.99 C 262.99 145.4 295.6 109.25 330.95 72.8 M 235.16 182.99 C 265.77 151.37 291.9 117.66 330.95 72.8 M 240.8 182.6 C 265.68 149.88 286.63 124.65 336.59 72.41 M 240.8 182.6 C 267.41 151.87 292.78 122.88 336.59 72.41 M 245.79 182.96 C 277.89 137.09 318.19 96.1 341.58 72.77 M 245.79 182.96 C 280.67 145.77 313.3 107.9 341.58 72.77 M 251.43 182.56 C 274.21 160.38 295.42 138.76 346.56 73.13 M 251.43 182.56 C 276.27 156.11 297.89 129.24 346.56 73.13 M 256.42 182.92 C 274.94 159.59 303.74 132.27 352.21 72.73 M 256.42 182.92 C 293.69 142.81 324.64 104 352.21 72.73 M 262.06 182.53 C 298.43 136.66 336.84 93.79 357.19 73.09 M 262.06 182.53 C 299.28 138.98 337.24 96.99 357.19 73.09 M 267.05 182.89 C 300.79 145.56 331.41 108.89 362.84 72.7 M 267.05 182.89 C 296.72 153.22 322.16 122.88 362.84 72.7 M 272.69 182.49 C 294.29 157.77 310.23 137.97 367.82 73.06 M 272.69 182.49 C 300.61 151.95 331.57 116.92 367.82 73.06 M 277.68 182.85 C 313.95 143.8 346.92 112.12 373.47 72.67 M 277.68 182.85 C 307.37 150.78 333.42 119.55 373.47 72.67 M 282.67 183.21 C 313.2 151.13 341.49 119.8 377.14 74.54 M 282.67 183.21 C 309.17 146.91 340.06 111.25 377.14 74.54 M 288.31 182.82 C 312.78 159.34 328.03 140.76 380.82 76.4 M 288.31 182.82 C 315.49 152.12 342.92 119.1 380.82 76.4 M 293.3 183.18 C 321.75 149.27 353.96 107.8 383.18 79.78 M 293.3 183.18 C 322.08 151.1 347.48 119.69 383.18 79.78 M 298.94 182.78 C 320.29 152.34 343.49 125.57 384.23 84.67 M 298.94 182.78 C 323.18 154.75 346.92 127.31 384.23 84.67 M 303.93 183.14 C 327.18 152.6 349.45 129.57 384.62 90.31 M 303.93 183.14 C 327.09 157.58 347.06 135.06 384.62 90.31 M 309.57 182.75 C 329.41 159.21 350.24 139.06 384.36 96.71 M 309.57 182.75 C 331.43 157.3 352.03 129.76 384.36 96.71 M 314.56 183.11 C 339.55 155.31 360.68 126.51 384.1 103.11 M 314.56 183.11 C 338.88 156.38 360.21 129.01 384.1 103.11 M 320.2 182.72 C 332.41 161.68 354.76 144.02 384.5 108.75 M 320.2 182.72 C 338.45 160.05 359.87 137.89 384.5 108.75 M 325.19 183.08 C 343.64 165.19 356.88 152.66 384.23 115.15 M 325.19 183.08 C 336.51 168.95 354.04 151.7 384.23 115.15 M 330.83 182.68 C 345.79 161.34 363.73 139.44 383.97 121.55 M 330.83 182.68 C 348.56 163.57 362.45 145.7 383.97 121.55 M 335.82 183.04 C 353.79 170.44 362.65 155.85 384.37 127.19 M 335.82 183.04 C 350.49 165.74 366.95 147.73 384.37 127.19 M 340.81 183.4 C 361.21 163.82 377.75 143.87 384.11 133.59 M 340.81 183.4 C 350.01 172.21 361.96 158.1 384.11 133.59 M 346.45 183.01 C 355.19 172.78 372.37 158.59 383.84 139.99 M 346.45 183.01 C 355.1 176.73 360.82 164.66 383.84 139.99 M 351.44 183.37 C 361.92 170.41 373.07 162.58 384.24 145.63 M 351.44 183.37 C 363.74 170.9 374.46 157.22 384.24 145.63 M 357.08 182.97 C 365.3 172.82 375.61 162.02 383.98 152.03 M 357.08 182.97 C 363.93 174.02 374.35 164.21 383.98 152.03 M 362.07 183.33 C 366.19 175.99 375.66 169.75 383.72 158.43 M 362.07 183.33 C 367.09 176.8 373.79 171.32 383.72 158.43 M 368.36 182.18 C 375.98 172.89 382.68 170.02 384.11 164.07 M 368.36 182.18 C 371.4 175.68 376.47 169.79 384.11 164.07 M 375.32 180.28 C 379.04 175.41 379.14 176.2 383.85 170.47 M 375.32 180.28 C 379.53 176.05 381.49 173.08 383.85 170.47" fill="none" stroke="#00cc00" stroke-width="0.5" stroke-linejoin="round" stroke-linecap="round" stroke-miterlimit="10" pointer-events="all" />
                        </g>
                        <g>
                            <g transform="translate(-0.5 -0.5)">
                                <switch>
                                    <foreignObject pointer-events="none" width="100%" height="100%" requiredFeatures="http://www.w3.org/TR/SVG11/feature#Extensibility" style="overflow: visible; text-align: left;">
                                        <div xmlns="http://www.w3.org/1999/xhtml" style="display: flex; align-items: unsafe center; justify-content: unsafe center; width: 301px; height: 1px; padding-top: 126px; margin-left: 82px;">
                                            <div data-drawio-colors="color: #FFFFFF; " style="box-sizing: border-box; font-size: 0px; text-align: center;">
                                                <div style="display: inline-block; font-size: 24px; font-family: Helvetica; color: rgb(255, 255, 255); line-height: 1.2; pointer-events: all; white-space: normal; overflow-wrap: normal;">
                                                    <font style="font-size: 24px;">Hypothèse<br />Proximité par rapport à Dieu<br style="font-size: 24px;" />F. Delavier / population</font>
                                                </div>
                                            </div>
                                        </div>
                                    </foreignObject><text x="233" y="133" fill="#FFFFFF" font-family="&quot;Helvetica&quot;" font-size="24px" text-anchor="middle">Hypothèse...</text>
                                </switch>
                            </g>
                        </g>
                    </g>
                </g>
                <g data-cell-id="XZm--Fvkg2j1RMWWRliv-1">
                    <g id="cell-XZm--Fvkg2j1RMWWRliv-1">
                        <g>
                            <rect x="231" y="441" width="143" height="130" fill="none" stroke="none" pointer-events="all" />
                        </g>
                        <g>
                            <g transform="translate(-0.5 -0.5)">
                                <switch>
                                    <foreignObject pointer-events="none" width="100%" height="100%" requiredFeatures="http://www.w3.org/TR/SVG11/feature#Extensibility" style="overflow: visible; text-align: left;">
                                        <div xmlns="http://www.w3.org/1999/xhtml" style="display: flex; align-items: unsafe center; justify-content: unsafe center; width: 141px; height: 1px; padding-top: 506px; margin-left: 232px;">
                                            <div data-drawio-colors="color: #FFFFFF; " style="box-sizing: border-box; font-size: 0px; text-align: center;">
                                                <div style="display: inline-block; font-size: 12px; font-family: Helvetica; color: rgb(255, 255, 255); line-height: 1.2; pointer-events: all; white-space: normal; overflow-wrap: normal;">
                                                    <font style="font-size: 24px;">Une partie des Occidentaux</font>
                                                </div>
                                            </div>
                                        </div>
                                    </foreignObject><text x="303" y="510" fill="#FFFFFF" font-family="&quot;Helvetica&quot;" font-size="12px" text-anchor="middle">Une partie des occidenta...</text>
                                </switch>
                            </g>
                        </g>
                    </g>
                </g>
                <g data-cell-id="XZm--Fvkg2j1RMWWRliv-2">
                    <g id="cell-XZm--Fvkg2j1RMWWRliv-2">
                        <g>
                            <rect x="250" y="262.25" width="1092" height="52.5" fill="none" stroke="none" pointer-events="all" />
                        </g>
                        <g>
                            <g transform="translate(-0.5 -0.5)">
                                <switch>
                                    <foreignObject pointer-events="none" width="100%" height="100%" requiredFeatures="http://www.w3.org/TR/SVG11/feature#Extensibility" style="overflow: visible; text-align: left;">
                                        <div xmlns="http://www.w3.org/1999/xhtml" style="display: flex; align-items: unsafe center; justify-content: unsafe center; width: 1090px; height: 1px; padding-top: 289px; margin-left: 251px;">
                                            <div data-drawio-colors="color: #FFFFFF; " style="box-sizing: border-box; font-size: 0px; text-align: center;">
                                                <div style="display: inline-block; font-size: 12px; font-family: Helvetica; color: rgb(255, 255, 255); line-height: 1.2; pointer-events: all; white-space: normal; overflow-wrap: normal;">
                                                    <font style="font-size: 24px;">Une partie du peuple : la partie du peuple qui ne rejette pas la théologie, peuple plutôt croyant ou, du moins, cherchant</font>
                                                </div>
                                            </div>
                                        </div>
                                    </foreignObject><text x="796" y="292" fill="#FFFFFF" font-family="&quot;Helvetica&quot;" font-size="12px" text-anchor="middle">Une partie du peuple : la partie du peuple qui ne rejette pas la théologie, peuple plutôt croyant ou, du moins, cherchant</text>
                                </switch>
                            </g>
                        </g>
                    </g>
                </g>
                <g data-cell-id="XZm--Fvkg2j1RMWWRliv-3">
                    <g id="cell-XZm--Fvkg2j1RMWWRliv-3">
                        <g>
                            <rect x="771" y="376" width="630" height="170" fill="none" stroke="none" pointer-events="all" />
                        </g>
                        <g>
                            <g transform="translate(-0.5 -0.5)">
                                <switch>
                                    <foreignObject pointer-events="none" width="100%" height="100%" requiredFeatures="http://www.w3.org/TR/SVG11/feature#Extensibility" style="overflow: visible; text-align: left;">
                                        <div xmlns="http://www.w3.org/1999/xhtml" style="display: flex; align-items: unsafe center; justify-content: unsafe center; width: 628px; height: 1px; padding-top: 461px; margin-left: 772px;">
                                            <div data-drawio-colors="color: rgb(0, 255, 0); " style="box-sizing: border-box; font-size: 0px; text-align: center;">
                                                <div style="display: inline-block; font-size: 20px; font-family: Helvetica; color: rgb(0, 255, 0); line-height: 1.2; pointer-events: all; white-space: normal; overflow-wrap: normal;">
                                                    <font color="#ffffff" style="font-size: 22px;">Frédéric Delavier, je l'ai estimé peut-être quand même au-dessus de la moyenne de cette population (population contenue dans l'ellipse marron), parce que quand même, il me sembla s'être posé pas mal de questions, mais il resta dans les ténébres : mise de côté de l'essentiel : Dieu / la théologie</font>
                                                </div>
                                            </div>
                                        </div>
                                    </foreignObject><text x="1086" y="467" fill="rgb(0, 255, 0)" font-family="&quot;Helvetica&quot;" font-size="20px" text-anchor="middle">Frédéric Delavier, je l'ai estimé peut-être quand même au-dessu...</text>
                                </switch>
                            </g>
                        </g>
                    </g>
                </g>
                <g data-cell-id="XIe4nDhoCcc2eIplrwcz-2">
                    <g id="cell-XIe4nDhoCcc2eIplrwcz-2">
                        <g>
                            <rect x="1014.78" y="11" width="60" height="30" fill="none" stroke="none" pointer-events="all" />
                        </g>
                        <g>
                            <g fill="#fffffe" font-family="&quot;Helvetica&quot;" text-anchor="middle" font-size="40px"><text x="1044.28" y="44.5">Dieu</text></g>
                        </g>
                    </g>
                </g>
                <g data-cell-id="XIe4nDhoCcc2eIplrwcz-5">
                    <g id="cell-XIe4nDhoCcc2eIplrwcz-5">
                        <g>
                            <rect x="551" y="446" width="200" height="30" fill="none" stroke="none" pointer-events="all" />
                        </g>
                        <g>
                            <g transform="translate(-0.5 -0.5)">
                                <switch>
                                    <foreignObject pointer-events="none" width="100%" height="100%" requiredFeatures="http://www.w3.org/TR/SVG11/feature#Extensibility" style="overflow: visible; text-align: left;">
                                        <div xmlns="http://www.w3.org/1999/xhtml" style="display: flex; align-items: unsafe center; justify-content: unsafe center; width: 198px; height: 1px; padding-top: 461px; margin-left: 552px;">
                                            <div data-drawio-colors="color: #fffffe; " style="box-sizing: border-box; font-size: 0px; text-align: center;">
                                                <div style="display: inline-block; font-size: 26px; font-family: Helvetica; color: rgb(255, 255, 254); line-height: 1.2; pointer-events: all; white-space: normal; overflow-wrap: normal;">Frédéric Delavier et un certain pourcentage de la population</div>
                                            </div>
                                        </div>
                                    </foreignObject><text x="651" y="469" fill="#fffffe" font-family="&quot;Helvetica&quot;" font-size="26px" text-anchor="middle">Frédéric Delavie...</text>
                                </switch>
                            </g>
                        </g>
                    </g>
                </g>
                <g data-cell-id="EHsDwLgQYGCAZDJBqli4-1">
                    <g id="cell-EHsDwLgQYGCAZDJBqli4-1">
                        <g>
                            <rect x="541" y="401" width="210" height="30" rx="4.5" ry="4.5" fill="none" stroke="rgb(0, 255, 0)" pointer-events="all" />
                        </g>
                    </g>
                </g>
                <g data-cell-id="EHsDwLgQYGCAZDJBqli4-2">
                    <g id="cell-EHsDwLgQYGCAZDJBqli4-2">
                        <g>
                            <ellipse cx="1066" cy="143.5" rx="315" ry="62.5" fill="#007fff" stroke="none" pointer-events="all" />
                        </g>
                    </g>
                </g>
                <g data-cell-id="KPkVJjidgFinRXyxGfJM-1">
                    <g id="cell-KPkVJjidgFinRXyxGfJM-1">
                        <g>
                            <rect x="1571" y="273.5" width="60" height="30" fill="none" stroke="none" pointer-events="all" />
                        </g>
                        <g>
                            <g fill="#fffffe" font-family="&quot;Helvetica&quot;" text-anchor="middle" font-size="24px"><text x="1600.5" y="299">certains judaïsants / Musulmanisans</text></g>
                        </g>
                    </g>
                </g>
                <g data-cell-id="KPkVJjidgFinRXyxGfJM-2">
                    <g id="cell-KPkVJjidgFinRXyxGfJM-2">
                        <g>
                            <rect x="914.78" y="121" width="260" height="40" fill="none" stroke="none" pointer-events="all" />
                        </g>
                        <g>
                            <g fill="#fffffe" font-family="&quot;Helvetica&quot;" text-anchor="middle" font-size="22px"><text x="1044.28" y="150.5">Autres véritables Catholiques</text></g>
                        </g>
                    </g>
                </g>
                <g data-cell-id="KPkVJjidgFinRXyxGfJM-5">
                    <g id="cell-KPkVJjidgFinRXyxGfJM-5">
                        <g>
                            <rect x="914.78" y="91" width="260" height="40" fill="none" stroke="none" pointer-events="all" />
                        </g>
                        <g>
                            <g fill="#fffffe" font-family="&quot;Helvetica&quot;" text-anchor="middle" font-size="22px"><text x="1044.28" y="120.5">Grandes figures de l'Église / Mystiques</text></g>
                        </g>
                    </g>
                </g>
                <g data-cell-id="KPkVJjidgFinRXyxGfJM-6">
                    <g id="cell-KPkVJjidgFinRXyxGfJM-6">
                        <g>
                            <rect x="1014.78" y="161" width="60" height="30" fill="none" stroke="none" pointer-events="all" />
                        </g>
                        <g>
                            <g fill="#fffffe" font-family="&quot;Helvetica&quot;" text-anchor="middle" font-size="22px"><text x="1044.28" y="185.5">Partiellement Catholiques</text></g>
                        </g>
                    </g>
                </g>
                <g data-cell-id="KPkVJjidgFinRXyxGfJM-7">
                    <g id="cell-KPkVJjidgFinRXyxGfJM-7">
                        <g>
                            <ellipse cx="996" cy="691" rx="395" ry="30" fill="#660033" stroke="#cccccc" pointer-events="all" />
                        </g>
                    </g>
                </g>
                <g data-cell-id="FGddOvyuKjcCBz8nfpy3-1">
                    <g id="cell-FGddOvyuKjcCBz8nfpy3-1">
                        <g>
                            <rect x="651" y="671" width="290" height="30" fill="none" stroke="none" pointer-events="all" />
                        </g>
                        <g>
                            <g fill="#fffffe" font-family="&quot;Helvetica&quot;" text-anchor="middle" font-size="16px"><text x="795.5" y="692.5">Créatures plus ou moins possédées.</text></g>
                        </g>
                    </g>
                </g>
                <g data-cell-id="FGddOvyuKjcCBz8nfpy3-2">
                    <g id="cell-FGddOvyuKjcCBz8nfpy3-2">
                        <g>
                            <rect x="991" y="671" width="290" height="30" fill="none" stroke="none" pointer-events="all" />
                        </g>
                        <g>
                            <g fill="#fffffe" font-family="&quot;Helvetica&quot;" text-anchor="middle" font-size="16px"><text x="1135.5" y="692.5">Certains judaïsants? certains musulmanisans?</text></g>
                        </g>
                    </g>
                </g>
            </g>
        </g>
    </g>
    <switch>
        <g requiredFeatures="http://www.w3.org/TR/SVG11/feature#Extensibility" /><a transform="translate(0,-5)" xlink:href="https://www.drawio.com/doc/faq/svg-export-text-problems" target="_blank"><text text-anchor="middle" font-size="10px" x="50%" y="100%">Text is not SVG - cannot display</text></a>
    </switch>
</svg>