<?xml version="1.0" encoding="UTF-8"?>
<!-- Do not edit this file with editors other than draw.io -->
<!DOCTYPE svg PUBLIC "-//W3C//DTD SVG 1.1//EN" "http://www.w3.org/Graphics/SVG/1.1/DTD/svg11.dtd">
<svg xmlns="http://www.w3.org/2000/svg" style="background: transparent; background-color: transparent; color-scheme: light dark;" xmlns:xlink="http://www.w3.org/1999/xlink" version="1.1" width="1942px" height="898px" viewBox="-0.5 -0.5 1942 898" content="&lt;mxfile host=&quot;Electron&quot; agent=&quot;Mozilla/5.0 (Windows NT 10.0; Win64; x64) AppleWebKit/537.36 (KHTML, like Gecko) draw.io/27.0.9 Chrome/134.0.6998.205 Electron/35.4.0 Safari/537.36&quot; version=&quot;27.0.9&quot;&gt;&#10;  &lt;diagram id=&quot;l1XDsrv5K0Jh7Yi_-EBk&quot; name=&quot;Page-1&quot;&gt;&#10;    &lt;mxGraphModel dx=&quot;2825&quot; dy=&quot;2502&quot; grid=&quot;1&quot; gridSize=&quot;10&quot; guides=&quot;1&quot; tooltips=&quot;1&quot; connect=&quot;1&quot; arrows=&quot;1&quot; fold=&quot;1&quot; page=&quot;1&quot; pageScale=&quot;1&quot; pageWidth=&quot;827&quot; pageHeight=&quot;1169&quot; math=&quot;0&quot; shadow=&quot;0&quot;&gt;&#10;      &lt;root&gt;&#10;        &lt;UserObject label=&quot;&quot; animation=&quot;show TOHtLk_aAoYDnxtBrWts-5 fade&amp;#xa;show TOHtLk_aAoYDnxtBrWts-6 fade&amp;#xa;show TOHtLk_aAoYDnxtBrWts-17 fade&amp;#xa;show TOHtLk_aAoYDnxtBrWts-20 fade&amp;#xa;show UBwROreQ6ojuQTXPFIYp-10 fade&amp;#xa;show UBwROreQ6ojuQTXPFIYp-11 fade&amp;#xa;show UBwROreQ6ojuQTXPFIYp-12 fade&amp;#xa;show UBwROreQ6ojuQTXPFIYp-13 fade&amp;#xa;show UBwROreQ6ojuQTXPFIYp-14 fade&amp;#xa;show UBwROreQ6ojuQTXPFIYp-15 fade&amp;#xa;show UBwROreQ6ojuQTXPFIYp-16 fade&amp;#xa;wait 2000&amp;#xa;show UBwROreQ6ojuQTXPFIYp-7 fade&amp;#xa;show TOHtLk_aAoYDnxtBrWts-22 fade&amp;#xa;show UBwROreQ6ojuQTXPFIYp-1 fade&amp;#xa;show UBwROreQ6ojuQTXPFIYp-4 fade&amp;#xa;wait 2000&amp;#xa;show UBwROreQ6ojuQTXPFIYp-6 fade&amp;#xa;show UBwROreQ6ojuQTXPFIYp-8 fade&amp;#xa;wait 20000&amp;#xa;&quot; id=&quot;0&quot;&gt;&#10;          &lt;mxCell /&gt;&#10;        &lt;/UserObject&gt;&#10;        &lt;mxCell id=&quot;1&quot; parent=&quot;0&quot; /&gt;&#10;        &lt;mxCell id=&quot;FVbyVy5mqckSKn0n1atq-1&quot; value=&quot;&quot; style=&quot;rounded=1;whiteSpace=wrap;html=1;strokeColor=default;fontColor=#fffffe;fillColor=#141414;labelBorderColor=none;&quot; parent=&quot;1&quot; vertex=&quot;1&quot;&gt;&#10;          &lt;mxGeometry x=&quot;-780&quot; y=&quot;-160&quot; width=&quot;1940&quot; height=&quot;876&quot; as=&quot;geometry&quot; /&gt;&#10;        &lt;/mxCell&gt;&#10;        &lt;mxCell id=&quot;TOHtLk_aAoYDnxtBrWts-5&quot; value=&quot;&quot; style=&quot;rounded=1;whiteSpace=wrap;html=1;strokeColor=none;fillColor=#66330080;&quot; parent=&quot;1&quot; vertex=&quot;1&quot;&gt;&#10;          &lt;mxGeometry x=&quot;-762&quot; y=&quot;-94&quot; width=&quot;1062&quot; height=&quot;800&quot; as=&quot;geometry&quot; /&gt;&#10;        &lt;/mxCell&gt;&#10;        &lt;mxCell id=&quot;FVbyVy5mqckSKn0n1atq-8&quot; value=&quot;&quot; style=&quot;rounded=1;whiteSpace=wrap;html=1;strokeColor=none;fontColor=#fffffe;fillColor=#000033;&quot; parent=&quot;1&quot; vertex=&quot;1&quot;&gt;&#10;          &lt;mxGeometry x=&quot;-565&quot; y=&quot;-82&quot; width=&quot;840&quot; height=&quot;365&quot; as=&quot;geometry&quot; /&gt;&#10;        &lt;/mxCell&gt;&#10;        &lt;mxCell id=&quot;FVbyVy5mqckSKn0n1atq-7&quot; value=&quot;&quot; style=&quot;rounded=1;whiteSpace=wrap;html=1;strokeColor=none;fillColor=#66330080;&quot; parent=&quot;1&quot; vertex=&quot;1&quot;&gt;&#10;          &lt;mxGeometry x=&quot;-565&quot; y=&quot;371&quot; width=&quot;825&quot; height=&quot;331&quot; as=&quot;geometry&quot; /&gt;&#10;        &lt;/mxCell&gt;&#10;        &lt;mxCell id=&quot;UBwROreQ6ojuQTXPFIYp-6&quot; value=&quot;&quot; style=&quot;rounded=1;whiteSpace=wrap;html=1;strokeColor=none;fillColor=light-dark(#0000ff80, #0a0a8a);&quot; parent=&quot;1&quot; vertex=&quot;1&quot;&gt;&#10;          &lt;mxGeometry x=&quot;983&quot; y=&quot;-87&quot; width=&quot;150&quot; height=&quot;758&quot; as=&quot;geometry&quot; /&gt;&#10;        &lt;/mxCell&gt;&#10;        &lt;mxCell id=&quot;TOHtLk_aAoYDnxtBrWts-6&quot; value=&quot;&amp;lt;font&amp;gt;Société plus ou moins malade, sous aura démoniaque, incompréhension de beaucoup de Créatures entre elles, depuis au moins deux millénaires.&amp;lt;/font&amp;gt;&quot; style=&quot;text;html=1;strokeColor=none;fillColor=none;align=center;verticalAlign=middle;whiteSpace=wrap;rounded=0;fontColor=#FF0000;fontSize=20;&quot; parent=&quot;1&quot; vertex=&quot;1&quot;&gt;&#10;          &lt;mxGeometry x=&quot;-674&quot; y=&quot;257&quot; width=&quot;75&quot; height=&quot;120&quot; as=&quot;geometry&quot; /&gt;&#10;        &lt;/mxCell&gt;&#10;        &lt;mxCell id=&quot;TOHtLk_aAoYDnxtBrWts-17&quot; style=&quot;edgeStyle=orthogonalEdgeStyle;rounded=0;orthogonalLoop=1;jettySize=auto;html=1;exitX=0.5;exitY=1;exitDx=0;exitDy=0;fontSize=16;fontColor=#FF0000;&quot; parent=&quot;1&quot; edge=&quot;1&quot;&gt;&#10;          &lt;mxGeometry relative=&quot;1&quot; as=&quot;geometry&quot;&gt;&#10;            &lt;mxPoint x=&quot;-215&quot; y=&quot;728.0000000000005&quot; as=&quot;sourcePoint&quot; /&gt;&#10;            &lt;mxPoint x=&quot;-215&quot; y=&quot;728.0000000000005&quot; as=&quot;targetPoint&quot; /&gt;&#10;          &lt;/mxGeometry&gt;&#10;        &lt;/mxCell&gt;&#10;        &lt;mxCell id=&quot;TOHtLk_aAoYDnxtBrWts-20&quot; value=&quot;&amp;lt;font&amp;gt;&amp;lt;b&amp;gt;2&amp;lt;br&amp;gt;è&amp;lt;br&amp;gt;m&amp;lt;br&amp;gt;e&amp;lt;br&amp;gt;&amp;lt;br&amp;gt;f&amp;lt;br&amp;gt;i&amp;lt;br&amp;gt;a&amp;lt;br&amp;gt;t&amp;lt;/b&amp;gt;&amp;lt;br&amp;gt;&amp;lt;/font&amp;gt;&quot; style=&quot;text;html=1;strokeColor=none;fillColor=none;align=center;verticalAlign=middle;whiteSpace=wrap;rounded=0;labelBackgroundColor=none;fontSize=46;fontColor=#FFFF66;&quot; parent=&quot;1&quot; vertex=&quot;1&quot;&gt;&#10;          &lt;mxGeometry x=&quot;-769&quot; y=&quot;49&quot; width=&quot;60&quot; height=&quot;580&quot; as=&quot;geometry&quot; /&gt;&#10;        &lt;/mxCell&gt;&#10;        &lt;mxCell id=&quot;UBwROreQ6ojuQTXPFIYp-1&quot; value=&quot;&quot; style=&quot;shape=flexArrow;endArrow=classic;html=1;rounded=0;strokeColor=none;fontColor=#fffffe;fillColor=light-dark(#00ff0080, #3d240a);endWidth=0;endSize=19.214285714285715;width=645.7142857142858;gradientColor=light-dark(#000000,#0A0ABC);gradientDirection=east;&quot; parent=&quot;1&quot; edge=&quot;1&quot;&gt;&#10;          &lt;mxGeometry width=&quot;50&quot; height=&quot;50&quot; relative=&quot;1&quot; as=&quot;geometry&quot;&gt;&#10;            &lt;mxPoint x=&quot;293&quot; y=&quot;329&quot; as=&quot;sourcePoint&quot; /&gt;&#10;            &lt;mxPoint x=&quot;987&quot; y=&quot;332&quot; as=&quot;targetPoint&quot; /&gt;&#10;          &lt;/mxGeometry&gt;&#10;        &lt;/mxCell&gt;&#10;        &lt;mxCell id=&quot;iw_edr1DaMoM8EyNuh5Y-2&quot; value=&quot;&quot; style=&quot;edgeLabel;html=1;align=center;verticalAlign=middle;resizable=0;points=[];strokeColor=#79796a;fontColor=#fffffe;fillColor=#242415;&quot; vertex=&quot;1&quot; connectable=&quot;0&quot; parent=&quot;UBwROreQ6ojuQTXPFIYp-1&quot;&gt;&#10;          &lt;mxGeometry x=&quot;0.6984&quot; y=&quot;228&quot; relative=&quot;1&quot; as=&quot;geometry&quot;&gt;&#10;            &lt;mxPoint x=&quot;-1&quot; as=&quot;offset&quot; /&gt;&#10;          &lt;/mxGeometry&gt;&#10;        &lt;/mxCell&gt;&#10;        &lt;mxCell id=&quot;UBwROreQ6ojuQTXPFIYp-4&quot; value=&quot;&amp;lt;font&amp;gt;Hypothèse, solution&amp;lt;br&amp;gt;à cette situation de tension Circoncis/Incirconcis : les véritables religions et&amp;amp;nbsp;&amp;amp;nbsp;&amp;amp;nbsp;un&amp;amp;nbsp;Mahdi et/ou Machia&amp;#39;h et/ou grand Monarque&amp;amp;nbsp;et/ou le Fils, à même de faire la jonction Circoncis/&amp;lt;u&amp;gt;In&amp;lt;/u&amp;gt;circoncis&amp;lt;br&amp;gt;&amp;lt;br&amp;gt;(Pour &amp;quot;préparer le terrain&amp;quot;,&amp;amp;nbsp;&amp;amp;nbsp;il y aurait déjà eut&amp;amp;nbsp;Luisa Piccarreta/le Fils,&amp;amp;nbsp;et le livre du Ciel.)&amp;lt;/font&amp;gt;&quot; style=&quot;text;html=1;strokeColor=none;fillColor=none;align=center;verticalAlign=middle;whiteSpace=wrap;rounded=0;fontColor=#FFFF00;fontSize=22;&quot; parent=&quot;1&quot; vertex=&quot;1&quot;&gt;&#10;          &lt;mxGeometry x=&quot;302&quot; y=&quot;305&quot; width=&quot;646&quot; height=&quot;180&quot; as=&quot;geometry&quot; /&gt;&#10;        &lt;/mxCell&gt;&#10;        &lt;mxCell id=&quot;UBwROreQ6ojuQTXPFIYp-8&quot; value=&quot;&amp;lt;font&amp;gt;&amp;lt;b&amp;gt;&amp;lt;font style=&amp;quot;font-size: 46px;&amp;quot;&amp;gt;3&amp;lt;br&amp;gt;è&amp;lt;br&amp;gt;m&amp;lt;br&amp;gt;e&amp;lt;br&amp;gt;&amp;lt;br&amp;gt;f&amp;lt;br&amp;gt;i&amp;lt;br&amp;gt;a&amp;lt;br&amp;gt;t&amp;lt;/font&amp;gt;&amp;lt;/b&amp;gt;&amp;lt;br&amp;gt;&amp;lt;/font&amp;gt;&quot; style=&quot;text;html=1;strokeColor=none;fillColor=none;align=center;verticalAlign=middle;whiteSpace=wrap;rounded=0;labelBackgroundColor=none;fontSize=42;fontColor=#FFFF66;&quot; parent=&quot;1&quot; vertex=&quot;1&quot;&gt;&#10;          &lt;mxGeometry x=&quot;1031&quot; y=&quot;-37&quot; width=&quot;60&quot; height=&quot;580&quot; as=&quot;geometry&quot; /&gt;&#10;        &lt;/mxCell&gt;&#10;        &lt;mxCell id=&quot;UBwROreQ6ojuQTXPFIYp-11&quot; value=&quot;&amp;lt;font&amp;gt;&amp;lt;font&amp;gt;&amp;lt;br&amp;gt;&amp;lt;br&amp;gt;&amp;lt;font&amp;gt;bien souvent non-aidé par le Circoncis.&amp;amp;nbsp;&amp;lt;/font&amp;gt;&amp;lt;font&amp;gt;Non-aidé passivement : le Circoncis&amp;amp;nbsp;ne comprends pas les problèmes du Circoncis. (puisque n&amp;#39;ayant pas l&amp;#39;intensité de sa libido?)&amp;lt;/font&amp;gt;&amp;lt;br&amp;gt;&amp;lt;font&amp;gt;Et parfois même non-aidé activement : certains &amp;quot;Juifs&amp;quot; exploitent l&amp;#39;Incirconcis, se moquent de lui. Jouent sur sa libido.&amp;amp;nbsp;&amp;lt;/font&amp;gt;&amp;lt;font&amp;gt;Certains même pseudos-juifs s&amp;#39;infiltrent et se font passer pour de véritables juifs&amp;lt;br&amp;gt;et exploitent le non-juif.&amp;lt;/font&amp;gt;&amp;lt;br&amp;gt;&amp;lt;/font&amp;gt;&amp;lt;br&amp;gt;&amp;lt;font&amp;gt;Gravité physique&amp;amp;nbsp;terrible de divers Incirconcis&amp;amp;nbsp;malades qui parfois&amp;amp;nbsp;allèrent même&amp;amp;nbsp;jusqu&amp;#39;&amp;#39;à exterminer des Circoncis (nazisme).&amp;lt;/font&amp;gt;&amp;lt;/font&amp;gt;&quot; style=&quot;text;html=1;strokeColor=#00000000;fillColor=#00000000;align=center;verticalAlign=middle;whiteSpace=wrap;rounded=0;fontSize=20;fontColor=#00ff00;&quot; parent=&quot;1&quot; vertex=&quot;1&quot;&gt;&#10;          &lt;mxGeometry x=&quot;-231&quot; y=&quot;415&quot; width=&quot;472&quot; height=&quot;198&quot; as=&quot;geometry&quot; /&gt;&#10;        &lt;/mxCell&gt;&#10;        &lt;mxCell id=&quot;UBwROreQ6ojuQTXPFIYp-13&quot; value=&quot;&amp;lt;font style=&amp;quot;color: rgb(127, 85, 255);&amp;quot;&amp;gt;&amp;lt;br&amp;gt;&amp;lt;font&amp;gt;&amp;lt;font style=&amp;quot;color: rgb(127, 85, 255);&amp;quot;&amp;gt;souvent n&amp;#39;aidèrent pas l&amp;#39; incirconcis&amp;amp;nbsp;à sortir de ses problèmes.&amp;lt;/font&amp;gt;&amp;lt;br style=&amp;quot;color: rgb(127, 85, 255);&amp;quot;&amp;gt;&amp;lt;font style=&amp;quot;color: rgb(127, 85, 255);&amp;quot;&amp;gt;bien souvent ne furent pas à même de&amp;amp;nbsp;comprendre les problèmes des&amp;amp;nbsp; incirconcis.&amp;lt;/font&amp;gt;&amp;lt;br&amp;gt;Manque de charité envers les incirconcis, les agnostiques.&amp;lt;/font&amp;gt;&amp;lt;/font&amp;gt;&amp;lt;font&amp;gt;&amp;lt;font style=&amp;quot;color: rgb(127, 85, 255);&amp;quot;&amp;gt;&amp;lt;br&amp;gt;&amp;lt;font&amp;gt;&amp;lt;font&amp;gt;le Circoncis put sembler pour l&amp;#39;Incirconcis à la fois &amp;quot;amorphe&amp;quot;,&amp;amp;nbsp;&amp;lt;/font&amp;gt;&amp;lt;font&amp;gt;mais en même temps plus près de Dieu, plus serein. Le Circoncis put sembler comme méprisant, dédaigneux envers l&amp;#39;Incirconcis.&amp;lt;/font&amp;gt;&amp;lt;/font&amp;gt;&amp;lt;br&amp;gt;&amp;lt;br&amp;gt;&amp;lt;font&amp;gt;&amp;lt;span style=&amp;quot;background-color: rgb(51, 51, 51);&amp;quot;&amp;gt;Gravité symbolique&amp;lt;/span&amp;gt;&amp;amp;nbsp;terrible&amp;amp;nbsp;de beaucoup de circoncis qui délaissèrent&amp;lt;br&amp;gt;les incirconcis-agnostiques.&amp;lt;/font&amp;gt;&amp;lt;br&amp;gt;&amp;lt;/font&amp;gt;&amp;lt;br&amp;gt;&amp;lt;/font&amp;gt;&quot; style=&quot;text;html=1;strokeColor=none;fillColor=none;align=center;verticalAlign=middle;whiteSpace=wrap;rounded=0;fontColor=#fffffe;fontSize=20;&quot; parent=&quot;1&quot; vertex=&quot;1&quot;&gt;&#10;          &lt;mxGeometry x=&quot;-189&quot; y=&quot;40&quot; width=&quot;458&quot; height=&quot;120&quot; as=&quot;geometry&quot; /&gt;&#10;        &lt;/mxCell&gt;&#10;        &lt;mxCell id=&quot;UBwROreQ6ojuQTXPFIYp-14&quot; value=&quot;Entre Circoncis et Incirconcis : Blessures mutuelles :&amp;lt;br&amp;gt;&amp;lt;span&amp;gt;Abus, vols, persécutions,&amp;amp;nbsp;&amp;lt;/span&amp;gt;&amp;lt;span&amp;gt;vengeances, parfois extermination&amp;lt;/span&amp;gt;&quot; style=&quot;text;html=1;strokeColor=none;fillColor=none;align=center;verticalAlign=middle;whiteSpace=wrap;rounded=0;fontColor=#FF0000;fontSize=20;&quot; parent=&quot;1&quot; vertex=&quot;1&quot;&gt;&#10;          &lt;mxGeometry x=&quot;-348&quot; y=&quot;311&quot; width=&quot;474&quot; height=&quot;30&quot; as=&quot;geometry&quot; /&gt;&#10;        &lt;/mxCell&gt;&#10;        &lt;mxCell id=&quot;UBwROreQ6ojuQTXPFIYp-15&quot; value=&quot;&quot; style=&quot;endArrow=classic;startArrow=classic;html=1;rounded=0;strokeColor=#ff0000;fontColor=#fffffe;fillColor=#00000000;strokeWidth=2;&quot; parent=&quot;1&quot; edge=&quot;1&quot;&gt;&#10;          &lt;mxGeometry width=&quot;50&quot; height=&quot;50&quot; relative=&quot;1&quot; as=&quot;geometry&quot;&gt;&#10;            &lt;mxPoint x=&quot;151&quot; y=&quot;359&quot; as=&quot;sourcePoint&quot; /&gt;&#10;            &lt;mxPoint x=&quot;151&quot; y=&quot;288&quot; as=&quot;targetPoint&quot; /&gt;&#10;          &lt;/mxGeometry&gt;&#10;        &lt;/mxCell&gt;&#10;        &lt;mxCell id=&quot;UBwROreQ6ojuQTXPFIYp-16&quot; value=&quot;&quot; style=&quot;endArrow=classic;startArrow=classic;html=1;rounded=0;strokeColor=#ff0000;fontColor=#FF0000;fillColor=#00000000;strokeWidth=2;&quot; parent=&quot;1&quot; edge=&quot;1&quot;&gt;&#10;          &lt;mxGeometry width=&quot;50&quot; height=&quot;50&quot; relative=&quot;1&quot; as=&quot;geometry&quot;&gt;&#10;            &lt;mxPoint x=&quot;-390&quot; y=&quot;360&quot; as=&quot;sourcePoint&quot; /&gt;&#10;            &lt;mxPoint x=&quot;-390&quot; y=&quot;289&quot; as=&quot;targetPoint&quot; /&gt;&#10;          &lt;/mxGeometry&gt;&#10;        &lt;/mxCell&gt;&#10;        &lt;mxCell id=&quot;UBwROreQ6ojuQTXPFIYp-18&quot; value=&quot;&amp;lt;font style=&amp;quot;font-size: 36px; color: rgb(127, 85, 255);&amp;quot;&amp;gt;Circoncis&amp;lt;/font&amp;gt;&quot; style=&quot;text;html=1;strokeColor=none;fillColor=none;align=center;verticalAlign=middle;whiteSpace=wrap;rounded=0;fontColor=#fffffe;&quot; parent=&quot;1&quot; vertex=&quot;1&quot;&gt;&#10;          &lt;mxGeometry x=&quot;-530&quot; y=&quot;40&quot; width=&quot;105&quot; height=&quot;80&quot; as=&quot;geometry&quot; /&gt;&#10;        &lt;/mxCell&gt;&#10;        &lt;mxCell id=&quot;UBwROreQ6ojuQTXPFIYp-19&quot; value=&quot;&amp;lt;font style=&amp;quot;font-size: 36px;&amp;quot;&amp;gt;&amp;lt;u&amp;gt;In&amp;lt;/u&amp;gt;circoncis&amp;lt;/font&amp;gt;&quot; style=&quot;text;html=1;strokeColor=#00000000;fillColor=#00000000;align=center;verticalAlign=middle;whiteSpace=wrap;rounded=0;fontColor=#00ff00;&quot; parent=&quot;1&quot; vertex=&quot;1&quot;&gt;&#10;          &lt;mxGeometry x=&quot;-530&quot; y=&quot;478&quot; width=&quot;105&quot; height=&quot;80&quot; as=&quot;geometry&quot; /&gt;&#10;        &lt;/mxCell&gt;&#10;        &lt;mxCell id=&quot;FVbyVy5mqckSKn0n1atq-2&quot; value=&quot;&amp;lt;font&amp;gt;Mentalités et conflits Circoncis / &amp;lt;u&amp;gt;In&amp;lt;/u&amp;gt;circoncis&amp;amp;nbsp; &amp;amp;nbsp;et&amp;amp;nbsp; transition 2ème/3ème fiat&amp;lt;/font&amp;gt;&quot; style=&quot;text;html=1;align=center;verticalAlign=middle;whiteSpace=wrap;rounded=1;fontSize=52;strokeColor=none;fillColor=#00C900;glass=0;sketch=1;curveFitting=1;jiggle=2;&quot; parent=&quot;1&quot; vertex=&quot;1&quot;&gt;&#10;          &lt;mxGeometry x=&quot;-683&quot; y=&quot;-149&quot; width=&quot;1714&quot; height=&quot;40&quot; as=&quot;geometry&quot; /&gt;&#10;        &lt;/mxCell&gt;&#10;        &lt;mxCell id=&quot;TOHtLk_aAoYDnxtBrWts-22&quot; value=&quot;&amp;lt;font style=&amp;quot;font-size: 34px;&amp;quot;&amp;gt;&amp;lt;b&amp;gt;&amp;lt;font style=&amp;quot;color: rgb(255, 255, 102);&amp;quot;&amp;gt;phase de transition 2ème fiat --&amp;amp;gt; 3ème fiat&amp;lt;/font&amp;gt;&amp;lt;/b&amp;gt;&amp;lt;br&amp;gt;&amp;lt;/font&amp;gt;&quot; style=&quot;text;html=1;strokeColor=none;fillColor=none;align=center;verticalAlign=middle;whiteSpace=wrap;rounded=0;labelBackgroundColor=none;fontSize=16;fontColor=#FF0080;&quot; parent=&quot;1&quot; vertex=&quot;1&quot;&gt;&#10;          &lt;mxGeometry x=&quot;312&quot; y=&quot;182&quot; width=&quot;590&quot; height=&quot;87&quot; as=&quot;geometry&quot; /&gt;&#10;        &lt;/mxCell&gt;&#10;        &lt;mxCell id=&quot;FVbyVy5mqckSKn0n1atq-3&quot; value=&quot;⛈️🌩️&quot; style=&quot;text;whiteSpace=wrap;fontColor=#fffffe;fontSize=38;&quot; parent=&quot;1&quot; vertex=&quot;1&quot;&gt;&#10;          &lt;mxGeometry x=&quot;170&quot; y=&quot;305&quot; width=&quot;110.25&quot; height=&quot;60.5&quot; as=&quot;geometry&quot; /&gt;&#10;        &lt;/mxCell&gt;&#10;        &lt;mxCell id=&quot;FVbyVy5mqckSKn0n1atq-5&quot; value=&quot;&amp;lt;font&amp;gt;plus grande amplitude émotionnelle&amp;lt;br&amp;gt;&amp;amp;nbsp;&amp;lt;/font&amp;gt;&amp;lt;font&amp;gt;que le Circoncis&amp;lt;br&amp;gt;mais&amp;amp;nbsp;aussi plus à même d&amp;#39;aller vers des excitations sexuelles&amp;lt;/font&amp;gt;&amp;lt;font&amp;gt;.&amp;lt;/font&amp;gt;&quot; style=&quot;text;html=1;align=center;verticalAlign=middle;rounded=0;fontSize=20;whiteSpace=wrap;fillColor=#00000000;strokeColor=#00000000;fontColor=#00ff00;&quot; parent=&quot;1&quot; vertex=&quot;1&quot;&gt;&#10;          &lt;mxGeometry x=&quot;-354&quot; y=&quot;487&quot; width=&quot;65&quot; height=&quot;98&quot; as=&quot;geometry&quot; /&gt;&#10;        &lt;/mxCell&gt;&#10;        &lt;mxCell id=&quot;FVbyVy5mqckSKn0n1atq-9&quot; value=&quot;&amp;lt;font style=&amp;quot;color: rgb(127, 85, 255);&amp;quot;&amp;gt;j&amp;#39;estime qu&amp;#39;il s&amp;#39;agit en particulier des Judaïsants, qui n&amp;#39;ont pas &amp;quot;le feu&amp;quot; (c&amp;#39;est-à-dire une libido) comme les Incirconcis.&amp;lt;br&amp;gt;&amp;lt;/font&amp;gt;&quot; style=&quot;text;html=1;align=center;verticalAlign=middle;whiteSpace=wrap;rounded=0;fontColor=#fffffe;fontSize=20;&quot; parent=&quot;1&quot; vertex=&quot;1&quot;&gt;&#10;          &lt;mxGeometry x=&quot;-343&quot; y=&quot;80&quot; width=&quot;80&quot; height=&quot;30&quot; as=&quot;geometry&quot; /&gt;&#10;        &lt;/mxCell&gt;&#10;        &lt;mxCell id=&quot;iw_edr1DaMoM8EyNuh5Y-3&quot; value=&quot;&quot; style=&quot;endArrow=classic;html=1;rounded=0;strokeColor=#dddedd;fontColor=#fffffe;fillColor=#242416;&quot; edge=&quot;1&quot; parent=&quot;1&quot;&gt;&#10;          &lt;mxGeometry width=&quot;50&quot; height=&quot;50&quot; relative=&quot;1&quot; as=&quot;geometry&quot;&gt;&#10;            &lt;mxPoint x=&quot;318&quot; y=&quot;111&quot; as=&quot;sourcePoint&quot; /&gt;&#10;            &lt;mxPoint x=&quot;917&quot; y=&quot;112&quot; as=&quot;targetPoint&quot; /&gt;&#10;          &lt;/mxGeometry&gt;&#10;        &lt;/mxCell&gt;&#10;        &lt;mxCell id=&quot;iw_edr1DaMoM8EyNuh5Y-4&quot; value=&quot;&quot; style=&quot;endArrow=classic;html=1;rounded=0;strokeColor=#dddedd;fontColor=#fffffe;fillColor=#242416;&quot; edge=&quot;1&quot; parent=&quot;1&quot;&gt;&#10;          &lt;mxGeometry width=&quot;50&quot; height=&quot;50&quot; relative=&quot;1&quot; as=&quot;geometry&quot;&gt;&#10;            &lt;mxPoint x=&quot;320&quot; y=&quot;599&quot; as=&quot;sourcePoint&quot; /&gt;&#10;            &lt;mxPoint x=&quot;919&quot; y=&quot;600&quot; as=&quot;targetPoint&quot; /&gt;&#10;          &lt;/mxGeometry&gt;&#10;        &lt;/mxCell&gt;&#10;        &lt;mxCell id=&quot;iw_edr1DaMoM8EyNuh5Y-5&quot; value=&quot;&amp;lt;font style=&amp;quot;font-size: 22px;&amp;quot;&amp;gt;conversion/transition plutôt du temps du &amp;lt;/font&amp;gt;&amp;lt;font style=&amp;quot;font-size: 42px;&amp;quot;&amp;gt;Machia&amp;#39;h&amp;lt;/font&amp;gt;&amp;lt;font style=&amp;quot;font-size: 22px;&amp;quot;&amp;gt;?&amp;lt;/font&amp;gt;&quot; style=&quot;text;html=1;align=center;verticalAlign=middle;whiteSpace=wrap;rounded=0;fontColor=#fffffe;&quot; vertex=&quot;1&quot; parent=&quot;1&quot;&gt;&#10;          &lt;mxGeometry x=&quot;315&quot; y=&quot;72&quot; width=&quot;590&quot; height=&quot;30&quot; as=&quot;geometry&quot; /&gt;&#10;        &lt;/mxCell&gt;&#10;        &lt;mxCell id=&quot;iw_edr1DaMoM8EyNuh5Y-6&quot; value=&quot;&amp;lt;font style=&amp;quot;font-size: 22px;&amp;quot;&amp;gt;conversion/transition plutôt du temps du &amp;lt;/font&amp;gt;&amp;lt;font style=&amp;quot;font-size: 42px;&amp;quot;&amp;gt;Mahdi&amp;lt;/font&amp;gt;&amp;lt;font style=&amp;quot;font-size: 22px;&amp;quot;&amp;gt;?&amp;lt;/font&amp;gt;&quot; style=&quot;text;html=1;align=center;verticalAlign=middle;whiteSpace=wrap;rounded=0;fontColor=#fffffe;&quot; vertex=&quot;1&quot; parent=&quot;1&quot;&gt;&#10;          &lt;mxGeometry x=&quot;327&quot; y=&quot;601&quot; width=&quot;570&quot; height=&quot;30&quot; as=&quot;geometry&quot; /&gt;&#10;        &lt;/mxCell&gt;&#10;      &lt;/root&gt;&#10;    &lt;/mxGraphModel&gt;&#10;  &lt;/diagram&gt;&#10;&lt;/mxfile&gt;&#10;"><defs><linearGradient x1="0%" y1="0%" x2="100%" y2="0%" id="drawio-svg-5ds4zsxseHG9_nQVx4k5-gradient-light-dark_00ff0080_3d240a_-1-light-dark_000000_0a0abc_-1-e-0"><stop offset="0%" stop-color="light-dark(#00ff0080, #3d240a)" stop-opacity="1" style="stop-color: light-dark(rgba(0, 255, 0, 0.5), rgb(61, 36, 10)); stop-opacity: 1;"/><stop offset="100%" stop-color="#000000" stop-opacity="1" style="stop-color: light-dark(rgb(0, 0, 0), rgb(10, 10, 188)); stop-opacity: 1;"/></linearGradient></defs><g><g data-cell-id="0"><g data-cell-id="1"><g data-cell-id="FVbyVy5mqckSKn0n1atq-1"><g id="cell-FVbyVy5mqckSKn0n1atq-1"><g><rect x="0" y="0" width="1940" height="876" rx="131.4" ry="131.4" fill="#141414" stroke="#000000" pointer-events="all" style="fill: rgb(20, 20, 20); stroke: light-dark(rgb(0, 0, 0), rgb(255, 255, 255));"/></g></g></g><g data-cell-id="TOHtLk_aAoYDnxtBrWts-5"><g id="cell-TOHtLk_aAoYDnxtBrWts-5"><g><rect x="18" y="66" width="1062" height="800" rx="120" ry="120" fill="#66330080" stroke="none" pointer-events="all" style="fill: rgba(102, 51, 0, 0.5);"/></g></g></g><g data-cell-id="FVbyVy5mqckSKn0n1atq-8"><g id="cell-FVbyVy5mqckSKn0n1atq-8"><g><rect x="215" y="78" width="840" height="365" rx="54.75" ry="54.75" fill="#000033" stroke="none" pointer-events="all" style="fill: rgb(0, 0, 51);"/></g></g></g><g data-cell-id="FVbyVy5mqckSKn0n1atq-7"><g id="cell-FVbyVy5mqckSKn0n1atq-7"><g><rect x="215" y="531" width="825" height="331" rx="49.65" ry="49.65" fill="#66330080" stroke="none" pointer-events="all" style="fill: rgba(102, 51, 0, 0.5);"/></g></g></g><g data-cell-id="UBwROreQ6ojuQTXPFIYp-6"><g id="cell-UBwROreQ6ojuQTXPFIYp-6"><g><rect x="1763" y="73" width="150" height="758" rx="22.5" ry="22.5" fill="light-dark(#0000ff80, #0a0a8a)" stroke="none" pointer-events="all" style="fill: light-dark(rgba(0, 0, 255, 0.5), rgb(10, 10, 138));"/></g></g></g><g data-cell-id="TOHtLk_aAoYDnxtBrWts-6"><g id="cell-TOHtLk_aAoYDnxtBrWts-6"><g><rect x="106" y="417" width="75" height="120" fill="none" stroke="none" pointer-events="all"/></g><g><g transform="translate(-0.5 -0.5)"><switch><foreignObject style="overflow: visible; text-align: left;" pointer-events="none" width="100%" height="100%" requiredFeatures="http://www.w3.org/TR/SVG11/feature#Extensibility"><div xmlns="http://www.w3.org/1999/xhtml" style="display: flex; align-items: unsafe center; justify-content: unsafe center; width: 73px; height: 1px; padding-top: 477px; margin-left: 107px;"><div style="box-sizing: border-box; font-size: 0; text-align: center; color: #FF0000; "><div style="display: inline-block; font-size: 20px; font-family: &quot;Helvetica&quot;; color: #FF0000; line-height: 1.2; pointer-events: all; white-space: normal; word-wrap: normal; "><font>Société plus ou moins malade, sous aura démoniaque, incompréhension de beaucoup de Créatures entre elles, depuis au moins deux millénaires.</font></div></div></div></foreignObject><text x="144" y="483" fill="#FF0000" font-family="&quot;Helvetica&quot;" font-size="20px" text-anchor="middle">Société...</text></switch></g></g></g></g><g data-cell-id="TOHtLk_aAoYDnxtBrWts-17"><g id="cell-TOHtLk_aAoYDnxtBrWts-17"><g/></g></g><g data-cell-id="TOHtLk_aAoYDnxtBrWts-20"><g id="cell-TOHtLk_aAoYDnxtBrWts-20"><g><rect x="11" y="209" width="60" height="580" fill="none" stroke="none" pointer-events="all"/></g><g><g transform="translate(-0.5 -0.5)"><switch><foreignObject style="overflow: visible; text-align: left;" pointer-events="none" width="100%" height="100%" requiredFeatures="http://www.w3.org/TR/SVG11/feature#Extensibility"><div xmlns="http://www.w3.org/1999/xhtml" style="display: flex; align-items: unsafe center; justify-content: unsafe center; width: 58px; height: 1px; padding-top: 499px; margin-left: 12px;"><div style="box-sizing: border-box; font-size: 0; text-align: center; color: #FFFF66; "><div style="display: inline-block; font-size: 46px; font-family: &quot;Helvetica&quot;; color: #FFFF66; line-height: 1.2; pointer-events: all; white-space: normal; word-wrap: normal; "><font><b>2<br />è<br />m<br />e<br /><br />f<br />i<br />a<br />t</b><br /></font></div></div></div></foreignObject><text x="41" y="513" fill="#FFFF66" font-family="&quot;Helvetica&quot;" font-size="46px" text-anchor="middle">2...</text></switch></g></g></g></g><g data-cell-id="UBwROreQ6ojuQTXPFIYp-1"><g id="cell-UBwROreQ6ojuQTXPFIYp-1"><g><path d="M 1072.1 811.86 L 1074.9 166.15 L 1709.25 168.89 L 1709.26 168.39 L 1766.5 492 L 1706.46 815.1 L 1706.46 814.6 Z" fill="url(#drawio-svg-5ds4zsxseHG9_nQVx4k5-gradient-light-dark_00ff0080_3d240a_-1-light-dark_000000_0a0abc_-1-e-0)" stroke="none" pointer-events="all" style="fill: url(&quot;#drawio-svg-5ds4zsxseHG9_nQVx4k5-gradient-light-dark_00ff0080_3d240a_-1-light-dark_000000_0a0abc_-1-e-0&quot;);"/></g></g><g data-cell-id="iw_edr1DaMoM8EyNuh5Y-2"/></g><g data-cell-id="UBwROreQ6ojuQTXPFIYp-4"><g id="cell-UBwROreQ6ojuQTXPFIYp-4"><g><rect x="1082" y="465" width="646" height="180" fill="none" stroke="none" pointer-events="all"/></g><g><g transform="translate(-0.5 -0.5)"><switch><foreignObject style="overflow: visible; text-align: left;" pointer-events="none" width="100%" height="100%" requiredFeatures="http://www.w3.org/TR/SVG11/feature#Extensibility"><div xmlns="http://www.w3.org/1999/xhtml" style="display: flex; align-items: unsafe center; justify-content: unsafe center; width: 644px; height: 1px; padding-top: 555px; margin-left: 1083px;"><div style="box-sizing: border-box; font-size: 0; text-align: center; color: #FFFF00; "><div style="display: inline-block; font-size: 22px; font-family: &quot;Helvetica&quot;; color: #FFFF00; line-height: 1.2; pointer-events: all; white-space: normal; word-wrap: normal; "><font>Hypothèse, solution<br />à cette situation de tension Circoncis/Incirconcis : les véritables religions et   un Mahdi et/ou Machia'h et/ou grand Monarque et/ou le Fils, à même de faire la jonction Circoncis/<u>In</u>circoncis<br /><br />(Pour "préparer le terrain",  il y aurait déjà eut Luisa Piccarreta/le Fils, et le livre du Ciel.)</font></div></div></div></foreignObject><text x="1405" y="562" fill="#FFFF00" font-family="&quot;Helvetica&quot;" font-size="22px" text-anchor="middle">Hypothèse, solution...</text></switch></g></g></g></g><g data-cell-id="UBwROreQ6ojuQTXPFIYp-8"><g id="cell-UBwROreQ6ojuQTXPFIYp-8"><g><rect x="1811" y="123" width="60" height="580" fill="none" stroke="none" pointer-events="all"/></g><g><g transform="translate(-0.5 -0.5)"><switch><foreignObject style="overflow: visible; text-align: left;" pointer-events="none" width="100%" height="100%" requiredFeatures="http://www.w3.org/TR/SVG11/feature#Extensibility"><div xmlns="http://www.w3.org/1999/xhtml" style="display: flex; align-items: unsafe center; justify-content: unsafe center; width: 58px; height: 1px; padding-top: 413px; margin-left: 1812px;"><div style="box-sizing: border-box; font-size: 0; text-align: center; color: #FFFF66; "><div style="display: inline-block; font-size: 42px; font-family: &quot;Helvetica&quot;; color: #FFFF66; line-height: 1.2; pointer-events: all; white-space: normal; word-wrap: normal; "><font><b><font style="font-size: 46px;">3<br />è<br />m<br />e<br /><br />f<br />i<br />a<br />t</font></b><br /></font></div></div></div></foreignObject><text x="1841" y="426" fill="#FFFF66" font-family="&quot;Helvetica&quot;" font-size="42px" text-anchor="middle">3...</text></switch></g></g></g></g><g data-cell-id="UBwROreQ6ojuQTXPFIYp-11"><g id="cell-UBwROreQ6ojuQTXPFIYp-11"><g><rect x="549" y="575" width="472" height="198" fill="#00000000" stroke="#00000000" pointer-events="all" style="fill: rgba(0, 0, 0, 0); stroke: rgba(0, 0, 0, 0);"/></g><g><g transform="translate(-0.5 -0.5)"><switch><foreignObject style="overflow: visible; text-align: left;" pointer-events="none" width="100%" height="100%" requiredFeatures="http://www.w3.org/TR/SVG11/feature#Extensibility"><div xmlns="http://www.w3.org/1999/xhtml" style="display: flex; align-items: unsafe center; justify-content: unsafe center; width: 470px; height: 1px; padding-top: 674px; margin-left: 550px;"><div style="box-sizing: border-box; font-size: 0; text-align: center; color: #00ff00; "><div style="display: inline-block; font-size: 20px; font-family: &quot;Helvetica&quot;; color: #00ff00; line-height: 1.2; pointer-events: all; white-space: normal; word-wrap: normal; "><font><font><br /><br /><font>bien souvent non-aidé par le Circoncis. </font><font>Non-aidé passivement : le Circoncis ne comprends pas les problèmes du Circoncis. (puisque n'ayant pas l'intensité de sa libido?)</font><br /><font>Et parfois même non-aidé activement : certains "Juifs" exploitent l'Incirconcis, se moquent de lui. Jouent sur sa libido. </font><font>Certains même pseudos-juifs s'infiltrent et se font passer pour de véritables juifs<br />et exploitent le non-juif.</font><br /></font><br /><font>Gravité physique terrible de divers Incirconcis malades qui parfois allèrent même jusqu''à exterminer des Circoncis (nazisme).</font></font></div></div></div></foreignObject><text x="785" y="680" fill="#00ff00" font-family="&quot;Helvetica&quot;" font-size="20px" text-anchor="middle">bien souvent non-aidé par le Circoncis. Non-aid...</text></switch></g></g></g></g><g data-cell-id="UBwROreQ6ojuQTXPFIYp-13"><g id="cell-UBwROreQ6ojuQTXPFIYp-13"><g><rect x="591" y="200" width="458" height="120" fill="none" stroke="none" pointer-events="all"/></g><g><g transform="translate(-0.5 -0.5)"><switch><foreignObject style="overflow: visible; text-align: left;" pointer-events="none" width="100%" height="100%" requiredFeatures="http://www.w3.org/TR/SVG11/feature#Extensibility"><div xmlns="http://www.w3.org/1999/xhtml" style="display: flex; align-items: unsafe center; justify-content: unsafe center; width: 456px; height: 1px; padding-top: 260px; margin-left: 592px;"><div style="box-sizing: border-box; font-size: 0; text-align: center; color: #fffffe; "><div style="display: inline-block; font-size: 20px; font-family: &quot;Helvetica&quot;; color: #fffffe; line-height: 1.2; pointer-events: all; white-space: normal; word-wrap: normal; "><font style="color: rgb(127, 85, 255);"><br /><font><font style="color: rgb(127, 85, 255);">souvent n'aidèrent pas l' incirconcis à sortir de ses problèmes.</font><br style="color: rgb(127, 85, 255);" /><font style="color: rgb(127, 85, 255);">bien souvent ne furent pas à même de comprendre les problèmes des  incirconcis.</font><br />Manque de charité envers les incirconcis, les agnostiques.</font></font><font><font style="color: rgb(127, 85, 255);"><br /><font><font>le Circoncis put sembler pour l'Incirconcis à la fois "amorphe", </font><font>mais en même temps plus près de Dieu, plus serein. Le Circoncis put sembler comme méprisant, dédaigneux envers l'Incirconcis.</font></font><br /><br /><font><span style="background-color: rgb(51, 51, 51);">Gravité symbolique</span> terrible de beaucoup de circoncis qui délaissèrent<br />les incirconcis-agnostiques.</font><br /></font><br /></font></div></div></div></foreignObject><text x="820" y="266" fill="#fffffe" font-family="&quot;Helvetica&quot;" font-size="20px" text-anchor="middle">souvent n'aidèrent pas l' incirconcis à sortir...</text></switch></g></g></g></g><g data-cell-id="UBwROreQ6ojuQTXPFIYp-14"><g id="cell-UBwROreQ6ojuQTXPFIYp-14"><g><rect x="432" y="471" width="474" height="30" fill="none" stroke="none" pointer-events="all"/></g><g><g transform="translate(-0.5 -0.5)"><switch><foreignObject style="overflow: visible; text-align: left;" pointer-events="none" width="100%" height="100%" requiredFeatures="http://www.w3.org/TR/SVG11/feature#Extensibility"><div xmlns="http://www.w3.org/1999/xhtml" style="display: flex; align-items: unsafe center; justify-content: unsafe center; width: 472px; height: 1px; padding-top: 486px; margin-left: 433px;"><div style="box-sizing: border-box; font-size: 0; text-align: center; color: #FF0000; "><div style="display: inline-block; font-size: 20px; font-family: &quot;Helvetica&quot;; color: #FF0000; line-height: 1.2; pointer-events: all; white-space: normal; word-wrap: normal; ">Entre Circoncis et Incirconcis : Blessures mutuelles :<br /><span>Abus, vols, persécutions, </span><span>vengeances, parfois extermination</span></div></div></div></foreignObject><text x="669" y="492" fill="#FF0000" font-family="&quot;Helvetica&quot;" font-size="20px" text-anchor="middle">Entre Circoncis et Incirconcis : Blessures mutu...</text></switch></g></g></g></g><g data-cell-id="UBwROreQ6ojuQTXPFIYp-15"><g id="cell-UBwROreQ6ojuQTXPFIYp-15"><g><path d="M 931 510.76 L 931 456.24" fill="none" stroke="#ff0000" stroke-width="2" stroke-miterlimit="10" pointer-events="stroke" style="stroke: rgb(255, 0, 0);"/><path d="M 931 516.76 L 927 508.76 L 931 510.76 L 935 508.76 Z" fill="#ff0000" stroke="#ff0000" stroke-width="2" stroke-miterlimit="10" pointer-events="all" style="fill: rgb(255, 0, 0); stroke: rgb(255, 0, 0);"/><path d="M 931 450.24 L 935 458.24 L 931 456.24 L 927 458.24 Z" fill="#ff0000" stroke="#ff0000" stroke-width="2" stroke-miterlimit="10" pointer-events="all" style="fill: rgb(255, 0, 0); stroke: rgb(255, 0, 0);"/></g></g></g><g data-cell-id="UBwROreQ6ojuQTXPFIYp-16"><g id="cell-UBwROreQ6ojuQTXPFIYp-16"><g><path d="M 390 511.76 L 390 457.24" fill="none" stroke="#ff0000" stroke-width="2" stroke-miterlimit="10" pointer-events="stroke" style="stroke: rgb(255, 0, 0);"/><path d="M 390 517.76 L 386 509.76 L 390 511.76 L 394 509.76 Z" fill="#ff0000" stroke="#ff0000" stroke-width="2" stroke-miterlimit="10" pointer-events="all" style="fill: rgb(255, 0, 0); stroke: rgb(255, 0, 0);"/><path d="M 390 451.24 L 394 459.24 L 390 457.24 L 386 459.24 Z" fill="#ff0000" stroke="#ff0000" stroke-width="2" stroke-miterlimit="10" pointer-events="all" style="fill: rgb(255, 0, 0); stroke: rgb(255, 0, 0);"/></g></g></g><g data-cell-id="UBwROreQ6ojuQTXPFIYp-18"><g id="cell-UBwROreQ6ojuQTXPFIYp-18"><g><rect x="250" y="200" width="105" height="80" fill="none" stroke="none" pointer-events="all"/></g><g><g transform="translate(-0.5 -0.5)"><switch><foreignObject style="overflow: visible; text-align: left;" pointer-events="none" width="100%" height="100%" requiredFeatures="http://www.w3.org/TR/SVG11/feature#Extensibility"><div xmlns="http://www.w3.org/1999/xhtml" style="display: flex; align-items: unsafe center; justify-content: unsafe center; width: 103px; height: 1px; padding-top: 240px; margin-left: 251px;"><div style="box-sizing: border-box; font-size: 0; text-align: center; color: #fffffe; "><div style="display: inline-block; font-size: 12px; font-family: &quot;Helvetica&quot;; color: #fffffe; line-height: 1.2; pointer-events: all; white-space: normal; word-wrap: normal; "><font style="font-size: 36px; color: rgb(127, 85, 255);">Circoncis</font></div></div></div></foreignObject><text x="303" y="244" fill="#fffffe" font-family="&quot;Helvetica&quot;" font-size="12px" text-anchor="middle">Circoncis</text></switch></g></g></g></g><g data-cell-id="UBwROreQ6ojuQTXPFIYp-19"><g id="cell-UBwROreQ6ojuQTXPFIYp-19"><g><rect x="250" y="638" width="105" height="80" fill="#00000000" stroke="#00000000" pointer-events="all" style="fill: rgba(0, 0, 0, 0); stroke: rgba(0, 0, 0, 0);"/></g><g><g transform="translate(-0.5 -0.5)"><switch><foreignObject style="overflow: visible; text-align: left;" pointer-events="none" width="100%" height="100%" requiredFeatures="http://www.w3.org/TR/SVG11/feature#Extensibility"><div xmlns="http://www.w3.org/1999/xhtml" style="display: flex; align-items: unsafe center; justify-content: unsafe center; width: 103px; height: 1px; padding-top: 678px; margin-left: 251px;"><div style="box-sizing: border-box; font-size: 0; text-align: center; color: #00ff00; "><div style="display: inline-block; font-size: 12px; font-family: &quot;Helvetica&quot;; color: #00ff00; line-height: 1.2; pointer-events: all; white-space: normal; word-wrap: normal; "><font style="font-size: 36px;"><u>In</u>circoncis</font></div></div></div></foreignObject><text x="303" y="682" fill="#00ff00" font-family="&quot;Helvetica&quot;" font-size="12px" text-anchor="middle">Incirconcis</text></switch></g></g></g></g><g data-cell-id="FVbyVy5mqckSKn0n1atq-2"><g id="cell-FVbyVy5mqckSKn0n1atq-2"><g><rect x="97" y="11" width="1714" height="40" rx="6" ry="6" fill="none" stroke="none" pointer-events="all"/><path d="M 97.28 14.48 C 97.28 14.48 97.28 14.48 97.28 14.48 M 97.28 14.48 C 97.28 14.48 97.28 14.48 97.28 14.48 M 97.02 20.88 C 97.11 19.37 102.1 14.23 104.89 11.83 M 97.02 20.88 C 99.75 18.85 102.23 15.01 104.89 11.83 M 97.41 26.53 C 101.95 25.64 104.54 13.2 110.53 11.43 M 97.41 26.53 C 102.2 20.35 107.67 15.32 110.53 11.43 M 97.15 32.92 C 106.43 24.81 111.93 20.24 115.52 11.79 M 97.15 32.92 C 105.08 26.74 112.4 17.07 115.52 11.79 M 96.89 39.32 C 100.19 36.1 105.81 26.8 121.16 11.4 M 96.89 39.32 C 101.95 31.66 110.47 23.8 121.16 11.4 M 97.28 44.96 C 106.81 28.58 118.05 18.62 126.15 11.76 M 97.28 44.96 C 108.03 34.61 118.45 18.96 126.15 11.76 M 98.33 49.85 C 105.63 36.05 119.84 27.18 131.79 11.36 M 98.33 49.85 C 108.68 37.65 118.45 23.73 131.79 11.36 M 102.67 50.97 C 114.35 43.93 121.03 31.33 136.78 11.72 M 102.67 50.97 C 117.93 36.4 130.63 21.08 136.78 11.72 M 107.65 51.33 C 118.43 38.19 129.1 29.81 142.42 11.33 M 107.65 51.33 C 122.7 33.51 136.91 17.92 142.42 11.33 M 112.64 51.69 C 122.86 35.37 133.64 25.88 147.41 11.69 M 112.64 51.69 C 124.09 38.77 130.25 30.9 147.41 11.69 M 118.28 51.29 C 128.01 38.5 138.58 30.78 153.05 11.29 M 118.28 51.29 C 128.65 40.19 134.33 32.32 153.05 11.29 M 123.27 51.65 C 138.57 36.17 149.84 25.27 158.04 11.65 M 123.27 51.65 C 135.43 34.18 149.57 19.4 158.04 11.65 M 128.91 51.26 C 141.39 40.5 148.81 23.5 163.68 11.26 M 128.91 51.26 C 139.31 41.23 144.52 31.63 163.68 11.26 M 133.9 51.62 C 144.51 42.47 148.35 30.26 168.67 11.62 M 133.9 51.62 C 142.95 42.61 147.34 33.45 168.67 11.62 M 139.54 51.22 C 149.53 43.87 156.42 35.15 173.66 11.98 M 139.54 51.22 C 146.97 43.95 155.75 32.02 173.66 11.98 M 144.53 51.58 C 160.75 36.11 169.2 24.52 179.3 11.58 M 144.53 51.58 C 158.06 37.61 169.61 24.76 179.3 11.58 M 150.17 51.19 C 157.88 45.79 165.5 30.91 184.29 11.94 M 150.17 51.19 C 164.51 36.03 176.49 24.61 184.29 11.94 M 155.16 51.55 C 161.58 46.41 174.51 36.21 189.93 11.55 M 155.16 51.55 C 166.9 37.36 179.73 20.68 189.93 11.55 M 160.8 51.16 C 172.22 40.8 176.71 34.83 194.92 11.91 M 160.8 51.16 C 174.59 35.26 184.34 21.82 194.92 11.91 M 165.79 51.52 C 170.12 44.77 181.67 32.54 200.56 11.52 M 165.79 51.52 C 175.57 38.04 187.31 25.57 200.56 11.52 M 171.43 51.12 C 182.65 34.81 193.78 23.16 205.55 11.88 M 171.43 51.12 C 180.06 38.86 188.29 30.57 205.55 11.88 M 176.42 51.48 C 185.62 44.86 189.91 36.03 211.19 11.48 M 176.42 51.48 C 183.64 41.89 192.8 32.83 211.19 11.48 M 181.41 51.84 C 188.15 43.02 201.29 26.1 216.18 11.84 M 181.41 51.84 C 194.46 36.16 207.4 20.83 216.18 11.84 M 187.05 51.45 C 196.92 43.83 205.64 33.63 221.82 11.45 M 187.05 51.45 C 197.31 39.74 210.57 23.48 221.82 11.45 M 192.04 51.81 C 202.5 35.97 215.41 27.06 226.81 11.81 M 192.04 51.81 C 200.41 43.06 207.1 36.46 226.81 11.81 M 197.68 51.41 C 201.52 47.68 208.63 34.19 232.45 11.41 M 197.68 51.41 C 211.38 36.48 220.15 23.56 232.45 11.41 M 202.67 51.77 C 210.08 42.53 228.3 23.99 237.44 11.77 M 202.67 51.77 C 216.53 37.98 228.37 22.38 237.44 11.77 M 208.31 51.38 C 215.88 43.13 230.11 32.25 243.08 11.38 M 208.31 51.38 C 222.24 38.99 232.89 24.14 243.08 11.38 M 213.3 51.74 C 222.08 37.33 228.26 29.85 248.07 11.74 M 213.3 51.74 C 227.09 38.24 240.24 21.57 248.07 11.74 M 218.94 51.34 C 227.78 45.93 238.37 32.39 253.71 11.34 M 218.94 51.34 C 232.78 37.4 241.08 26.52 253.71 11.34 M 223.93 51.7 C 231.74 39.68 237.34 35.27 258.7 11.7 M 223.93 51.7 C 233.08 41.57 242.8 28.44 258.7 11.7 M 229.57 51.31 C 237.51 43.13 254.76 23.5 264.34 11.31 M 229.57 51.31 C 239.96 41.26 247.45 30.42 264.34 11.31 M 234.56 51.67 C 242.11 40.54 249.96 31.57 269.33 11.67 M 234.56 51.67 C 243.17 38.53 252.1 29.22 269.33 11.67 M 240.2 51.27 C 249.28 40.06 261.21 25.71 274.97 11.27 M 240.2 51.27 C 249.18 43.54 255.49 33.96 274.97 11.27 M 245.19 51.63 C 259.66 35.6 266.57 27.73 279.96 11.63 M 245.19 51.63 C 253.34 43.1 261.96 32.56 279.96 11.63 M 250.83 51.24 C 264.05 33.8 278.78 24.23 284.95 11.99 M 250.83 51.24 C 265.48 37.92 277.48 19.32 284.95 11.99 M 255.82 51.6 C 262.17 37.38 272.73 30.61 290.59 11.6 M 255.82 51.6 C 268.59 36.3 282.53 21.15 290.59 11.6 M 261.46 51.2 C 278.91 37.45 288.01 16.44 295.58 11.96 M 261.46 51.2 C 269.51 41.99 281.62 30.56 295.58 11.96 M 266.45 51.57 C 277.34 44.68 287.31 30.34 301.22 11.57 M 266.45 51.57 C 276.14 40.15 286.7 25.69 301.22 11.57 M 272.09 51.17 C 283.57 40.36 297.02 21.71 306.21 11.93 M 272.09 51.17 C 279.13 40.37 285.59 34.92 306.21 11.93 M 277.08 51.53 C 287.12 44.99 288.21 34.75 311.85 11.53 M 277.08 51.53 C 285.32 39.73 294.67 30.92 311.85 11.53 M 282.72 51.14 C 298.93 39.31 306.76 23.81 316.84 11.89 M 282.72 51.14 C 292.57 41.96 298.22 30.49 316.84 11.89 M 287.71 51.5 C 297.71 44.06 304.11 34.9 322.48 11.5 M 287.71 51.5 C 296.01 42.31 303.65 34.79 322.48 11.5 M 293.35 51.1 C 309.99 39.68 319.18 19.83 327.47 11.86 M 293.35 51.1 C 305.72 36.26 315.44 22.9 327.47 11.86 M 298.34 51.46 C 307.49 37.74 326.55 24.98 333.11 11.46 M 298.34 51.46 C 309.31 38.41 324.4 21.48 333.11 11.46 M 303.33 51.82 C 314.28 37.53 327.56 26.37 338.1 11.82 M 303.33 51.82 C 315.55 35.18 327.94 22.88 338.1 11.82 M 308.97 51.43 C 318.2 40.11 324.11 30.4 343.74 11.43 M 308.97 51.43 C 320.32 40.55 333.17 24.2 343.74 11.43 M 313.96 51.79 C 318.76 45.77 328.39 34.79 348.73 11.79 M 313.96 51.79 C 327 35.32 337.92 21.77 348.73 11.79 M 319.6 51.39 C 330.79 40.78 335.07 33.07 354.37 11.39 M 319.6 51.39 C 328.11 41.91 340.43 27.78 354.37 11.39 M 324.59 51.75 C 334.73 39.59 348.89 26.79 359.36 11.75 M 324.59 51.75 C 334.1 39.36 342.75 31.18 359.36 11.75 M 330.23 51.36 C 337.81 43.39 340.05 34 365 11.36 M 330.23 51.36 C 341.22 39.05 351.51 27.48 365 11.36 M 335.22 51.72 C 338.28 45 347.59 32.22 369.99 11.72 M 335.22 51.72 C 345.88 36.89 357.94 24.87 369.99 11.72 M 340.86 51.32 C 345.93 44.48 358.33 32.03 375.63 11.32 M 340.86 51.32 C 349.13 39.8 359.13 28.79 375.63 11.32 M 345.85 51.68 C 359.15 35.65 367.07 25.57 380.62 11.68 M 345.85 51.68 C 358.98 36.73 370.04 22.83 380.62 11.68 M 351.49 51.29 C 360.92 42.85 372.97 25.3 386.26 11.29 M 351.49 51.29 C 361.53 39.39 371.51 27.6 386.26 11.29 M 356.48 51.65 C 366.89 42.1 373.6 35.2 391.25 11.65 M 356.48 51.65 C 363.28 41.75 371.21 34.09 391.25 11.65 M 362.12 51.25 C 372.61 43.57 377.55 31.38 396.23 12.01 M 362.12 51.25 C 373.65 39.27 380.68 29.25 396.23 12.01 M 367.11 51.61 C 378.28 36.95 387.08 28.56 401.88 11.62 M 367.11 51.61 C 372.86 44.8 381.1 32.69 401.88 11.62 M 372.75 51.22 C 387.92 33.35 400.71 22.06 406.86 11.98 M 372.75 51.22 C 381.78 42.08 388.65 34.58 406.86 11.98 M 377.74 51.58 C 386.27 40.31 401.32 25.58 412.51 11.58 M 377.74 51.58 C 386.72 40.78 398.73 29.69 412.51 11.58 M 383.38 51.19 C 397.76 36.15 412.59 19.61 417.49 11.94 M 383.38 51.19 C 389.18 42.68 396.06 32.44 417.49 11.94 M 388.37 51.55 C 398.38 42.54 411.32 29.46 423.14 11.55 M 388.37 51.55 C 398.19 39.83 410.83 26.4 423.14 11.55 M 394.01 51.15 C 400.2 37.94 408.04 29.3 428.12 11.91 M 394.01 51.15 C 406.35 36.36 416.44 22.83 428.12 11.91 M 399 51.51 C 411.17 38.7 419.73 29.06 433.77 11.51 M 399 51.51 C 408.2 36.88 420.09 23.93 433.77 11.51 M 404.64 51.12 C 414.71 45.85 420.71 34.78 438.75 11.87 M 404.64 51.12 C 417.08 36.15 431.22 22.29 438.75 11.87 M 409.63 51.48 C 422.99 42.1 425.57 28.56 444.4 11.48 M 409.63 51.48 C 416.82 42.1 425.72 29.62 444.4 11.48 M 414.61 51.84 C 419.44 40.09 431.98 37.39 449.38 11.84 M 414.61 51.84 C 421.66 44.36 430.74 31.55 449.38 11.84 M 420.26 51.44 C 431.84 36.33 447.22 23.34 455.03 11.44 M 420.26 51.44 C 430.67 35.69 444.8 23.85 455.03 11.44 M 425.24 51.8 C 432.83 41.37 441.69 28.45 460.01 11.8 M 425.24 51.8 C 436.03 38.68 446.52 26.59 460.01 11.8 M 430.89 51.41 C 438.59 38.88 453.53 31.72 465.66 11.41 M 430.89 51.41 C 437.85 43.88 444.38 36 465.66 11.41 M 435.87 51.77 C 440.9 39.69 453.29 37.13 470.64 11.77 M 435.87 51.77 C 447.57 37.42 462.8 22.09 470.64 11.77 M 441.52 51.37 C 453.42 33.67 471.19 19.47 476.29 11.37 M 441.52 51.37 C 454.7 36.11 467.94 21.7 476.29 11.37 M 446.5 51.73 C 454.98 39.93 464.98 32.64 481.27 11.73 M 446.5 51.73 C 457.29 39.04 469.58 28.18 481.27 11.73 M 452.15 51.34 C 462.09 39.93 469.28 32.65 486.92 11.34 M 452.15 51.34 C 460.26 42.66 468.3 28.4 486.92 11.34 M 457.13 51.7 C 466.85 37.06 483.07 19.28 491.9 11.7 M 457.13 51.7 C 468.03 40.22 477.95 28.22 491.9 11.7 M 462.78 51.3 C 468.24 45.77 474.21 35.17 497.55 11.3 M 462.78 51.3 C 469.07 42.41 477.92 35.14 497.55 11.3 M 467.76 51.66 C 475.4 39.11 493.65 27.4 502.53 11.66 M 467.76 51.66 C 476.35 42.06 487.19 28.98 502.53 11.66 M 473.41 51.27 C 486.38 34.93 494.91 23.63 508.18 11.27 M 473.41 51.27 C 485.38 36.11 497.4 21.86 508.18 11.27 M 478.39 51.63 C 485.62 39.99 497.45 30.25 513.17 11.63 M 478.39 51.63 C 491.24 39.72 501.37 26.29 513.17 11.63 M 484.04 51.24 C 492.56 44.06 499.46 28.68 518.15 11.99 M 484.04 51.24 C 495.23 40.32 504.41 27.51 518.15 11.99 M 489.02 51.6 C 495.75 40.06 508.11 36.51 523.8 11.6 M 489.02 51.6 C 500.82 38.53 517.02 21.16 523.8 11.6 M 494.67 51.2 C 508.41 43.34 517.43 26.97 528.78 11.96 M 494.67 51.2 C 508.17 35.42 521.92 21.23 528.78 11.96 M 499.65 51.56 C 512.27 33.6 526.08 21.79 534.43 11.56 M 499.65 51.56 C 512.28 38.9 523.19 20.65 534.43 11.56 M 505.3 51.17 C 514.17 40.54 533.24 22.31 539.41 11.92 M 505.3 51.17 C 513.95 42.99 521.27 32.81 539.41 11.92 M 510.28 51.53 C 517.77 42.54 533.72 26.35 545.06 11.53 M 510.28 51.53 C 522.05 38.03 530.49 27.66 545.06 11.53 M 515.93 51.13 C 528.35 39.83 541.48 19.59 550.04 11.89 M 515.93 51.13 C 524.95 40.18 537.34 26.86 550.04 11.89 M 520.91 51.49 C 533.52 40.28 535.5 30.91 555.69 11.49 M 520.91 51.49 C 532.61 36.55 543.95 23.48 555.69 11.49 M 525.9 51.85 C 536.16 37.55 553.1 20.77 560.67 11.85 M 525.9 51.85 C 535.07 42.19 543.72 32.32 560.67 11.85 M 531.54 51.46 C 543.11 39.71 550.91 28.7 566.32 11.46 M 531.54 51.46 C 542.6 36.92 555.17 22.24 566.32 11.46 M 536.53 51.82 C 540.71 46.7 553.01 34.23 571.3 11.82 M 536.53 51.82 C 546.42 38.25 559.66 24.13 571.3 11.82 M 542.17 51.42 C 551.11 37.18 559.05 33.39 576.95 11.42 M 542.17 51.42 C 554.29 37.04 563.73 24.49 576.95 11.42 M 547.16 51.78 C 560.2 41.28 565.36 25.52 581.93 11.78 M 547.16 51.78 C 557.02 37.01 572.44 22.86 581.93 11.78 M 552.8 51.39 C 558.55 45.93 571.12 32.55 587.58 11.39 M 552.8 51.39 C 561.82 43.4 570.49 34.44 587.58 11.39 M 557.79 51.75 C 562.65 42.25 571.76 36.43 592.56 11.75 M 557.79 51.75 C 571.13 36.78 582.68 25.99 592.56 11.75 M 563.43 51.35 C 576.83 40.05 586.26 27.61 598.21 11.35 M 563.43 51.35 C 571.57 40.54 583.85 29.27 598.21 11.35 M 568.42 51.71 C 578.77 46.06 583.93 33.24 603.19 11.71 M 568.42 51.71 C 580.9 36.31 592.29 22.46 603.19 11.71 M 574.06 51.32 C 589.26 38.35 596.2 21.68 608.84 11.32 M 574.06 51.32 C 583.88 39.03 593.62 27.22 608.84 11.32 M 579.05 51.68 C 589.31 42.02 599.33 28.09 613.82 11.68 M 579.05 51.68 C 589.59 39.18 599.65 28.99 613.82 11.68 M 584.69 51.28 C 593.72 40.67 601.88 27.95 619.47 11.29 M 584.69 51.28 C 597.71 38.04 607.57 26.15 619.47 11.29 M 589.68 51.64 C 601.32 41.56 606.4 28.23 624.45 11.65 M 589.68 51.64 C 598.47 41.57 605.56 29.97 624.45 11.65 M 595.32 51.25 C 604.67 33.03 622.09 19.05 629.44 12.01 M 595.32 51.25 C 602.37 41.57 610.1 31.89 629.44 12.01 M 600.31 51.61 C 606.62 45.1 619.91 34.91 635.08 11.61 M 600.31 51.61 C 607.14 41.72 614.48 34.78 635.08 11.61 M 605.96 51.22 C 615.04 38.94 620.73 33.14 640.07 11.97 M 605.96 51.22 C 618.72 37.97 631.76 25.22 640.07 11.97 M 610.94 51.58 C 616.43 45.63 628.65 30.95 645.71 11.58 M 610.94 51.58 C 620.43 38.46 632.47 28.44 645.71 11.58 M 616.59 51.18 C 626.74 45.04 633.08 29.68 650.7 11.94 M 616.59 51.18 C 631.26 36.36 643.07 22.92 650.7 11.94 M 621.57 51.54 C 632.03 43.93 639.1 35.97 656.34 11.54 M 621.57 51.54 C 632.91 36.67 645.77 24.99 656.34 11.54 M 627.22 51.15 C 639.51 34.45 657.36 17.15 661.33 11.9 M 627.22 51.15 C 638.26 41.36 647.63 28.28 661.33 11.9 M 632.2 51.51 C 641.55 41.33 648.27 35.11 666.97 11.51 M 632.2 51.51 C 643.59 41.86 649.4 30.12 666.97 11.51 M 637.85 51.11 C 645.6 42.66 658.44 29 671.96 11.87 M 637.85 51.11 C 643.88 42.21 651.19 32.33 671.96 11.87 M 642.83 51.47 C 651.48 45.58 657.09 32.95 677.6 11.47 M 642.83 51.47 C 648.74 42.93 659.99 31.91 677.6 11.47 M 647.82 51.83 C 663.12 36.69 671.89 27.74 682.59 11.83 M 647.82 51.83 C 655.88 44.06 664.64 32.75 682.59 11.83 M 653.46 51.44 C 659.98 37.13 669.77 27.78 688.23 11.44 M 653.46 51.44 C 660.51 44.04 667.45 32.68 688.23 11.44 M 658.45 51.8 C 669.48 35.48 684.42 24.9 693.22 11.8 M 658.45 51.8 C 666.57 40.24 676.53 26.81 693.22 11.8 M 664.09 51.4 C 674.43 35.9 687.46 22.33 698.86 11.4 M 664.09 51.4 C 678.69 36.76 689.68 21.17 698.86 11.4 M 669.08 51.76 C 678.66 36.65 696.12 23.23 703.85 11.76 M 669.08 51.76 C 678.65 38.53 691.54 28.79 703.85 11.76 M 674.72 51.37 C 684.85 40.08 696.51 26.64 709.49 11.37 M 674.72 51.37 C 685.08 35.89 698.04 24.35 709.49 11.37 M 679.71 51.73 C 689.81 36.74 696.87 29.62 714.48 11.73 M 679.71 51.73 C 689.35 40.13 701.08 25.59 714.48 11.73 M 685.35 51.33 C 697.46 37.95 702.09 29.81 720.12 11.33 M 685.35 51.33 C 698.22 37.05 706.9 25.02 720.12 11.33 M 690.34 51.69 C 698.61 41.15 713.55 24.78 725.11 11.7 M 690.34 51.69 C 697.41 41.49 707.47 30.32 725.11 11.7 M 695.98 51.3 C 709.07 36.04 718.59 28.18 730.75 11.3 M 695.98 51.3 C 703.97 41.69 712.43 30.8 730.75 11.3 M 700.97 51.66 C 712.63 40.16 725.63 19.33 735.74 11.66 M 700.97 51.66 C 713.76 34.64 728.52 22.69 735.74 11.66 M 706.61 51.27 C 712.42 44.19 720.99 34.45 741.38 11.27 M 706.61 51.27 C 718.82 36.07 728.68 25.13 741.38 11.27 M 711.6 51.63 C 723.09 36.74 739.92 17.55 746.37 11.63 M 711.6 51.63 C 724.36 37.3 737.6 23.07 746.37 11.63 M 717.24 51.23 C 726.93 38.89 735.31 25.13 751.36 11.99 M 717.24 51.23 C 730.6 37.97 740.29 22.22 751.36 11.99 M 722.23 51.59 C 734.79 37.51 746.32 24.41 757 11.59 M 722.23 51.59 C 728.73 41.37 739.89 33.05 757 11.59 M 727.87 51.2 C 736.04 37.89 741.91 30.34 761.99 11.95 M 727.87 51.2 C 734.78 40.88 740.71 34.09 761.99 11.95 M 732.86 51.56 C 745.77 37.79 755.66 22.54 767.63 11.56 M 732.86 51.56 C 742.82 36.77 757.36 23.21 767.63 11.56 M 738.5 51.16 C 746.13 42.07 759.93 29.13 772.62 11.92 M 738.5 51.16 C 747.31 37.66 761.08 28.32 772.62 11.92 M 743.49 51.52 C 748.93 44.54 761.28 35.25 778.26 11.52 M 743.49 51.52 C 755.78 36.67 768.66 18.4 778.26 11.52 M 749.13 51.13 C 764.65 36.57 774.62 21.37 783.25 11.88 M 749.13 51.13 C 762.29 36.91 775.85 22.49 783.25 11.88 M 754.12 51.49 C 762.47 45.44 766.32 31.52 788.89 11.49 M 754.12 51.49 C 764.41 38.86 776.41 27.08 788.89 11.49 M 759.11 51.85 C 764.74 43.96 772.82 33.12 793.88 11.85 M 759.11 51.85 C 768.07 39.27 778.19 29.09 793.88 11.85 M 764.75 51.45 C 771.16 45.02 778.25 34.23 799.52 11.45 M 764.75 51.45 C 775.3 39.33 788.35 22.91 799.52 11.45 M 769.74 51.81 C 775.26 38.42 787.69 32.01 804.51 11.81 M 769.74 51.81 C 777.56 42.07 788.29 33.26 804.51 11.81 M 775.38 51.42 C 781.32 42.07 795.64 33.5 810.15 11.42 M 775.38 51.42 C 781.82 42.54 790.49 35.03 810.15 11.42 M 780.37 51.78 C 789.93 38.77 792.85 34.43 815.14 11.78 M 780.37 51.78 C 791.98 36.63 804.86 24.18 815.14 11.78 M 786.01 51.38 C 797.31 40.09 810.78 29.14 820.78 11.38 M 786.01 51.38 C 790.92 44.33 800.63 34.95 820.78 11.38 M 791 51.74 C 802.59 43.03 810.32 25.2 825.77 11.74 M 791 51.74 C 798.14 43.81 807.43 31.91 825.77 11.74 M 796.64 51.35 C 803.97 43.44 808.05 34.85 831.41 11.35 M 796.64 51.35 C 810.44 38.61 819.96 23.23 831.41 11.35 M 801.63 51.71 C 814.15 32.69 825.89 17.65 836.4 11.71 M 801.63 51.71 C 811.37 42.52 817.24 31.5 836.4 11.71 M 807.27 51.32 C 814.64 44.13 824.89 32.97 842.04 11.32 M 807.27 51.32 C 820.41 37.25 832.24 25.44 842.04 11.32 M 812.26 51.68 C 824.16 36.72 834.56 21.57 847.03 11.68 M 812.26 51.68 C 822.58 38.87 834.61 24.27 847.03 11.68 M 817.9 51.28 C 826.8 44.09 832.6 28.75 852.67 11.28 M 817.9 51.28 C 825.84 43.42 833.55 33.41 852.67 11.28 M 822.89 51.64 C 837.17 43.57 846.98 27.25 857.66 11.64 M 822.89 51.64 C 831.37 39.82 841.93 31.32 857.66 11.64 M 828.53 51.25 C 837.42 34.57 850.25 22.05 862.65 12 M 828.53 51.25 C 843.66 35.97 854.93 21.96 862.65 12 M 833.52 51.61 C 841.93 41.16 852.59 29.43 868.29 11.61 M 833.52 51.61 C 846.08 35.53 860.62 24 868.29 11.61 M 839.16 51.21 C 848.69 42.56 853.74 36.52 873.28 11.97 M 839.16 51.21 C 850.1 37.45 865.05 23.69 873.28 11.97 M 844.15 51.57 C 847.65 45.08 856.94 31.53 878.92 11.57 M 844.15 51.57 C 858.91 36.81 868.44 21.29 878.92 11.57 M 849.79 51.18 C 863.02 34.62 879.45 17.67 883.91 11.93 M 849.79 51.18 C 861.09 37.41 872.72 26.15 883.91 11.93 M 854.78 51.54 C 858.94 42.21 871.61 29.25 889.55 11.54 M 854.78 51.54 C 868.4 35.27 883.77 21.97 889.55 11.54 M 860.42 51.14 C 874.2 38.37 884.91 24.07 894.54 11.9 M 860.42 51.14 C 867.38 43.03 876.3 29.17 894.54 11.9 M 865.41 51.5 C 880.63 37.69 894.97 17.57 900.18 11.5 M 865.41 51.5 C 880.42 37.77 890.75 23.05 900.18 11.5 M 871.05 51.11 C 877.5 44.19 884.15 34.52 905.17 11.86 M 871.05 51.11 C 880.05 40.86 886.72 31.02 905.17 11.86 M 876.04 51.47 C 882.49 38.93 896.1 22.72 910.81 11.47 M 876.04 51.47 C 890.09 35.77 903.14 21.2 910.81 11.47 M 881.03 51.83 C 896.6 41.14 906.4 23.36 915.8 11.83 M 881.03 51.83 C 889.76 41.35 900.15 32.61 915.8 11.83 M 886.67 51.43 C 893.75 39.24 903.02 29.85 921.44 11.43 M 886.67 51.43 C 898.84 40.18 910.37 23.48 921.44 11.43 M 891.66 51.79 C 904.29 39.84 911.38 31.82 926.43 11.79 M 891.66 51.79 C 899.63 41.82 910.12 29.31 926.43 11.79 M 897.3 51.4 C 909.72 38.38 921.46 19.53 932.07 11.4 M 897.3 51.4 C 910.12 39.91 920.25 25.97 932.07 11.4 M 902.29 51.76 C 909.84 40.36 920.27 31.12 937.06 11.76 M 902.29 51.76 C 911.78 40.78 921.96 28.11 937.06 11.76 M 907.93 51.36 C 916.22 40.79 921.42 30.04 942.7 11.37 M 907.93 51.36 C 916.32 41.72 923.99 33.61 942.7 11.37 M 912.92 51.72 C 917.36 45.48 929.62 32.37 947.69 11.73 M 912.92 51.72 C 920.72 39.39 930.62 29.84 947.69 11.73 M 918.56 51.33 C 931.92 34.41 944.16 24.15 953.33 11.33 M 918.56 51.33 C 927.42 38.57 940.59 24.52 953.33 11.33 M 923.55 51.69 C 938.66 37.66 952.19 23.35 958.32 11.69 M 923.55 51.69 C 931.23 42.24 938.73 33.75 958.32 11.69 M 929.19 51.3 C 944.12 41.41 951.43 27.86 963.96 11.3 M 929.19 51.3 C 937.19 38.65 949.42 27.09 963.96 11.3 M 934.18 51.66 C 945.14 37.43 959.11 18.93 968.95 11.66 M 934.18 51.66 C 945.12 43.75 953.23 31.95 968.95 11.66 M 939.82 51.26 C 953.19 35.47 965.51 23.66 974.59 11.26 M 939.82 51.26 C 950.57 37.41 963.26 23.91 974.59 11.26 M 944.81 51.62 C 955.92 40.81 969.76 22.45 979.58 11.62 M 944.81 51.62 C 957.91 35.14 969.24 20.32 979.58 11.62 M 950.45 51.23 C 954.71 43.11 961.48 36.08 984.56 11.98 M 950.45 51.23 C 962.8 36.73 975.4 23.3 984.56 11.98 M 955.44 51.59 C 969.53 38.06 977.54 20.5 990.21 11.59 M 955.44 51.59 C 962.87 43.07 974.02 29.2 990.21 11.59 M 961.08 51.19 C 967.32 39.43 977.37 34.73 995.19 11.95 M 961.08 51.19 C 974.28 35.6 985.28 20.94 995.19 11.95 M 966.07 51.55 C 977.2 41.56 989.24 26.79 1000.84 11.55 M 966.07 51.55 C 974.57 37.24 985.4 26.95 1000.84 11.55 M 971.71 51.16 C 982.2 35.34 997.07 22.54 1005.82 11.91 M 971.71 51.16 C 986.96 37.13 998.68 20.32 1005.82 11.91 M 976.7 51.52 C 985.31 40.53 996.38 36.86 1011.47 11.52 M 976.7 51.52 C 985.83 42.94 991.93 32.54 1011.47 11.52 M 982.34 51.12 C 998.9 38.5 1007.66 19.95 1016.45 11.88 M 982.34 51.12 C 991.08 39.39 999.32 30.61 1016.45 11.88 M 987.33 51.48 C 997.26 39.69 1014.08 18.76 1022.1 11.48 M 987.33 51.48 C 997.41 40.71 1008.39 27.19 1022.1 11.48 M 992.31 51.84 C 998.71 36.41 1013.83 31.94 1027.08 11.84 M 992.31 51.84 C 1001.08 42.03 1010.36 33.59 1027.08 11.84 M 997.96 51.45 C 1007 37.99 1021.77 27.78 1032.73 11.45 M 997.96 51.45 C 1009.65 38.32 1020.61 26.33 1032.73 11.45 M 1002.94 51.81 C 1011.65 42.92 1020.72 31.84 1037.71 11.81 M 1002.94 51.81 C 1010.05 42.03 1019.76 31.77 1037.71 11.81 M 1008.59 51.41 C 1017.78 36.34 1024.7 30.14 1043.36 11.41 M 1008.59 51.41 C 1017.5 41.75 1028.34 26.61 1043.36 11.41 M 1013.57 51.77 C 1027.34 36.49 1038.52 25.63 1048.34 11.78 M 1013.57 51.77 C 1026 40.16 1035.19 25.85 1048.34 11.78 M 1019.22 51.38 C 1030.91 43.42 1037.83 28.87 1053.99 11.38 M 1019.22 51.38 C 1031 38.81 1043.81 25.51 1053.99 11.38 M 1024.2 51.74 C 1037.04 41.57 1042.52 30.61 1058.97 11.74 M 1024.2 51.74 C 1035.16 38.63 1044.83 29.22 1058.97 11.74 M 1029.85 51.35 C 1035.12 39.26 1050.14 35.32 1064.62 11.35 M 1029.85 51.35 C 1043.28 35.33 1055.71 21.55 1064.62 11.35 M 1034.83 51.71 C 1047.18 36.52 1056.68 30.96 1069.6 11.71 M 1034.83 51.71 C 1043.17 42.89 1051.52 29.53 1069.6 11.71 M 1040.48 51.31 C 1050.77 44.75 1053.91 34.69 1075.25 11.31 M 1040.48 51.31 C 1051.37 41.96 1062.06 29.05 1075.25 11.31 M 1045.46 51.67 C 1055.82 36.76 1068.3 28.9 1080.23 11.67 M 1045.46 51.67 C 1053.94 40.6 1061.81 31.58 1080.23 11.67 M 1051.11 51.28 C 1063.26 38.84 1073.05 23.28 1085.88 11.28 M 1051.11 51.28 C 1058.88 40.42 1070.74 28.37 1085.88 11.28 M 1056.09 51.64 C 1069.27 36.98 1083.49 18.99 1090.86 11.64 M 1056.09 51.64 C 1065.7 42.49 1069.94 34.29 1090.86 11.64 M 1061.74 51.24 C 1068.59 37.81 1081.55 23.91 1095.85 12 M 1061.74 51.24 C 1071 40.19 1081.48 30.89 1095.85 12 M 1066.72 51.6 C 1076.89 35.55 1088.16 28.41 1101.49 11.6 M 1066.72 51.6 C 1077.9 38.85 1087.72 27.11 1101.49 11.6 M 1072.37 51.21 C 1082.88 45.79 1092.74 35.56 1106.48 11.96 M 1072.37 51.21 C 1081.86 37.42 1091.78 29.08 1106.48 11.96 M 1077.35 51.57 C 1085.4 36.92 1094.04 31.43 1112.12 11.57 M 1077.35 51.57 C 1086.94 37.84 1098.35 28.38 1112.12 11.57 M 1083 51.17 C 1093.38 34.07 1107.84 22.22 1117.11 11.93 M 1083 51.17 C 1097.02 37.5 1107.47 20.15 1117.11 11.93 M 1087.98 51.53 C 1094.19 46.4 1102.28 32.2 1122.76 11.53 M 1087.98 51.53 C 1097.43 39.03 1108.54 26.83 1122.76 11.53 M 1093.63 51.14 C 1108.8 34.23 1115.84 20.62 1127.74 11.89 M 1093.63 51.14 C 1107.69 35.54 1121.69 21.83 1127.74 11.89 M 1098.61 51.5 C 1108.23 44.8 1113.13 31.35 1133.39 11.5 M 1098.61 51.5 C 1108.5 41.22 1113.96 33.45 1133.39 11.5 M 1104.26 51.1 C 1112.83 40.07 1122.07 26.9 1138.37 11.86 M 1104.26 51.1 C 1116.71 36.76 1127.44 21.04 1138.37 11.86 M 1109.24 51.46 C 1125.72 36.38 1131.76 17.98 1144.02 11.46 M 1109.24 51.46 C 1118.7 40.02 1128.98 31.02 1144.02 11.46 M 1114.23 51.82 C 1124.06 44.38 1129.49 33.05 1149 11.82 M 1114.23 51.82 C 1120.75 40.91 1129.15 33.98 1149 11.82 M 1119.87 51.43 C 1135.99 35.68 1143.14 20.44 1154.65 11.43 M 1119.87 51.43 C 1132.29 40.9 1140.15 27.16 1154.65 11.43 M 1124.86 51.79 C 1135.56 40.18 1149.67 28.82 1159.63 11.79 M 1124.86 51.79 C 1133.21 38.88 1146.65 27.72 1159.63 11.79 M 1130.5 51.4 C 1141.92 39.33 1147.37 30.2 1165.28 11.4 M 1130.5 51.4 C 1144.41 36.71 1157.23 23.92 1165.28 11.4 M 1135.49 51.76 C 1150.91 35.13 1161.95 22.99 1170.26 11.76 M 1135.49 51.76 C 1148.97 35.64 1161.43 21.64 1170.26 11.76 M 1141.13 51.36 C 1151.93 43.42 1159.66 35.19 1175.91 11.36 M 1141.13 51.36 C 1148.71 42.37 1158.94 32.36 1175.91 11.36 M 1146.12 51.72 C 1155.15 41.08 1169.54 25.71 1180.89 11.72 M 1146.12 51.72 C 1156.6 39.1 1168.76 25.3 1180.89 11.72 M 1151.76 51.33 C 1159.18 36.92 1176.62 29.19 1186.54 11.33 M 1151.76 51.33 C 1162.81 41.38 1170.19 31.19 1186.54 11.33 M 1156.75 51.69 C 1169.26 40.12 1181.16 22.42 1191.52 11.69 M 1156.75 51.69 C 1165.1 40.38 1176.7 30.54 1191.52 11.69 M 1162.39 51.29 C 1169.25 41.68 1178.98 27.87 1197.17 11.29 M 1162.39 51.29 C 1173.26 35.3 1187.31 20.11 1197.17 11.29 M 1167.38 51.65 C 1176.54 44.45 1180.56 33.64 1202.15 11.65 M 1167.38 51.65 C 1180.73 35.46 1194.92 20.96 1202.15 11.65 M 1173.02 51.26 C 1188.81 39.27 1196.82 19.92 1207.14 12.01 M 1173.02 51.26 C 1184.94 38.55 1195.13 22.99 1207.14 12.01 M 1178.01 51.62 C 1188.81 35.11 1204.48 21.75 1212.78 11.62 M 1178.01 51.62 C 1186.93 38.1 1197.74 25.04 1212.78 11.62 M 1183.65 51.22 C 1199.77 32.62 1209.88 19.58 1217.77 11.98 M 1183.65 51.22 C 1192.45 42.75 1200.26 31.01 1217.77 11.98 M 1188.64 51.58 C 1199.32 42.05 1206.97 35 1223.41 11.58 M 1188.64 51.58 C 1200.69 37.54 1211.29 25.65 1223.41 11.58 M 1194.28 51.19 C 1201.33 44.82 1209.28 34.84 1228.4 11.94 M 1194.28 51.19 C 1201.96 42.52 1212.34 34.39 1228.4 11.94 M 1199.27 51.55 C 1211.25 35.87 1220.33 19.35 1234.04 11.55 M 1199.27 51.55 C 1212.74 36.99 1225.88 22.69 1234.04 11.55 M 1204.91 51.15 C 1215.04 40.03 1231.73 28.09 1239.03 11.91 M 1204.91 51.15 C 1213.82 40.66 1222.06 30.04 1239.03 11.91 M 1209.9 51.51 C 1224.66 40.24 1234.62 18.79 1244.67 11.51 M 1209.9 51.51 C 1220.91 36.32 1232.3 23.7 1244.67 11.51 M 1215.55 51.12 C 1230.2 38.58 1242.08 22.16 1249.66 11.87 M 1215.55 51.12 C 1228.71 38.06 1240.69 24.05 1249.66 11.87 M 1220.53 51.48 C 1229.73 43.53 1238.56 31 1255.3 11.48 M 1220.53 51.48 C 1233.61 37.41 1247.26 21.24 1255.3 11.48 M 1225.52 51.84 C 1238.18 38.52 1247.69 30.74 1260.29 11.84 M 1225.52 51.84 C 1234.37 40.61 1245.37 30.1 1260.29 11.84 M 1231.16 51.44 C 1240.86 41.57 1247.64 34.16 1265.93 11.45 M 1231.16 51.44 C 1240.46 41.38 1248.12 30.08 1265.93 11.45 M 1236.15 51.8 C 1252.7 35.82 1264.25 23.2 1270.92 11.81 M 1236.15 51.8 C 1249.22 40.3 1257.29 27.95 1270.92 11.81 M 1241.79 51.41 C 1248.08 39.08 1256.7 36.3 1276.56 11.41 M 1241.79 51.41 C 1249.42 40.76 1256.84 31.45 1276.56 11.41 M 1246.78 51.77 C 1256.53 36.84 1273.9 23.42 1281.55 11.77 M 1246.78 51.77 C 1256.42 41.78 1266.67 28.16 1281.55 11.77 M 1252.42 51.38 C 1256.06 43.03 1269.76 36.73 1287.19 11.38 M 1252.42 51.38 C 1262.18 40.9 1271.58 30.35 1287.19 11.38 M 1257.41 51.74 C 1272.04 37.5 1283.69 26.16 1292.18 11.74 M 1257.41 51.74 C 1266.98 40.61 1278.6 23.45 1292.18 11.74 M 1263.05 51.34 C 1272.83 34.46 1288.9 21.82 1297.82 11.34 M 1263.05 51.34 C 1270.75 40.8 1282.18 28.47 1297.82 11.34 M 1268.04 51.7 C 1281.24 42.59 1287.96 32.06 1302.81 11.7 M 1268.04 51.7 C 1277.63 39.6 1290.35 24.82 1302.81 11.7 M 1273.68 51.31 C 1289.02 39.14 1296.45 19.66 1308.45 11.31 M 1273.68 51.31 C 1281.15 40.46 1292.85 31.46 1308.45 11.31 M 1278.67 51.67 C 1290.32 41.77 1299.89 31.59 1313.44 11.67 M 1278.67 51.67 C 1284.76 42.37 1295.2 35.05 1313.44 11.67 M 1284.31 51.27 C 1293.88 34.65 1312.89 23.15 1319.08 11.27 M 1284.31 51.27 C 1297.48 33.71 1310.21 21.84 1319.08 11.27 M 1289.3 51.63 C 1304.13 40.21 1309.86 27.74 1324.07 11.63 M 1289.3 51.63 C 1301.76 35.75 1314.71 23.15 1324.07 11.63 M 1294.94 51.24 C 1302.32 45.84 1309.94 37.65 1329.06 11.99 M 1294.94 51.24 C 1307.98 36.67 1316.32 23.66 1329.06 11.99 M 1299.93 51.6 C 1315.38 34.5 1324.85 19.95 1334.7 11.6 M 1299.93 51.6 C 1306.88 43.23 1312.91 33.77 1334.7 11.6 M 1305.57 51.2 C 1320.2 39.63 1330.12 31.15 1339.69 11.96 M 1305.57 51.2 C 1317.52 37.31 1328.76 27.01 1339.69 11.96 M 1310.56 51.56 C 1320.76 38.16 1333.38 21.54 1345.33 11.56 M 1310.56 51.56 C 1320 39.71 1330.54 29.99 1345.33 11.56 M 1316.2 51.17 C 1328.82 38.64 1341.87 24.64 1350.32 11.92 M 1316.2 51.17 C 1324.91 43.76 1332.86 33.94 1350.32 11.92 M 1321.19 51.53 C 1335.81 38.75 1346.46 24.93 1355.96 11.53 M 1321.19 51.53 C 1329.89 40.7 1342.82 26.5 1355.96 11.53 M 1326.83 51.13 C 1335.79 35.49 1349.62 30.06 1360.95 11.89 M 1326.83 51.13 C 1339.48 36.74 1351.79 22.04 1360.95 11.89 M 1331.82 51.49 C 1348.02 35.5 1356.62 23.17 1366.59 11.49 M 1331.82 51.49 C 1340.68 39.76 1347.65 31 1366.59 11.49 M 1337.46 51.1 C 1347.34 39.87 1350.94 33.48 1371.58 11.85 M 1337.46 51.1 C 1347.75 41.12 1354.88 31.51 1371.58 11.85 M 1342.45 51.46 C 1351.45 40.35 1360.69 27.01 1377.22 11.46 M 1342.45 51.46 C 1353.79 39.06 1364.53 26.87 1377.22 11.46 M 1347.44 51.82 C 1361.38 38.73 1369.87 27.01 1382.21 11.82 M 1347.44 51.82 C 1354.07 42.24 1362.21 30.43 1382.21 11.82 M 1353.08 51.43 C 1359.06 40.7 1374.95 27.68 1387.85 11.43 M 1353.08 51.43 C 1364.35 40.18 1373.13 27.84 1387.85 11.43 M 1358.07 51.79 C 1366.89 35.42 1377.78 24.7 1392.84 11.79 M 1358.07 51.79 C 1370.37 38.75 1379.6 23.44 1392.84 11.79 M 1363.71 51.39 C 1375.45 43.6 1378.95 33.08 1398.48 11.39 M 1363.71 51.39 C 1373.54 43.95 1379.53 33.92 1398.48 11.39 M 1368.7 51.75 C 1380.91 37.3 1392.13 25.03 1403.47 11.75 M 1368.7 51.75 C 1378.31 38.43 1385.51 30.79 1403.47 11.75 M 1374.34 51.36 C 1389.47 38.21 1403.08 22.18 1409.11 11.36 M 1374.34 51.36 C 1383 41.23 1390.58 34.14 1409.11 11.36 M 1379.33 51.72 C 1383.79 41.26 1397.19 37.23 1414.1 11.72 M 1379.33 51.72 C 1390.44 38.55 1403.37 25.41 1414.1 11.72 M 1384.97 51.32 C 1398.06 35.74 1403.62 25.03 1419.74 11.32 M 1384.97 51.32 C 1397.45 39.49 1405.63 25.15 1419.74 11.32 M 1389.96 51.68 C 1404.69 34.27 1411.58 25.58 1424.73 11.68 M 1389.96 51.68 C 1402.06 36.79 1414.86 19.68 1424.73 11.68 M 1395.6 51.29 C 1401.68 43.09 1411.78 32.35 1430.37 11.29 M 1395.6 51.29 C 1406.55 40.42 1415.4 28.78 1430.37 11.29 M 1400.59 51.65 C 1413.68 40.33 1424.59 28.44 1435.36 11.65 M 1400.59 51.65 C 1409.74 39.86 1419.24 29.95 1435.36 11.65 M 1406.23 51.25 C 1414.61 40.06 1428.07 29 1440.35 12.01 M 1406.23 51.25 C 1416.49 37.02 1429.15 21.53 1440.35 12.01 M 1411.22 51.61 C 1421.6 45.38 1427.85 35.05 1445.99 11.61 M 1411.22 51.61 C 1421.43 41.5 1430.48 30.64 1445.99 11.61 M 1416.86 51.22 C 1428.42 40.09 1443.56 21.84 1450.98 11.97 M 1416.86 51.22 C 1425.25 43.57 1433.29 31.16 1450.98 11.97 M 1421.85 51.58 C 1434.21 32.39 1448.41 20.71 1456.62 11.58 M 1421.85 51.58 C 1436.45 37.65 1448.34 21.39 1456.62 11.58 M 1427.49 51.18 C 1435.99 39.2 1452.79 21.79 1461.61 11.94 M 1427.49 51.18 C 1435.21 41.34 1442.83 32.57 1461.61 11.94 M 1432.48 51.54 C 1438.16 38.41 1447.09 35.82 1467.25 11.54 M 1432.48 51.54 C 1438.23 43.52 1447.14 32.04 1467.25 11.54 M 1438.12 51.15 C 1447.04 35.67 1460.67 23.12 1472.24 11.9 M 1438.12 51.15 C 1448.44 37.31 1459.31 24.97 1472.24 11.9 M 1443.11 51.51 C 1450.81 35.98 1467.79 23.22 1477.88 11.51 M 1443.11 51.51 C 1456.31 38.9 1468.53 24.09 1477.88 11.51 M 1448.75 51.12 C 1462.89 35.2 1475.45 16.35 1482.87 11.87 M 1448.75 51.12 C 1456.45 42.65 1465.47 34.39 1482.87 11.87 M 1453.74 51.48 C 1464.58 37.11 1473.25 26.27 1488.51 11.48 M 1453.74 51.48 C 1462.71 43.04 1470.19 33.43 1488.51 11.48 M 1458.72 51.84 C 1464.61 40.52 1474.22 25.64 1493.5 11.84 M 1458.72 51.84 C 1464.72 41.03 1474.91 34.75 1493.5 11.84 M 1464.37 51.44 C 1469.44 40.08 1481.36 31.56 1499.14 11.44 M 1464.37 51.44 C 1478.53 35.8 1491.05 19.6 1499.14 11.44 M 1469.36 51.8 C 1482.52 34.17 1489.82 21 1504.13 11.8 M 1469.36 51.8 C 1477.44 38.88 1490.2 29.94 1504.13 11.8 M 1475 51.41 C 1480.13 41.25 1488.34 28.79 1509.77 11.41 M 1475 51.41 C 1486.53 35.04 1501.28 23.15 1509.77 11.41 M 1479.99 51.77 C 1490.98 44.69 1498.83 30.51 1514.76 11.77 M 1479.99 51.77 C 1490.16 43.48 1496.1 31.23 1514.76 11.77 M 1485.63 51.37 C 1494.49 39.23 1502.19 30.91 1520.4 11.37 M 1485.63 51.37 C 1495.81 39.3 1507.65 24.28 1520.4 11.37 M 1490.62 51.73 C 1505.06 38.45 1517.68 25.37 1525.39 11.73 M 1490.62 51.73 C 1502.1 37.15 1515.15 24.12 1525.39 11.73 M 1496.26 51.34 C 1510.54 35.97 1517.73 27.16 1531.03 11.34 M 1496.26 51.34 C 1507.39 37.1 1518.23 24.17 1531.03 11.34 M 1501.25 51.7 C 1513.79 41.12 1527.58 25.07 1536.02 11.7 M 1501.25 51.7 C 1509.92 40.04 1519.85 30.91 1536.02 11.7 M 1506.89 51.3 C 1511.6 46.42 1518.69 32.86 1541.66 11.3 M 1506.89 51.3 C 1518.97 37.6 1531.18 23.68 1541.66 11.3 M 1511.88 51.66 C 1522.48 36.79 1533.48 20.53 1546.65 11.66 M 1511.88 51.66 C 1521.95 38.33 1531.59 26.96 1546.65 11.66 M 1517.52 51.27 C 1525.48 35.65 1533.83 26.38 1552.29 11.27 M 1517.52 51.27 C 1528.14 41.39 1537.92 30.04 1552.29 11.27 M 1522.51 51.63 C 1533.38 36.88 1543.04 27 1557.28 11.63 M 1522.51 51.63 C 1530.95 41.6 1543.65 30.03 1557.28 11.63 M 1528.15 51.23 C 1536.7 40.45 1554.17 23.12 1562.26 11.99 M 1528.15 51.23 C 1540.48 37.92 1548.96 26.63 1562.26 11.99 M 1533.14 51.59 C 1548.46 39.04 1556.12 26.96 1567.91 11.59 M 1533.14 51.59 C 1544.5 42.68 1552.51 32.12 1567.91 11.59 M 1538.78 51.2 C 1543.54 41.64 1555.76 26.63 1572.89 11.95 M 1538.78 51.2 C 1546.65 40.49 1556.05 30.9 1572.89 11.95 M 1543.77 51.56 C 1552.24 40.42 1560.9 31.38 1578.54 11.56 M 1543.77 51.56 C 1557.83 36.43 1566.62 26.25 1578.54 11.56 M 1549.41 51.16 C 1560.2 44.45 1563.4 30.81 1583.52 11.92 M 1549.41 51.16 C 1564.37 37.38 1575.42 23.21 1583.52 11.92 M 1554.4 51.52 C 1564.71 37.65 1572.48 23.73 1589.17 11.53 M 1554.4 51.52 C 1567.1 39.7 1577.82 26.47 1589.17 11.53 M 1560.04 51.13 C 1567.3 45.25 1572.19 33.39 1594.15 11.89 M 1560.04 51.13 C 1568.7 40.8 1577.83 30.13 1594.15 11.89 M 1565.03 51.49 C 1571.83 36.21 1586.76 25.31 1599.8 11.49 M 1565.03 51.49 C 1571.33 43.4 1581.14 35.84 1599.8 11.49 M 1570.01 51.85 C 1578.71 35.23 1597.3 23.67 1604.78 11.85 M 1570.01 51.85 C 1579.01 40.81 1587.18 31.47 1604.78 11.85 M 1575.66 51.46 C 1584.91 39.69 1601.45 28.53 1610.43 11.46 M 1575.66 51.46 C 1585.75 39.05 1595.11 29.05 1610.43 11.46 M 1580.64 51.82 C 1587.6 40.52 1598.52 31.45 1615.41 11.82 M 1580.64 51.82 C 1595.72 35.4 1606.7 22.19 1615.41 11.82 M 1586.29 51.42 C 1595.13 47.32 1598.89 34.46 1621.06 11.42 M 1586.29 51.42 C 1599.54 36.2 1607.72 25.82 1621.06 11.42 M 1591.27 51.78 C 1599.22 41.89 1610.51 29.65 1626.04 11.78 M 1591.27 51.78 C 1599.76 42.27 1608.02 31.48 1626.04 11.78 M 1596.92 51.39 C 1607.8 47.01 1608.02 37.85 1631.69 11.39 M 1596.92 51.39 C 1609.56 37.01 1618.98 25.5 1631.69 11.39 M 1601.9 51.75 C 1610.92 39.19 1626.71 31.46 1636.67 11.75 M 1601.9 51.75 C 1611.98 38.01 1622.69 26.58 1636.67 11.75 M 1607.55 51.35 C 1622.54 34.18 1632.8 21.93 1642.32 11.35 M 1607.55 51.35 C 1619.49 37.69 1632.05 24.45 1642.32 11.35 M 1612.53 51.71 C 1620.81 43.57 1626.89 34.34 1647.3 11.71 M 1612.53 51.71 C 1622.9 43.82 1629.53 34.37 1647.3 11.71 M 1618.18 51.32 C 1630.04 39.89 1632.99 34.58 1652.95 11.32 M 1618.18 51.32 C 1627.33 39.07 1637.82 26.69 1652.95 11.32 M 1623.16 51.68 C 1635.76 36.41 1649.12 27.03 1657.93 11.68 M 1623.16 51.68 C 1637.17 37.54 1650.66 21.37 1657.93 11.68 M 1628.81 51.28 C 1642.65 37.27 1652.37 22.78 1663.58 11.28 M 1628.81 51.28 C 1645.11 33.38 1657.54 18.62 1663.58 11.28 M 1633.79 51.64 C 1645.2 38.62 1663.79 18.74 1668.56 11.64 M 1633.79 51.64 C 1640.3 43.03 1646.66 35.11 1668.56 11.64 M 1639.44 51.25 C 1650.68 37.87 1664.33 17.19 1673.55 12 M 1639.44 51.25 C 1645.09 41.68 1656.05 34.62 1673.55 12 M 1644.42 51.61 C 1649.94 39.94 1663.28 32.55 1679.19 11.61 M 1644.42 51.61 C 1657.03 38.18 1664.44 28.13 1679.19 11.61 M 1650.07 51.21 C 1662.56 39.9 1669.67 23.22 1684.18 11.97 M 1650.07 51.21 C 1662.54 38.59 1673.71 21.27 1684.18 11.97 M 1655.05 51.57 C 1668.69 36.2 1681.34 22.62 1689.82 11.57 M 1655.05 51.57 C 1662 41.49 1671.46 32.63 1689.82 11.57 M 1660.7 51.18 C 1676.41 39.36 1684.59 26.08 1694.81 11.93 M 1660.7 51.18 C 1671.37 38.19 1679.97 27.73 1694.81 11.93 M 1665.68 51.54 C 1677.58 40.13 1692.95 20.99 1700.45 11.54 M 1665.68 51.54 C 1679.74 33.5 1693.2 17.81 1700.45 11.54 M 1671.33 51.15 C 1680.4 41.95 1688.53 33.17 1705.44 11.9 M 1671.33 51.15 C 1678.5 42.18 1686.34 34.03 1705.44 11.9 M 1676.31 51.51 C 1682.87 42.69 1695.77 26.97 1711.08 11.51 M 1676.31 51.51 C 1685.48 40.76 1692.47 33.9 1711.08 11.51 M 1681.96 51.11 C 1689.22 37.18 1703.62 25.05 1716.07 11.87 M 1681.96 51.11 C 1691.69 38.22 1706.58 25.1 1716.07 11.87 M 1686.94 51.47 C 1699 38.15 1706.25 32.16 1721.71 11.47 M 1686.94 51.47 C 1700.63 34.47 1712.36 22.76 1721.71 11.47 M 1691.93 51.83 C 1700.05 36.84 1716.77 24.91 1726.7 11.83 M 1691.93 51.83 C 1700.41 41.45 1708.13 31.84 1726.7 11.83 M 1697.57 51.44 C 1708.1 43.23 1720.14 31.58 1732.35 11.44 M 1697.57 51.44 C 1708.77 39.83 1717.76 27.26 1732.35 11.44 M 1702.56 51.8 C 1715.14 38.96 1720.78 24.13 1737.33 11.8 M 1702.56 51.8 C 1714.99 38.54 1727.6 24.63 1737.33 11.8 M 1708.2 51.4 C 1715.92 43.15 1728.52 33.81 1742.98 11.4 M 1708.2 51.4 C 1719.33 37.29 1731.6 20.54 1742.98 11.4 M 1713.19 51.76 C 1722.32 47.82 1730.26 32.58 1747.96 11.76 M 1713.19 51.76 C 1725.9 35.44 1739.02 19.38 1747.96 11.76 M 1718.83 51.37 C 1729 37.59 1740.78 26.83 1753.61 11.37 M 1718.83 51.37 C 1727.19 41.49 1734.76 32.89 1753.61 11.37 M 1723.82 51.73 C 1734.62 44.05 1738.43 33.73 1758.59 11.73 M 1723.82 51.73 C 1736.28 37.04 1752.12 22.11 1758.59 11.73 M 1729.46 51.33 C 1736.96 37.5 1754.11 30.95 1764.24 11.33 M 1729.46 51.33 C 1739.72 40.92 1745.84 31.49 1764.24 11.33 M 1734.45 51.69 C 1742.32 41.13 1759.37 24.88 1769.22 11.69 M 1734.45 51.69 C 1745.92 38.21 1754.73 27.9 1769.22 11.69 M 1740.09 51.3 C 1746.19 41.52 1760.03 27.11 1774.87 11.3 M 1740.09 51.3 C 1747.33 42.09 1755.02 32.51 1774.87 11.3 M 1745.08 51.66 C 1755.06 45.43 1760.3 33.23 1779.85 11.66 M 1745.08 51.66 C 1751.9 43.89 1760.29 32.83 1779.85 11.66 M 1750.72 51.26 C 1764.34 36.95 1770.96 29.95 1785.5 11.26 M 1750.72 51.26 C 1762.79 34.93 1777.06 18.56 1785.5 11.26 M 1755.71 51.62 C 1767.84 34.62 1779.17 22.27 1790.48 11.62 M 1755.71 51.62 C 1768.53 36.82 1783.8 21.84 1790.48 11.62 M 1761.35 51.23 C 1771.82 39.06 1782.47 23.34 1795.47 11.98 M 1761.35 51.23 C 1772.87 39.45 1781.09 25.55 1795.47 11.98 M 1766.34 51.59 C 1780.56 32.79 1795.7 22.93 1801.11 11.59 M 1766.34 51.59 C 1776.34 40.58 1787.05 27.67 1801.11 11.59 M 1771.98 51.2 C 1784.55 34.98 1797.97 23.22 1806.1 11.95 M 1771.98 51.2 C 1782.33 39.74 1792.02 27.75 1806.1 11.95 M 1776.97 51.56 C 1789.5 37.54 1800.78 21.45 1809.77 13.82 M 1776.97 51.56 C 1783.12 41.31 1791.77 33.18 1809.77 13.82 M 1782.61 51.16 C 1790.93 40.15 1795.25 32.85 1811.48 17.95 M 1782.61 51.16 C 1791.11 39.34 1802 28.68 1811.48 17.95 M 1787.6 51.52 C 1792.68 37.95 1805.6 33.74 1811.22 24.35 M 1787.6 51.52 C 1793.94 43.7 1798.96 39.33 1811.22 24.35 M 1793.24 51.13 C 1802.69 44.88 1806.32 36.04 1811.61 29.99 M 1793.24 51.13 C 1798.03 46.08 1800.34 42.67 1811.61 29.99 M 1798.23 51.49 C 1799.2 45 1809.47 40.51 1811.35 36.39 M 1798.23 51.49 C 1804.14 46.09 1808.03 40.01 1811.35 36.39 M 1803.22 51.85 C 1807.55 49.08 1807.74 46.46 1811.75 42.04 M 1803.22 51.85 C 1805.72 49.92 1807.77 48.02 1811.75 42.04" fill="none" stroke="#00c900" stroke-width="0.5" stroke-linejoin="round" stroke-linecap="round" stroke-miterlimit="10" pointer-events="all" style="stroke: rgb(0, 201, 0);"/></g><g><g transform="translate(-0.5 -0.5)"><switch><foreignObject style="overflow: visible; text-align: left;" pointer-events="none" width="100%" height="100%" requiredFeatures="http://www.w3.org/TR/SVG11/feature#Extensibility"><div xmlns="http://www.w3.org/1999/xhtml" style="display: flex; align-items: unsafe center; justify-content: unsafe center; width: 1712px; height: 1px; padding-top: 31px; margin-left: 98px;"><div style="box-sizing: border-box; font-size: 0; text-align: center; color: #000000; "><div style="display: inline-block; font-size: 52px; font-family: &quot;Helvetica&quot;; color: light-dark(#000000, #ffffff); line-height: 1.2; pointer-events: all; white-space: normal; word-wrap: normal; "><font>Mentalités et conflits Circoncis / <u>In</u>circoncis   et  transition 2ème/3ème fiat</font></div></div></div></foreignObject><text x="954" y="47" fill="light-dark(#000000, #ffffff)" font-family="&quot;Helvetica&quot;" font-size="52px" text-anchor="middle">Mentalités et conflits Circoncis / Incirconcis   et  transition 2è...</text></switch></g></g></g></g><g data-cell-id="TOHtLk_aAoYDnxtBrWts-22"><g id="cell-TOHtLk_aAoYDnxtBrWts-22"><g><rect x="1092" y="342" width="590" height="87" fill="none" stroke="none" pointer-events="all"/></g><g><g transform="translate(-0.5 -0.5)"><switch><foreignObject style="overflow: visible; text-align: left;" pointer-events="none" width="100%" height="100%" requiredFeatures="http://www.w3.org/TR/SVG11/feature#Extensibility"><div xmlns="http://www.w3.org/1999/xhtml" style="display: flex; align-items: unsafe center; justify-content: unsafe center; width: 588px; height: 1px; padding-top: 385px; margin-left: 1093px;"><div style="box-sizing: border-box; font-size: 0; text-align: center; color: #FF0080; "><div style="display: inline-block; font-size: 16px; font-family: &quot;Helvetica&quot;; color: #FF0080; line-height: 1.2; pointer-events: all; white-space: normal; word-wrap: normal; "><font style="font-size: 34px;"><b><font style="color: rgb(255, 255, 102);">phase de transition 2ème fiat --&gt; 3ème fiat</font></b><br /></font></div></div></div></foreignObject><text x="1387" y="390" fill="#FF0080" font-family="&quot;Helvetica&quot;" font-size="16px" text-anchor="middle">phase de transition 2ème fiat --&gt; 3ème fiat&#xa;</text></switch></g></g></g></g><g data-cell-id="FVbyVy5mqckSKn0n1atq-3"><g id="cell-FVbyVy5mqckSKn0n1atq-3"><g><rect x="950" y="465" width="110.25" height="60.5" fill="none" stroke="none" pointer-events="all"/></g><g><g transform="translate(-0.5 -0.5)"><switch><foreignObject style="overflow: visible; text-align: left;" pointer-events="none" width="100%" height="100%" requiredFeatures="http://www.w3.org/TR/SVG11/feature#Extensibility"><div xmlns="http://www.w3.org/1999/xhtml" style="display: flex; align-items: unsafe flex-start; justify-content: unsafe flex-start; width: 108px; height: 1px; padding-top: 472px; margin-left: 952px;"><div style="box-sizing: border-box; font-size: 0; text-align: left; color: #fffffe; "><div style="display: inline-block; font-size: 38px; font-family: &quot;Helvetica&quot;; color: #fffffe; line-height: 1.2; pointer-events: all; white-space: normal; word-wrap: normal; ">⛈️🌩️</div></div></div></foreignObject><text x="952" y="510" fill="#fffffe" font-family="&quot;Helvetica&quot;" font-size="38px">⛈️🌩️</text></switch></g></g></g></g><g data-cell-id="FVbyVy5mqckSKn0n1atq-5"><g id="cell-FVbyVy5mqckSKn0n1atq-5"><g><rect x="426" y="647" width="65" height="98" fill="#00000000" stroke="#00000000" pointer-events="all" style="fill: rgba(0, 0, 0, 0); stroke: rgba(0, 0, 0, 0);"/></g><g><g transform="translate(-0.5 -0.5)"><switch><foreignObject style="overflow: visible; text-align: left;" pointer-events="none" width="100%" height="100%" requiredFeatures="http://www.w3.org/TR/SVG11/feature#Extensibility"><div xmlns="http://www.w3.org/1999/xhtml" style="display: flex; align-items: unsafe center; justify-content: unsafe center; width: 63px; height: 1px; padding-top: 696px; margin-left: 427px;"><div style="box-sizing: border-box; font-size: 0; text-align: center; color: #00ff00; "><div style="display: inline-block; font-size: 20px; font-family: &quot;Helvetica&quot;; color: #00ff00; line-height: 1.2; pointer-events: all; white-space: normal; word-wrap: normal; "><font>plus grande amplitude émotionnelle<br /> </font><font>que le Circoncis<br />mais aussi plus à même d'aller vers des excitations sexuelles</font><font>.</font></div></div></div></foreignObject><text x="459" y="702" fill="#00ff00" font-family="&quot;Helvetica&quot;" font-size="20px" text-anchor="middle">plus gr...</text></switch></g></g></g></g><g data-cell-id="FVbyVy5mqckSKn0n1atq-9"><g id="cell-FVbyVy5mqckSKn0n1atq-9"><g><rect x="437" y="240" width="80" height="30" fill="none" stroke="none" pointer-events="all"/></g><g><g transform="translate(-0.5 -0.5)"><switch><foreignObject style="overflow: visible; text-align: left;" pointer-events="none" width="100%" height="100%" requiredFeatures="http://www.w3.org/TR/SVG11/feature#Extensibility"><div xmlns="http://www.w3.org/1999/xhtml" style="display: flex; align-items: unsafe center; justify-content: unsafe center; width: 78px; height: 1px; padding-top: 255px; margin-left: 438px;"><div style="box-sizing: border-box; font-size: 0; text-align: center; color: #fffffe; "><div style="display: inline-block; font-size: 20px; font-family: &quot;Helvetica&quot;; color: #fffffe; line-height: 1.2; pointer-events: all; white-space: normal; word-wrap: normal; "><font style="color: rgb(127, 85, 255);">j'estime qu'il s'agit en particulier des Judaïsants, qui n'ont pas "le feu" (c'est-à-dire une libido) comme les Incirconcis.<br /></font></div></div></div></foreignObject><text x="477" y="261" fill="#fffffe" font-family="&quot;Helvetica&quot;" font-size="20px" text-anchor="middle">j'estime...</text></switch></g></g></g></g><g data-cell-id="iw_edr1DaMoM8EyNuh5Y-3"><g id="cell-iw_edr1DaMoM8EyNuh5Y-3"><g><path d="M 1098 271 L 1690.63 271.99" fill="none" stroke="#dddedd" stroke-miterlimit="10" pointer-events="stroke" style="stroke: rgb(221, 222, 221);"/><path d="M 1695.88 272 L 1688.88 275.49 L 1690.63 271.99 L 1688.89 268.49 Z" fill="#dddedd" stroke="#dddedd" stroke-miterlimit="10" pointer-events="all" style="fill: rgb(221, 222, 221); stroke: rgb(221, 222, 221);"/></g></g></g><g data-cell-id="iw_edr1DaMoM8EyNuh5Y-4"><g id="cell-iw_edr1DaMoM8EyNuh5Y-4"><g><path d="M 1100 759 L 1692.63 759.99" fill="none" stroke="#dddedd" stroke-miterlimit="10" pointer-events="stroke" style="stroke: rgb(221, 222, 221);"/><path d="M 1697.88 760 L 1690.88 763.49 L 1692.63 759.99 L 1690.89 756.49 Z" fill="#dddedd" stroke="#dddedd" stroke-miterlimit="10" pointer-events="all" style="fill: rgb(221, 222, 221); stroke: rgb(221, 222, 221);"/></g></g></g><g data-cell-id="iw_edr1DaMoM8EyNuh5Y-5"><g id="cell-iw_edr1DaMoM8EyNuh5Y-5"><g><rect x="1095" y="232" width="590" height="30" fill="none" stroke="none" pointer-events="all"/></g><g><g transform="translate(-0.5 -0.5)"><switch><foreignObject style="overflow: visible; text-align: left;" pointer-events="none" width="100%" height="100%" requiredFeatures="http://www.w3.org/TR/SVG11/feature#Extensibility"><div xmlns="http://www.w3.org/1999/xhtml" style="display: flex; align-items: unsafe center; justify-content: unsafe center; width: 588px; height: 1px; padding-top: 247px; margin-left: 1096px;"><div style="box-sizing: border-box; font-size: 0; text-align: center; color: #fffffe; "><div style="display: inline-block; font-size: 12px; font-family: &quot;Helvetica&quot;; color: #fffffe; line-height: 1.2; pointer-events: all; white-space: normal; word-wrap: normal; "><font style="font-size: 22px;">conversion/transition plutôt du temps du </font><font style="font-size: 42px;">Machia'h</font><font style="font-size: 22px;">?</font></div></div></div></foreignObject><text x="1390" y="251" fill="#fffffe" font-family="&quot;Helvetica&quot;" font-size="12px" text-anchor="middle">conversion/transition plutôt du temps du Machia'h?</text></switch></g></g></g></g><g data-cell-id="iw_edr1DaMoM8EyNuh5Y-6"><g id="cell-iw_edr1DaMoM8EyNuh5Y-6"><g><rect x="1107" y="761" width="570" height="30" fill="none" stroke="none" pointer-events="all"/></g><g><g transform="translate(-0.5 -0.5)"><switch><foreignObject style="overflow: visible; text-align: left;" pointer-events="none" width="100%" height="100%" requiredFeatures="http://www.w3.org/TR/SVG11/feature#Extensibility"><div xmlns="http://www.w3.org/1999/xhtml" style="display: flex; align-items: unsafe center; justify-content: unsafe center; width: 568px; height: 1px; padding-top: 776px; margin-left: 1108px;"><div style="box-sizing: border-box; font-size: 0; text-align: center; color: #fffffe; "><div style="display: inline-block; font-size: 12px; font-family: &quot;Helvetica&quot;; color: #fffffe; line-height: 1.2; pointer-events: all; white-space: normal; word-wrap: normal; "><font style="font-size: 22px;">conversion/transition plutôt du temps du </font><font style="font-size: 42px;">Mahdi</font><font style="font-size: 22px;">?</font></div></div></div></foreignObject><text x="1392" y="780" fill="#fffffe" font-family="&quot;Helvetica&quot;" font-size="12px" text-anchor="middle">conversion/transition plutôt du temps du Mahdi?</text></switch></g></g></g></g></g></g></g><switch><g requiredFeatures="http://www.w3.org/TR/SVG11/feature#Extensibility"/><a transform="translate(0,-5)" xlink:href="https://www.drawio.com/doc/faq/svg-export-text-problems" target="_blank"><text text-anchor="middle" font-size="10px" x="50%" y="100%">Text is not SVG - cannot display</text></a></switch></svg>