<?xml version="1.0" encoding="UTF-8" standalone="no"?>
<svg
   width="16"
   height="16"
   fill="currentColor"
   class="bi bi-pause"
   viewBox="0 0 16 16"
   version="1.1"
   id="svg1"
   sodipodi:docname="pause_with_cassette5.svg"
   inkscape:version="1.4 (86a8ad7, 2024-10-11)"
   xmlns:inkscape="http://www.inkscape.org/namespaces/inkscape"
   xmlns:sodipodi="http://sodipodi.sourceforge.net/DTD/sodipodi-0.dtd"
   xmlns="http://www.w3.org/2000/svg"
   xmlns:svg="http://www.w3.org/2000/svg">
  <defs
     id="defs1" />
  <sodipodi:namedview
     id="namedview1"
     pagecolor="#505050"
     bordercolor="#eeeeee"
     borderopacity="1"
     inkscape:showpageshadow="0"
     inkscape:pageopacity="0"
     inkscape:pagecheckerboard="0"
     inkscape:deskcolor="#d1d1d1"
     inkscape:zoom="50.513941"
     inkscape:cx="7.4335915"
     inkscape:cy="6.3051901"
     inkscape:window-width="2560"
     inkscape:window-height="1424"
     inkscape:window-x="-11"
     inkscape:window-y="-11"
     inkscape:window-maximized="1"
     inkscape:current-layer="svg1"
     inkscape:export-bgcolor="#ff1515e7" />
  <path
     d="m 6.8297003,4.050343 a 0.30247317,0.30247317 0 0 1 0.3024732,0.3024732 v 4.8395699 a 0.3024732,0.3024732 0 0 1 -0.6049464,0 V 4.3528162 A 0.30247317,0.30247317 0 0 1 6.8297003,4.050343 m 2.4197852,0 a 0.30247317,0.30247317 0 0 1 0.3024733,0.3024732 v 4.8395699 a 0.30247317,0.30247317 0 0 1 -0.6049463,0 V 4.3528162 A 0.30247317,0.30247317 0 0 1 9.2494855,4.050343"
     id="path1"
     style="stroke-width:0.604948;fill:#999999" />
  <path
     id="path2"
     style="stroke-width:0.997666;fill:#999999"
     d="M 1.5253906,2.3222656 A 1.4964989,1.4964989 0 0 0 0.02929688,3.8203125 V 12.798828 A 1.4964989,1.4964989 0 0 0 1.5253906,14.294922 H 14.494141 a 1.4964989,1.4964989 0 0 0 1.498047,-1.496094 V 3.8203125 A 1.4964989,1.4964989 0 0 0 14.494141,2.3222656 Z m 0,0.9980469 H 14.494141 a 0.49883297,0.49883297 0 0 1 0.5,0.5 v 8.9785155 a 0.49883297,0.49883297 0 0 1 -0.5,0.498047 h -0.6875 l -0.578125,-1.152344 c -0.06337,0.0065 -0.131021,0.0098 -0.201172,0.0098 h -0.113282 -0.224609 -0.308594 -0.261718 l 0.570312,1.142578 H 3.3300781 L 3.890625,12.175781 H 2.7753906 l -0.5625,1.121094 h -0.6875 A 0.49883297,0.49883297 0 0 1 1.0273438,12.798828 V 3.8203125 a 0.49883297,0.49883297 0 0 1 0.4980468,-0.5 z m 3.6347656,6.9843755 c -0.00375,0.0035 -0.00797,0.0061 -0.011719,0.0098 h 0.023437 c 0.00366,-0.0032 0.00816,-0.0067 0.011719,-0.0098 z" />
</svg>
