<?xml version="1.0" encoding="UTF-8" standalone="no"?>
<svg
   width="16"
   height="16"
   fill="currentColor"
   class="bi bi-play"
   viewBox="0 0 16 16"
   version="1.1"
   id="svg1"
   sodipodi:docname="play_with_cassette2.svg"
   inkscape:version="1.4 (86a8ad7, 2024-10-11)"
   xmlns:inkscape="http://www.inkscape.org/namespaces/inkscape"
   xmlns:sodipodi="http://sodipodi.sourceforge.net/DTD/sodipodi-0.dtd"
   xmlns="http://www.w3.org/2000/svg"
   xmlns:svg="http://www.w3.org/2000/svg">
  <defs
     id="defs1" />
  <sodipodi:namedview
     id="namedview1"
     pagecolor="#505050"
     bordercolor="#eeeeee"
     borderopacity="1"
     inkscape:showpageshadow="0"
     inkscape:pageopacity="0"
     inkscape:pagecheckerboard="0"
     inkscape:deskcolor="#d1d1d1"
     inkscape:zoom="71.4375"
     inkscape:cx="8"
     inkscape:cy="8.0139983"
     inkscape:window-width="2560"
     inkscape:window-height="1424"
     inkscape:window-x="-11"
     inkscape:window-y="-11"
     inkscape:window-maximized="1"
     inkscape:current-layer="svg1" />
  <path
     d="M 10.40395,6.4181978 6.6158144,4.2206353 v 4.3951251 z m 0.51692,-0.454263 a 0.52344673,0.52344673 0 0 1 0,0.908526 L 6.7678881,9.2821436 C 6.4284962,9.4792517 5.9631377,9.2540779 5.9631377,8.8278801 V 4.0085153 c 0,-0.4261979 0.4653585,-0.6513713 0.8047504,-0.454263 z"
     id="path1"
     style="stroke-width:0.652677;fill:#999999" />
  <path
     d="M 1.5227414,1.8433946 A 1.4964989,1.4964989 0 0 0 0.02624672,3.3398939 V 12.318887 A 1.4964989,1.4964989 0 0 0 1.5227414,13.815388 H 14.492403 a 1.4964989,1.4964989 0 0 0 1.496495,-1.496501 V 3.3398939 A 1.4964989,1.4964989 0 0 0 14.492403,1.8433946 Z M 1.0239098,3.3398939 A 0.49883297,0.49883297 0 0 1 1.5227414,2.8410608 H 14.492403 a 0.49883297,0.49883297 0 0 1 0.498833,0.4988331 V 12.318887 A 0.49883297,0.49883297 0 0 1 14.492403,12.81772 H 13.803014 L 12.444193,10.100078 A 0.49883297,0.49883297 0 0 0 11.998239,9.8247242 H 4.016906 A 0.49883297,0.49883297 0 0 0 3.5709529,10.100078 L 2.2111322,12.81772 H 1.5227414 A 0.49883297,0.49883297 0 0 1 1.0239098,12.318887 Z m 10.6660462,7.4824951 0.99767,1.995331 H 3.3275194 l 0.9976701,-1.995331 z"
     id="path2"
     style="stroke-width:0.997666;fill:#999999" />
</svg>
