<?xml version="1.0" encoding="UTF-8"?>
<!-- Do not edit this file with editors other than draw.io -->
<!DOCTYPE svg PUBLIC "-//W3C//DTD SVG 1.1//EN" "http://www.w3.org/Graphics/SVG/1.1/DTD/svg11.dtd">
<svg xmlns="http://www.w3.org/2000/svg" xmlns:xlink="http://www.w3.org/1999/xlink" version="1.1" width="1151px" height="321px" viewBox="-0.5 -0.5 1151 321" content="&lt;mxfile host=&quot;Electron&quot; agent=&quot;Mozilla/5.0 (Windows NT 10.0; Win64; x64) AppleWebKit/537.36 (KHTML, like Gecko) draw.io/24.7.17 Chrome/128.0.6613.36 Electron/32.0.1 Safari/537.36&quot; version=&quot;24.7.17&quot;&gt;&#10;  &lt;diagram name=&quot;Page-1&quot; id=&quot;MeEjG-JU6hH94AwSO4gy&quot;&gt;&#10;    &lt;mxGraphModel dx=&quot;1724&quot; dy=&quot;1090&quot; grid=&quot;1&quot; gridSize=&quot;10&quot; guides=&quot;1&quot; tooltips=&quot;1&quot; connect=&quot;1&quot; arrows=&quot;1&quot; fold=&quot;1&quot; page=&quot;1&quot; pageScale=&quot;1&quot; pageWidth=&quot;1169&quot; pageHeight=&quot;827&quot; math=&quot;0&quot; shadow=&quot;0&quot;&gt;&#10;      &lt;root&gt;&#10;        &lt;mxCell id=&quot;0&quot; /&gt;&#10;        &lt;mxCell id=&quot;1&quot; parent=&quot;0&quot; /&gt;&#10;        &lt;mxCell id=&quot;3O4y-KfbGrVBriH-kvUl-1&quot; value=&quot;&quot; style=&quot;rounded=1;strokeColor=#79796a;fontColor=#fffffe;fillColor=#242415;&quot; parent=&quot;1&quot; vertex=&quot;1&quot;&gt;&#10;          &lt;mxGeometry x=&quot;130&quot; y=&quot;230&quot; width=&quot;1150&quot; height=&quot;320&quot; as=&quot;geometry&quot; /&gt;&#10;        &lt;/mxCell&gt;&#10;        &lt;mxCell id=&quot;3O4y-KfbGrVBriH-kvUl-3&quot; value=&quot;&quot; style=&quot;outlineConnect=0;dashed=0;verticalLabelPosition=bottom;verticalAlign=top;align=center;shape=mxgraph.aws3.bucket;fillColor=#00A352;gradientColor=none;strokeColor=#79796a;fontColor=#fffffe;&quot; parent=&quot;1&quot; vertex=&quot;1&quot;&gt;&#10;          &lt;mxGeometry x=&quot;169&quot; y=&quot;330&quot; width=&quot;811&quot; height=&quot;209&quot; as=&quot;geometry&quot; /&gt;&#10;        &lt;/mxCell&gt;&#10;        &lt;mxCell id=&quot;3O4y-KfbGrVBriH-kvUl-5&quot; value=&quot;Haut du panier : grand(e)s saint(e)s, &amp;lt;span style=&amp;quot;font-size: 14px;&amp;quot;&amp;gt;auxquel(le)s aurait vraiment parlé Dieu&amp;lt;/span&amp;gt;. Par exemple : Luisa Piccarreta, ou autre fille alitée&quot; style=&quot;text;align=center;verticalAlign=middle;rounded=1;fontColor=#fffffe;whiteSpace=wrap;labelBackgroundColor=none;html=1;fontSize=14;fillColor=#00000040;&quot; parent=&quot;1&quot; vertex=&quot;1&quot;&gt;&#10;          &lt;mxGeometry x=&quot;455&quot; y=&quot;335&quot; width=&quot;405&quot; height=&quot;40&quot; as=&quot;geometry&quot; /&gt;&#10;        &lt;/mxCell&gt;&#10;        &lt;mxCell id=&quot;3O4y-KfbGrVBriH-kvUl-8&quot; value=&quot;Restant du &amp;quot;panier&amp;quot;&amp;lt;br&amp;gt;Je peux concevoir que des gens ayant une certaine exigence, un certain respect pour la religion, ne purent pas se satisfaire du &amp;quot;Catholique&amp;quot; moyen.&amp;lt;br&amp;gt;Et cette insatisfaction pourrait même me sembler signifier que quelqu&amp;#39;un(e) a une certaine noblesse.&quot; style=&quot;text;align=center;verticalAlign=middle;rounded=1;fontColor=#fffffe;whiteSpace=wrap;fontSize=14;html=1;fillColor=#00000080;&quot; parent=&quot;1&quot; vertex=&quot;1&quot;&gt;&#10;          &lt;mxGeometry x=&quot;420&quot; y=&quot;400&quot; width=&quot;350&quot; height=&quot;120&quot; as=&quot;geometry&quot; /&gt;&#10;        &lt;/mxCell&gt;&#10;        &lt;mxCell id=&quot;3O4y-KfbGrVBriH-kvUl-9&quot; value=&quot;De base, quelqu&amp;#39;un(e) de meilleure qualité que le Catholique moyen, vraiment des fois par noblesse/respect d&amp;#39;une authenticité, peut en arriver à mettre de côté tout le catholicisme, et ce faisant, rejete aussi divers saints et ce faisant, passe à côté d&amp;#39;une partie de ce qu&amp;#39;aurait transmis Dieu...&quot; style=&quot;text;align=center;verticalAlign=middle;rounded=1;fontColor=#fffffe;whiteSpace=wrap;fontSize=16;fillColor=#990000;&quot; parent=&quot;1&quot; vertex=&quot;1&quot;&gt;&#10;          &lt;mxGeometry x=&quot;160&quot; y=&quot;270&quot; width=&quot;1030&quot; height=&quot;40&quot; as=&quot;geometry&quot; /&gt;&#10;        &lt;/mxCell&gt;&#10;        &lt;mxCell id=&quot;3O4y-KfbGrVBriH-kvUl-10&quot; value=&quot;Intelligence de se méfier d&amp;#39;une partie des &amp;quot;Catholiques&amp;quot;, mais aussi danger de rejeter tout le catholicisme sans distinction&quot; style=&quot;text;align=center;verticalAlign=middle;rounded=1;fontColor=#fffffe;whiteSpace=wrap;fontSize=20;labelBackgroundColor=none;fillColor=#006600;sketch=1;curveFitting=1;jiggle=2;&quot; parent=&quot;1&quot; vertex=&quot;1&quot;&gt;&#10;          &lt;mxGeometry x=&quot;160&quot; y=&quot;233&quot; width=&quot;1079&quot; height=&quot;30&quot; as=&quot;geometry&quot; /&gt;&#10;        &lt;/mxCell&gt;&#10;        &lt;mxCell id=&quot;3O4y-KfbGrVBriH-kvUl-11&quot; value=&quot;Catholique moyen&quot; style=&quot;text;align=center;verticalAlign=middle;rounded=0;fontColor=#fffffe;&quot; parent=&quot;1&quot; vertex=&quot;1&quot;&gt;&#10;          &lt;mxGeometry x=&quot;330&quot; y=&quot;440&quot; width=&quot;60&quot; height=&quot;30&quot; as=&quot;geometry&quot; /&gt;&#10;        &lt;/mxCell&gt;&#10;        &lt;mxCell id=&quot;3O4y-KfbGrVBriH-kvUl-12&quot; value=&quot;grandes figures du catholicisme (par ex. Hildegarde de bingen), Mystiques&quot; style=&quot;text;align=center;verticalAlign=middle;rounded=0;fontColor=#fffffe;whiteSpace=wrap;&quot; parent=&quot;1&quot; vertex=&quot;1&quot;&gt;&#10;          &lt;mxGeometry x=&quot;229&quot; y=&quot;340&quot; width=&quot;231&quot; height=&quot;30&quot; as=&quot;geometry&quot; /&gt;&#10;        &lt;/mxCell&gt;&#10;        &lt;mxCell id=&quot;3O4y-KfbGrVBriH-kvUl-13&quot; value=&quot;Danger&quot; style=&quot;shadow=0;dashed=0;shape=mxgraph.bootstrap.rrect;rSize=5;strokeColor=none;strokeWidth=1;fillColor=#990000;fontColor=#FFFFFF;align=left;verticalAlign=middle;spacingLeft=0;fontStyle=1;fontSize=14;spacing=5;&quot; parent=&quot;1&quot; vertex=&quot;1&quot;&gt;&#10;          &lt;mxGeometry x=&quot;1210&quot; y=&quot;300&quot; width=&quot;60&quot; height=&quot;20&quot; as=&quot;geometry&quot; /&gt;&#10;        &lt;/mxCell&gt;&#10;        &lt;mxCell id=&quot;3O4y-KfbGrVBriH-kvUl-14&quot; value=&quot;Autrement rédigé, le danger c&amp;#39;est de se dégouter du catholicisme à cause des &amp;quot;95%&amp;quot;, et de louper les 5%&quot; style=&quot;text;align=center;verticalAlign=middle;rounded=0;fontColor=#fffffe;whiteSpace=wrap;fontSize=14;&quot; parent=&quot;1&quot; vertex=&quot;1&quot;&gt;&#10;          &lt;mxGeometry x=&quot;1011&quot; y=&quot;350&quot; width=&quot;269&quot; height=&quot;30&quot; as=&quot;geometry&quot; /&gt;&#10;        &lt;/mxCell&gt;&#10;        &lt;mxCell id=&quot;3O4y-KfbGrVBriH-kvUl-15&quot; value=&quot;&quot; style=&quot;endArrow=classic;rounded=0;strokeColor=#dddedd;fontColor=#fffffe;fillColor=#242416;&quot; parent=&quot;1&quot; edge=&quot;1&quot;&gt;&#10;          &lt;mxGeometry width=&quot;50&quot; height=&quot;50&quot; relative=&quot;1&quot; as=&quot;geometry&quot;&gt;&#10;            &lt;mxPoint x=&quot;1073&quot; y=&quot;448&quot; as=&quot;sourcePoint&quot; /&gt;&#10;            &lt;mxPoint x=&quot;1081&quot; y=&quot;397&quot; as=&quot;targetPoint&quot; /&gt;&#10;          &lt;/mxGeometry&gt;&#10;        &lt;/mxCell&gt;&#10;        &lt;mxCell id=&quot;3O4y-KfbGrVBriH-kvUl-16&quot; value=&quot;Chiffre donné à titre approximatif, voire très approximatif&quot; style=&quot;text;align=center;verticalAlign=middle;rounded=0;fontColor=#fffffe;whiteSpace=wrap;&quot; parent=&quot;1&quot; vertex=&quot;1&quot;&gt;&#10;          &lt;mxGeometry x=&quot;1034&quot; y=&quot;470&quot; width=&quot;135&quot; height=&quot;30&quot; as=&quot;geometry&quot; /&gt;&#10;        &lt;/mxCell&gt;&#10;        &lt;mxCell id=&quot;DDhN5DSaP5eOaKILaRLJ-1&quot; value=&quot;&amp;quot;bébé&amp;quot;&quot; style=&quot;shape=umlActor;verticalLabelPosition=bottom;verticalAlign=top;outlineConnect=0;strokeColor=#FFFFFE;fontColor=#fffffe;fillColor=#242415;&quot; vertex=&quot;1&quot; parent=&quot;1&quot;&gt;&#10;          &lt;mxGeometry x=&quot;885&quot; y=&quot;339&quot; width=&quot;15&quot; height=&quot;30&quot; as=&quot;geometry&quot; /&gt;&#10;        &lt;/mxCell&gt;&#10;        &lt;mxCell id=&quot;DDhN5DSaP5eOaKILaRLJ-2&quot; value=&quot;eau du bain&quot; style=&quot;text;align=center;verticalAlign=middle;rounded=0;fontColor=#fffffe;&quot; vertex=&quot;1&quot; parent=&quot;1&quot;&gt;&#10;          &lt;mxGeometry x=&quot;800&quot; y=&quot;426&quot; width=&quot;60&quot; height=&quot;30&quot; as=&quot;geometry&quot; /&gt;&#10;        &lt;/mxCell&gt;&#10;        &lt;mxCell id=&quot;DDhN5DSaP5eOaKILaRLJ-3&quot; value=&quot;&quot; style=&quot;shape=curlyBracket;rounded=1;labelPosition=left;verticalLabelPosition=middle;align=right;verticalAlign=middle;strokeColor=#FFFFFE;fontColor=#fffffe;fillColor=#242415;rotation=-150;strokeWidth=3;&quot; vertex=&quot;1&quot; parent=&quot;1&quot;&gt;&#10;          &lt;mxGeometry x=&quot;888.75&quot; y=&quot;334.67&quot; width=&quot;20&quot; height=&quot;214&quot; as=&quot;geometry&quot; /&gt;&#10;        &lt;/mxCell&gt;&#10;        &lt;mxCell id=&quot;DDhN5DSaP5eOaKILaRLJ-4&quot; value=&quot;le &amp;quot;bain&amp;quot;&quot; style=&quot;text;align=center;verticalAlign=middle;rounded=0;fontColor=#fffffe;&quot; vertex=&quot;1&quot; parent=&quot;1&quot;&gt;&#10;          &lt;mxGeometry x=&quot;900&quot; y=&quot;445&quot; width=&quot;60&quot; height=&quot;30&quot; as=&quot;geometry&quot; /&gt;&#10;        &lt;/mxCell&gt;&#10;      &lt;/root&gt;&#10;    &lt;/mxGraphModel&gt;&#10;  &lt;/diagram&gt;&#10;&lt;/mxfile&gt;&#10;">
    <defs />
    <g>
        <g data-cell-id="0">
            <g data-cell-id="1">
                <g data-cell-id="3O4y-KfbGrVBriH-kvUl-1">
                    <g id="cell-3O4y-KfbGrVBriH-kvUl-1">
                        <g>
                            <rect x="0" y="0" width="1150" height="320" rx="48" ry="48" fill="#242415" stroke="#79796a" pointer-events="all" />
                        </g>
                    </g>
                </g>
                <g data-cell-id="3O4y-KfbGrVBriH-kvUl-3">
                    <g id="cell-3O4y-KfbGrVBriH-kvUl-3">
                        <g>
                            <path d="M 850 124.03 L 850 133.48 C 850 140.54 807.28 144.91 772.95 147.75 C 696.1 153.95 574.9 157.25 450.22 157.3 C 353.75 157.36 241.95 155.48 145.08 149.58 C 116.87 147.8 40.02 142.37 39 133.68 L 39 124.08 C 40.43 116 105.02 110.67 159.59 107.42 C 245.63 102.59 363.97 100 471.48 100.61 C 580.01 101.12 687.11 103.56 781.74 110.97 C 806.06 113.21 848.57 117.43 850 124.03 Z M 850 143.28 L 850 152.38 L 716.13 292.34 C 711.63 297.37 697.32 300.16 655.02 303.21 C 610.26 306.41 541.58 308.85 445.52 309 C 349.87 308.9 288.96 306.56 246.25 304.12 C 212.73 301.99 179.82 299.4 172.05 292.95 L 39 152.48 L 39 143.13 C 50.85 148.92 93.78 153.14 138.54 156.14 C 238.89 162.33 347.01 164.26 455.74 164.16 C 559.57 163.81 673 162.18 774.38 154.46 C 812.6 151.41 842.23 147.5 850 143.28 Z" fill="#00a352" stroke="none" pointer-events="all" />
                            <path d="M 850 124.03 L 850 133.48 C 850 140.54 807.28 144.96 772.95 147.75 C 696.3 153.9 575.1 157.2 450.22 157.3 C 353.75 157.41 241.95 155.53 145.08 149.58 C 116.87 147.8 40.23 142.42 39 133.68 L 39 124.08 C 39.41 131.24 91.94 136.93 156.73 140.79 C 267.91 146.89 372.35 148.01 459.42 147.75 C 573.47 147.45 684.04 144.81 766.41 138.76 C 808.1 135.46 849.39 131.04 850 124.03 Z M 716.13 292.34 C 711.43 297.37 697.53 300.16 655.02 303.21 C 610.26 306.41 541.58 308.85 445.52 309 C 349.87 308.95 288.76 306.56 246.25 304.12 C 212.73 301.99 179.82 299.4 172.05 292.95 L 39 152.48 L 39 143.13 L 171.85 283.65 C 180.64 291.47 236.64 294.52 262.8 295.94 C 321.05 298.84 389.72 300.11 453.7 299.8 C 527.28 299.55 596.36 298.13 654.4 294.11 C 681.59 292.08 708.77 290 715.92 283.34 L 850 143.28 L 850 152.38 Z" fill-opacity="0.3" fill="#000000" stroke="none" pointer-events="all" />
                        </g>
                    </g>
                </g>
                <g data-cell-id="3O4y-KfbGrVBriH-kvUl-5">
                    <g id="cell-3O4y-KfbGrVBriH-kvUl-5">
                        <g>
                            <rect x="325" y="105" width="405" height="40" rx="6" ry="6" fill="#00000040" stroke="none" pointer-events="all" />
                        </g>
                        <g>
                            <g transform="translate(-0.5 -0.5)">
                                <switch>
                                    <foreignObject pointer-events="none" width="100%" height="100%" requiredFeatures="http://www.w3.org/TR/SVG11/feature#Extensibility" style="overflow: visible; text-align: left;">
                                        <div xmlns="http://www.w3.org/1999/xhtml" style="display: flex; align-items: unsafe center; justify-content: unsafe center; width: 403px; height: 1px; padding-top: 125px; margin-left: 326px;">
                                            <div data-drawio-colors="color: #fffffe; " style="box-sizing: border-box; font-size: 0px; text-align: center;">
                                                <div style="display: inline-block; font-size: 14px; font-family: Helvetica; color: rgb(255, 255, 254); line-height: 1.2; pointer-events: all; white-space: normal; overflow-wrap: normal;">Haut du panier : grand(e)s saint(e)s, <span style="font-size: 14px;">auxquel(le)s aurait vraiment parlé Dieu</span>. Par exemple : Luisa Piccarreta, ou autre fille alitée</div>
                                            </div>
                                        </div>
                                    </foreignObject><text x="528" y="129" fill="#fffffe" font-family="&quot;Helvetica&quot;" font-size="14px" text-anchor="middle">Haut du panier : grand(e)s saint(e)s, auxquel(le)s aurait...</text>
                                </switch>
                            </g>
                        </g>
                    </g>
                </g>
                <g data-cell-id="3O4y-KfbGrVBriH-kvUl-8">
                    <g id="cell-3O4y-KfbGrVBriH-kvUl-8">
                        <g>
                            <rect x="290" y="170" width="350" height="120" rx="18" ry="18" fill="#00000080" stroke="none" pointer-events="all" />
                        </g>
                        <g>
                            <g transform="translate(-0.5 -0.5)">
                                <switch>
                                    <foreignObject pointer-events="none" width="100%" height="100%" requiredFeatures="http://www.w3.org/TR/SVG11/feature#Extensibility" style="overflow: visible; text-align: left;">
                                        <div xmlns="http://www.w3.org/1999/xhtml" style="display: flex; align-items: unsafe center; justify-content: unsafe center; width: 348px; height: 1px; padding-top: 230px; margin-left: 291px;">
                                            <div data-drawio-colors="color: #fffffe; " style="box-sizing: border-box; font-size: 0px; text-align: center;">
                                                <div style="display: inline-block; font-size: 14px; font-family: Helvetica; color: rgb(255, 255, 254); line-height: 1.2; pointer-events: all; white-space: normal; overflow-wrap: normal;">Restant du "panier"<br />Je peux concevoir que des gens ayant une certaine exigence, un certain respect pour la religion, ne purent pas se satisfaire du "Catholique" moyen.<br />Et cette insatisfaction pourrait même me sembler signifier que Quelqu'un(e) a une certaine noblesse.</div>
                                            </div>
                                        </div>
                                    </foreignObject><text x="465" y="234" fill="#fffffe" font-family="&quot;Helvetica&quot;" font-size="14px" text-anchor="middle">Restant du "panier"...</text>
                                </switch>
                            </g>
                        </g>
                    </g>
                </g>
                <g data-cell-id="3O4y-KfbGrVBriH-kvUl-9">
                    <g id="cell-3O4y-KfbGrVBriH-kvUl-9">
                        <g>
                            <rect x="30" y="40" width="1030" height="40" rx="6" ry="6" fill="#990000" stroke="none" pointer-events="all" />
                        </g>
                        <g>
                            <g transform="translate(-0.5 -0.5)">
                                <switch>
                                    <foreignObject pointer-events="none" width="100%" height="100%" requiredFeatures="http://www.w3.org/TR/SVG11/feature#Extensibility" style="overflow: visible; text-align: left;">
                                        <div xmlns="http://www.w3.org/1999/xhtml" style="display: flex; align-items: unsafe center; justify-content: unsafe center; width: 1028px; height: 1px; padding-top: 60px; margin-left: 31px;">
                                            <div data-drawio-colors="color: #fffffe; " style="box-sizing: border-box; font-size: 0px; text-align: center;">
                                                <div style="display: inline-block; font-size: 16px; font-family: Helvetica; color: rgb(255, 255, 254); line-height: 1.2; pointer-events: all; white-space: normal; overflow-wrap: normal;">De base, Quelqu'un(e) de meilleure qualité que le Catholique moyen, vraiment des fois par noblesse/respect d'une authenticité, peut en arriver à mettre de côté tout le catholicisme, et ce faisant, rejete aussi divers saints et ce faisant, passe à côté d'une partie de ce qu'aurait transmis Dieu...</div>
                                            </div>
                                        </div>
                                    </foreignObject><text x="545" y="65" fill="#fffffe" font-family="&quot;Helvetica&quot;" font-size="16px" text-anchor="middle">De base, Quelqu'un(e) de meilleure qualité que le Catholique moyen, vraiment des fois par noblesse/respect d'une authenticité, pe...</text>
                                </switch>
                            </g>
                        </g>
                    </g>
                </g>
                <g data-cell-id="3O4y-KfbGrVBriH-kvUl-10">
                    <g id="cell-3O4y-KfbGrVBriH-kvUl-10">
                        <g>
                            <rect x="30" y="3" width="1079" height="30" rx="4.5" ry="4.5" fill="none" stroke="none" pointer-events="all" />
                            <path d="M 30.02 5.83 C 30.02 5.83 30.02 5.83 30.02 5.83 M 30.02 5.83 C 30.02 5.83 30.02 5.83 30.02 5.83 M 30.42 11.47 C 33.99 9.62 35.8 8.07 36.32 4.68 M 30.42 11.47 C 32.99 8.8 35.07 5.68 36.32 4.68 M 30.15 17.87 C 33.04 18 37.91 9.09 41.96 4.29 M 30.15 17.87 C 31.69 15.76 35.15 10.63 41.96 4.29 M 29.89 24.27 C 32.51 22.71 37.41 16.52 46.95 4.65 M 29.89 24.27 C 34.53 18.66 38.6 14.27 46.95 4.65 M 30.94 29.16 C 37.91 18.41 43.7 8.41 52.59 4.25 M 30.94 29.16 C 36.21 21.81 46.58 11.96 52.59 4.25 M 32.65 33.29 C 40.37 31.27 44.88 22.37 57.58 4.61 M 32.65 33.29 C 38.03 25.18 42.54 20.51 57.58 4.61 M 36.33 35.16 C 41.63 24.61 53.26 23.46 62.57 4.97 M 36.33 35.16 C 46.65 25.44 58.08 9.94 62.57 4.97 M 41.97 34.77 C 44.09 27.86 52.4 24.5 68.21 4.58 M 41.97 34.77 C 49.78 25.26 60.99 13.28 68.21 4.58 M 46.96 35.13 C 53.96 24.35 62.54 11.61 73.2 4.94 M 46.96 35.13 C 55.97 26.2 63.74 16.98 73.2 4.94 M 52.6 34.73 C 61.35 27.35 66.87 21.96 78.84 4.54 M 52.6 34.73 C 60.57 24 71.42 13.2 78.84 4.54 M 57.59 35.09 C 64.06 28.96 68.74 22.82 83.83 4.9 M 57.59 35.09 C 66.95 28.29 74.52 16.99 83.83 4.9 M 63.23 34.7 C 70.11 25.07 77.39 12.39 89.47 4.51 M 63.23 34.7 C 75.55 23.3 85.99 11.62 89.47 4.51 M 68.22 35.06 C 75.03 31.18 78.93 18.38 94.46 4.87 M 68.22 35.06 C 79.99 23.58 87.59 10.3 94.46 4.87 M 73.86 34.66 C 80.43 23.86 93.35 12.97 100.1 4.47 M 73.86 34.66 C 81.7 26.49 88.51 17.27 100.1 4.47 M 78.85 35.02 C 90.58 20.03 95.99 9.11 105.09 4.83 M 78.85 35.02 C 86.61 27.87 90.57 19.26 105.09 4.83 M 84.49 34.63 C 97.79 19.34 102.68 10.38 110.73 4.44 M 84.49 34.63 C 96.34 24.82 103.97 13.15 110.73 4.44 M 89.48 34.99 C 95.65 29.29 102.09 14.93 115.72 4.8 M 89.48 34.99 C 96 29.17 101 23.28 115.72 4.8 M 95.12 34.59 C 100.23 27.65 110.38 15.58 121.36 4.41 M 95.12 34.59 C 99.86 28.16 106.8 22.62 121.36 4.41 M 100.11 34.95 C 107.66 24.75 125.24 10.86 126.35 4.77 M 100.11 34.95 C 108.43 25.11 118.86 13.51 126.35 4.77 M 105.75 34.56 C 118.11 23.89 122.07 9.16 131.99 4.37 M 105.75 34.56 C 113.06 27.27 121.22 20.23 131.99 4.37 M 110.74 34.92 C 118.8 27.21 121.08 21.29 136.98 4.73 M 110.74 34.92 C 119.62 26.86 125.56 17.69 136.98 4.73 M 116.38 34.52 C 118.66 29.62 130.27 18.03 142.62 4.34 M 116.38 34.52 C 127.54 23.44 135.07 12.71 142.62 4.34 M 121.37 34.88 C 130.9 20.42 140.29 16.65 147.61 4.7 M 121.37 34.88 C 130.59 23.08 140.17 14.98 147.61 4.7 M 127.01 34.49 C 133.11 29.31 142.33 22.58 153.25 4.3 M 127.01 34.49 C 130.58 29.15 136.54 22.52 153.25 4.3 M 132 34.85 C 134.98 28.98 146.25 16.61 158.24 4.66 M 132 34.85 C 141.78 24.81 151.19 13.99 158.24 4.66 M 136.98 35.21 C 149.53 22.36 156.7 9.7 163.88 4.27 M 136.98 35.21 C 143.35 26.57 150.69 14.95 163.88 4.27 M 142.63 34.82 C 150.88 27.57 160.63 14.04 168.87 4.63 M 142.63 34.82 C 151.24 24.84 154.54 19.09 168.87 4.63 M 147.61 35.18 C 153.2 29.26 161.88 19.22 173.86 4.99 M 147.61 35.18 C 156.18 27.9 159.91 20.87 173.86 4.99 M 153.26 34.78 C 159.27 29.78 171.96 13.01 179.5 4.59 M 153.26 34.78 C 164.18 23.19 171.11 14.83 179.5 4.59 M 158.24 35.14 C 165.22 26.08 179.93 14.53 184.49 4.95 M 158.24 35.14 C 168.82 26.44 177.46 16.36 184.49 4.95 M 163.89 34.75 C 169.96 22.23 179.55 15.85 190.13 4.56 M 163.89 34.75 C 171.67 26.71 181.69 16.72 190.13 4.56 M 168.87 35.11 C 176.85 25.61 185.39 15.71 195.12 4.92 M 168.87 35.11 C 175.75 27.82 181.97 21.29 195.12 4.92 M 174.52 34.71 C 186.53 21.35 198.31 8.9 200.76 4.52 M 174.52 34.71 C 178.39 28.41 186.45 23.38 200.76 4.52 M 179.5 35.07 C 187.54 23.65 197.54 11.18 205.75 4.88 M 179.5 35.07 C 187.96 24.97 197.08 16.05 205.75 4.88 M 185.15 34.68 C 191.51 26.78 204.01 13.02 211.39 4.49 M 185.15 34.68 C 192.2 27.11 199.87 19.21 211.39 4.49 M 190.13 35.04 C 193.63 27.91 207.84 20.11 216.38 4.85 M 190.13 35.04 C 197.18 27.66 202.62 20.44 216.38 4.85 M 195.78 34.64 C 200.55 23.86 205.83 16.91 222.02 4.45 M 195.78 34.64 C 204.02 24.84 216.18 12.91 222.02 4.45 M 200.76 35 C 211.77 27.69 216.36 20.89 227.01 4.81 M 200.76 35 C 208.66 30.38 210.94 22.47 227.01 4.81 M 206.41 34.61 C 213.9 23.99 229.98 10.58 232.65 4.42 M 206.41 34.61 C 214.7 24.5 221.44 16.08 232.65 4.42 M 211.39 34.97 C 219.57 26.18 228.66 18.62 237.64 4.78 M 211.39 34.97 C 220.12 25.4 228.82 14.44 237.64 4.78 M 217.04 34.57 C 229.52 24.59 234.41 14.39 243.28 4.39 M 217.04 34.57 C 222.72 27.17 229.05 19.46 243.28 4.39 M 222.02 34.93 C 232.07 25.05 241.53 14.58 248.27 4.75 M 222.02 34.93 C 231.37 25.76 240.41 14.99 248.27 4.75 M 227.67 34.54 C 239.67 20.01 246.3 8.78 253.91 4.35 M 227.67 34.54 C 238.92 25.61 246.65 11.45 253.91 4.35 M 232.65 34.9 C 238.48 27.94 251.77 10.78 258.9 4.71 M 232.65 34.9 C 240.85 24.28 252.92 13.01 258.9 4.71 M 238.3 34.51 C 245.57 24.45 254.34 18.29 264.54 4.32 M 238.3 34.51 C 245.51 27.01 252.74 18.05 264.54 4.32 M 243.28 34.87 C 253.87 26.9 259.74 19.34 269.53 4.68 M 243.28 34.87 C 253.08 22.38 262.96 11.5 269.53 4.68 M 248.93 34.47 C 258.37 28.32 262.8 12.88 275.17 4.28 M 248.93 34.47 C 254.06 27.15 262.01 19.67 275.17 4.28 M 253.91 34.83 C 260.34 27.98 271.97 19.12 280.16 4.64 M 253.91 34.83 C 259.56 29.59 265.24 22.11 280.16 4.64 M 258.9 35.19 C 266.01 27.21 272.25 21.76 285.8 4.25 M 258.9 35.19 C 265.89 26.75 275.86 18.6 285.8 4.25 M 264.54 34.8 C 274.15 24.71 277.63 12.2 290.79 4.61 M 264.54 34.8 C 273.6 25.68 283.39 14.19 290.79 4.61 M 269.53 35.16 C 273.13 24.53 280.85 20.02 295.77 4.97 M 269.53 35.16 C 277.07 25.83 283.55 19.25 295.77 4.97 M 275.17 34.76 C 283.79 28.61 287.95 17.4 301.42 4.57 M 275.17 34.76 C 284.89 25.68 295.56 12.95 301.42 4.57 M 280.16 35.12 C 292.19 28.44 301.53 12.43 306.4 4.93 M 280.16 35.12 C 286.05 28.56 294.28 19.93 306.4 4.93 M 285.8 34.73 C 295.99 25.51 299.43 19.56 312.05 4.54 M 285.8 34.73 C 294.57 27.07 302.4 17.54 312.05 4.54 M 290.79 35.09 C 302.06 23.38 310.76 16.21 317.03 4.9 M 290.79 35.09 C 301.92 23.07 309.07 13.74 317.03 4.9 M 296.43 34.69 C 305.69 20.28 314.59 13.3 322.68 4.5 M 296.43 34.69 C 303.52 27.25 307.49 23.49 322.68 4.5 M 301.42 35.05 C 308.91 26.28 320.84 15 327.66 4.86 M 301.42 35.05 C 306.97 26.54 315.02 19.73 327.66 4.86 M 307.06 34.66 C 315.53 26.41 321.66 17.65 333.31 4.47 M 307.06 34.66 C 312.4 27.2 318.7 21.47 333.31 4.47 M 312.05 35.02 C 321.82 30.29 328.89 19.96 338.29 4.83 M 312.05 35.02 C 320.84 23.87 331.46 14.53 338.29 4.83 M 317.69 34.62 C 325.34 29.12 326.17 23.99 343.94 4.44 M 317.69 34.62 C 328.34 24.83 336.35 13.59 343.94 4.44 M 322.68 34.98 C 326.18 26.23 335.34 20.12 348.92 4.8 M 322.68 34.98 C 329.32 27.19 338.09 19.19 348.92 4.8 M 328.32 34.59 C 334.68 29.22 343.34 15.11 354.57 4.4 M 328.32 34.59 C 334.58 25.76 344.13 15.24 354.57 4.4 M 333.31 34.95 C 340.39 28.23 350.09 19.02 359.55 4.76 M 333.31 34.95 C 340.69 28.49 346.73 22.49 359.55 4.76 M 338.95 34.55 C 344.88 27.38 352.03 12.38 365.2 4.37 M 338.95 34.55 C 344.22 25.37 353.28 15.98 365.2 4.37 M 343.94 34.91 C 347.76 31.04 359.25 23.16 370.18 4.73 M 343.94 34.91 C 349.5 27.84 353.46 20.39 370.18 4.73 M 349.58 34.52 C 355.15 20.9 367.97 17.51 375.83 4.33 M 349.58 34.52 C 359.66 24.67 367.63 12.55 375.83 4.33 M 354.57 34.88 C 357.94 23.6 370.17 20.35 380.81 4.69 M 354.57 34.88 C 358.67 27.27 364.55 20.8 380.81 4.69 M 360.21 34.49 C 368.03 25.84 374.82 15.79 386.46 4.3 M 360.21 34.49 C 366.16 29.69 370.53 23.34 386.46 4.3 M 365.2 34.85 C 369.47 27.68 374.39 21.53 391.44 4.66 M 365.2 34.85 C 375.47 22.93 383.16 12.71 391.44 4.66 M 370.19 35.21 C 375.17 24.36 389.78 15.94 397.09 4.26 M 370.19 35.21 C 379.64 26.46 385.8 13.78 397.09 4.26 M 375.83 34.81 C 382.82 31.16 387.05 20.96 402.07 4.62 M 375.83 34.81 C 385.04 24.77 397.65 13.08 402.07 4.62 M 380.82 35.17 C 391.43 26.29 395.81 18.18 407.06 4.98 M 380.82 35.17 C 387.94 27.66 397.21 19.69 407.06 4.98 M 386.46 34.78 C 394.22 25.62 408.86 10.84 412.7 4.59 M 386.46 34.78 C 394.11 29.09 398.46 20.11 412.7 4.59 M 391.45 35.14 C 397.18 30.67 408.34 16.23 417.69 4.95 M 391.45 35.14 C 402.05 24.38 410.49 13.15 417.69 4.95 M 397.09 34.74 C 403.62 25.98 412.9 15.99 423.33 4.55 M 397.09 34.74 C 408.68 20.65 416.92 8.45 423.33 4.55 M 402.08 35.1 C 409.75 23.74 424.53 12.6 428.32 4.91 M 402.08 35.1 C 412.38 26.91 420.18 15.12 428.32 4.91 M 407.72 34.71 C 414.18 27.74 426.24 11.95 433.96 4.52 M 407.72 34.71 C 417.66 25.94 428.24 13.6 433.96 4.52 M 412.71 35.07 C 418.67 22.95 429.47 20.65 438.95 4.88 M 412.71 35.07 C 422.64 25.76 426.57 15.88 438.95 4.88 M 418.35 34.67 C 426.27 29.66 428.63 16.86 444.59 4.49 M 418.35 34.67 C 422.83 28.74 430.14 20.34 444.59 4.49 M 423.34 35.03 C 425.5 30.77 432.33 23.37 449.58 4.85 M 423.34 35.03 C 435.04 24.5 442.39 13.36 449.58 4.85 M 428.98 34.64 C 432.65 25.17 445.72 19.65 455.22 4.45 M 428.98 34.64 C 439.21 25.35 447.28 10.85 455.22 4.45 M 433.97 35 C 439.14 24 448.9 11.85 460.21 4.81 M 433.97 35 C 441.04 26.21 447.69 16.56 460.21 4.81 M 439.61 34.6 C 444.98 25.99 455.99 14.84 465.85 4.42 M 439.61 34.6 C 449.14 24.84 455.28 16.32 465.85 4.42 M 444.6 34.96 C 455.83 21.6 462.9 16.12 470.84 4.78 M 444.6 34.96 C 452.82 22.91 462.14 13.83 470.84 4.78 M 450.24 34.57 C 457.93 27.5 461.45 20.9 476.49 4.38 M 450.24 34.57 C 459.5 24.35 471.79 10.84 476.49 4.38 M 455.23 34.93 C 461.68 23.79 470.9 15.16 481.47 4.74 M 455.23 34.93 C 461.34 26.21 472.98 14.73 481.47 4.74 M 460.87 34.54 C 467.27 27.27 476.17 13.61 487.12 4.35 M 460.87 34.54 C 466.96 25.02 473.08 18.66 487.12 4.35 M 465.86 34.9 C 469.81 26.87 482.32 22.81 492.1 4.71 M 465.86 34.9 C 470.56 26.69 476.93 18.25 492.1 4.71 M 471.5 34.5 C 481.67 22.64 490.4 14.82 497.75 4.31 M 471.5 34.5 C 480.3 24 487.78 16.91 497.75 4.31 M 476.49 34.86 C 479.6 26.54 491.87 19.94 502.73 4.67 M 476.49 34.86 C 485.47 23.39 493.45 13.34 502.73 4.67 M 482.13 34.47 C 492.12 26.11 498.36 14.75 508.38 4.28 M 482.13 34.47 C 487.7 24.39 494.04 16.8 508.38 4.28 M 487.12 34.83 C 490.56 25.44 498.96 15.2 513.36 4.64 M 487.12 34.83 C 496.23 26.47 502.69 18.65 513.36 4.64 M 492.11 35.19 C 497.45 25.68 505.43 17.42 518.35 5 M 492.11 35.19 C 501.11 28.24 507.52 17.43 518.35 5 M 497.75 34.79 C 504.44 24.86 509.71 19.61 523.99 4.6 M 497.75 34.79 C 504.92 26.5 516.93 14.67 523.99 4.6 M 502.74 35.15 C 506.39 26.3 513.81 22.94 528.98 4.96 M 502.74 35.15 C 509.54 25.02 521.54 13.4 528.98 4.96 M 508.38 34.76 C 516.45 23.82 525.37 22.59 534.62 4.57 M 508.38 34.76 C 514.42 24.09 524.75 18.54 534.62 4.57 M 513.37 35.12 C 521.06 26.85 527.6 25.6 539.61 4.93 M 513.37 35.12 C 521.6 28.91 528.26 17.01 539.61 4.93 M 519.01 34.72 C 528.35 27.85 539.64 11.87 545.25 4.53 M 519.01 34.72 C 525.04 28.4 531.16 19.4 545.25 4.53 M 524 35.08 C 529.27 22.63 545.06 15.38 550.24 4.89 M 524 35.08 C 531.31 27.81 536.35 18.28 550.24 4.89 M 529.64 34.69 C 536.49 25.57 539.99 23.01 555.88 4.5 M 529.64 34.69 C 536.44 24.47 546.45 16.79 555.88 4.5 M 534.63 35.05 C 542.17 26.85 551.05 14.42 560.87 4.86 M 534.63 35.05 C 543.45 26.17 552.49 16.79 560.87 4.86 M 540.27 34.65 C 555.19 21.89 560.05 13.49 566.51 4.47 M 540.27 34.65 C 547.15 29.07 551.09 19.53 566.51 4.47 M 545.26 35.01 C 550.76 24.71 555.96 18.09 571.5 4.83 M 545.26 35.01 C 554.27 22.99 563.45 10.71 571.5 4.83 M 550.9 34.62 C 559.92 24.91 567.46 14.89 577.14 4.43 M 550.9 34.62 C 557.93 24.69 565.46 14.63 577.14 4.43 M 555.89 34.98 C 565.16 20.21 573.6 14.67 582.13 4.79 M 555.89 34.98 C 561.58 28.74 568.78 22.74 582.13 4.79 M 561.53 34.59 C 569.83 29.88 572.29 19.51 587.77 4.4 M 561.53 34.59 C 567.99 28.59 573.18 21.47 587.77 4.4 M 566.52 34.95 C 577.07 25.58 581.53 22.1 592.76 4.76 M 566.52 34.95 C 572.87 27.27 583.32 16.84 592.76 4.76 M 572.16 34.55 C 578.55 26.21 587.69 10.59 598.4 4.36 M 572.16 34.55 C 582.82 24.9 591.07 12.66 598.4 4.36 M 577.15 34.91 C 582.27 29.73 593.42 15.05 603.39 4.72 M 577.15 34.91 C 582.97 28.17 587.5 23.86 603.39 4.72 M 582.79 34.52 C 589.5 21.82 603.83 15.69 609.03 4.33 M 582.79 34.52 C 593.5 24.27 602.33 13.03 609.03 4.33 M 587.78 34.88 C 595.37 24.81 597.2 18.79 614.02 4.69 M 587.78 34.88 C 598.85 22.41 608.74 13.96 614.02 4.69 M 593.42 34.48 C 601.15 27.4 610.28 19.81 619.66 4.29 M 593.42 34.48 C 603.73 22.43 611.23 14.87 619.66 4.29 M 598.41 34.84 C 603.27 26.62 617.4 16.38 624.65 4.65 M 598.41 34.84 C 605.63 23.4 614.85 12.83 624.65 4.65 M 603.39 35.2 C 612.18 23.75 622.8 15.5 630.29 4.26 M 603.39 35.2 C 610.09 26.97 619.66 13.7 630.29 4.26 M 609.04 34.81 C 619.84 20.21 623.4 11.48 635.28 4.62 M 609.04 34.81 C 615.3 26.26 626.11 15.84 635.28 4.62 M 614.02 35.17 C 620.12 29.45 627.68 14.97 640.27 4.98 M 614.02 35.17 C 623.3 26.44 630 15.35 640.27 4.98 M 619.67 34.77 C 627.17 21.38 635.9 10.64 645.91 4.58 M 619.67 34.77 C 628.19 24.37 638.42 13.62 645.91 4.58 M 624.66 35.13 C 630.88 29.02 635.94 18.42 650.9 4.94 M 624.66 35.13 C 631.79 28.45 634.89 20.95 650.9 4.94 M 630.3 34.74 C 640.78 24.1 648.14 19.86 656.54 4.55 M 630.3 34.74 C 636.1 27.91 646.43 15.67 656.54 4.55 M 635.29 35.1 C 641.98 28.41 651.17 15.34 661.53 4.91 M 635.29 35.1 C 639.68 27.97 646.22 22.32 661.53 4.91 M 640.93 34.7 C 651.2 29.07 655.47 16.06 667.17 4.52 M 640.93 34.7 C 650.87 23.17 659.92 14.53 667.17 4.52 M 645.92 35.06 C 649.72 26.69 656.43 15.8 672.16 4.88 M 645.92 35.06 C 653.76 27.26 658.08 19.93 672.16 4.88 M 651.56 34.67 C 659.59 30.13 667 22.57 677.8 4.48 M 651.56 34.67 C 658.19 26.42 664.53 16.86 677.8 4.48 M 656.55 35.03 C 666.3 23.96 679.06 9.6 682.79 4.84 M 656.55 35.03 C 661.79 28.5 672.72 18.65 682.79 4.84 M 662.19 34.63 C 674.5 25.86 681.04 13.68 688.43 4.45 M 662.19 34.63 C 668.57 25.03 677.78 15.28 688.43 4.45 M 667.18 34.99 C 678.41 24.74 682.85 14.75 693.42 4.81 M 667.18 34.99 C 675.27 24.41 684.66 13.41 693.42 4.81 M 672.82 34.6 C 678.67 27.16 689.27 13.25 699.06 4.41 M 672.82 34.6 C 681.63 24.17 689.63 14.38 699.06 4.41 M 677.81 34.96 C 689.04 21.58 697.51 17.98 704.05 4.77 M 677.81 34.96 C 685.81 24.81 698.46 14.8 704.05 4.77 M 683.45 34.57 C 691.85 31.57 694.16 18.04 709.69 4.38 M 683.45 34.57 C 690.12 25.24 699.65 13.9 709.69 4.38 M 688.44 34.93 C 694.98 27.31 697.77 20.05 714.68 4.74 M 688.44 34.93 C 696.43 23.84 707.87 15.19 714.68 4.74 M 694.08 34.53 C 706.52 20.69 713.83 12 720.32 4.34 M 694.08 34.53 C 703.97 25.51 714.47 11.47 720.32 4.34 M 699.07 34.89 C 708.08 19.84 715.07 15.5 725.31 4.7 M 699.07 34.89 C 707.43 26.83 713.88 20.68 725.31 4.7 M 704.71 34.5 C 709.58 31.17 713.62 20.5 730.95 4.31 M 704.71 34.5 C 712.59 26.32 718.18 19.88 730.95 4.31 M 709.7 34.86 C 712.24 27.69 720.31 21.31 735.94 4.67 M 709.7 34.86 C 717.34 28.48 721.46 20.22 735.94 4.67 M 715.34 34.46 C 721.91 25.46 725.03 23.84 741.58 4.27 M 715.34 34.46 C 727.05 22.95 734.13 13.75 741.58 4.27 M 720.33 34.82 C 730.6 26.99 741.05 12.65 746.57 4.63 M 720.33 34.82 C 729.96 24.59 738.84 14.41 746.57 4.63 M 725.31 35.18 C 733.9 22.84 741.59 11.4 751.56 4.99 M 725.31 35.18 C 734.33 28.59 739.85 18.79 751.56 4.99 M 730.96 34.79 C 732.26 30.69 745.02 19.46 757.2 4.6 M 730.96 34.79 C 739.62 25.43 748.01 15.88 757.2 4.6 M 735.94 35.15 C 740.83 28.32 751.65 17.61 762.19 4.96 M 735.94 35.15 C 744.74 25.89 755.01 11.99 762.19 4.96 M 741.59 34.75 C 750.8 23.4 757.78 13.82 767.83 4.56 M 741.59 34.75 C 748.43 26.33 755.21 16.74 767.83 4.56 M 746.57 35.11 C 753.13 28 767.04 16.12 772.82 4.93 M 746.57 35.11 C 755.57 26.18 761.77 18.23 772.82 4.93 M 752.22 34.72 C 761.78 27.44 762.37 17.46 778.46 4.53 M 752.22 34.72 C 757.87 27.03 766.59 17.08 778.46 4.53 M 757.2 35.08 C 766.44 29.31 766.65 21.22 783.45 4.89 M 757.2 35.08 C 764.82 27.67 771.4 19.15 783.45 4.89 M 762.85 34.68 C 766.71 24.97 777.36 24.6 789.09 4.5 M 762.85 34.68 C 768.32 26.3 777.09 18.53 789.09 4.5 M 767.83 35.04 C 780.34 21.5 786.91 13.15 794.08 4.86 M 767.83 35.04 C 776.43 26.79 784.28 15.65 794.08 4.86 M 773.48 34.65 C 780.48 31.55 783.21 18.58 799.72 4.46 M 773.48 34.65 C 783.55 25.49 790.89 14.81 799.72 4.46 M 778.46 35.01 C 788.38 25.01 800.39 8.72 804.71 4.82 M 778.46 35.01 C 784.19 26.85 790.04 21.61 804.71 4.82 M 784.11 34.62 C 794.18 21.81 799.69 14.57 810.35 4.43 M 784.11 34.62 C 792.99 24.94 802.47 15.16 810.35 4.43 M 789.09 34.98 C 796.1 23.95 805.17 20.57 815.34 4.79 M 789.09 34.98 C 796.8 26.32 805.46 14.94 815.34 4.79 M 794.74 34.58 C 798.31 27.89 813.17 14.99 820.98 4.39 M 794.74 34.58 C 803.86 25.44 809.92 14.78 820.98 4.39 M 799.72 34.94 C 807.68 23.68 814.38 17.75 825.97 4.75 M 799.72 34.94 C 807.54 23.48 820.74 11.51 825.97 4.75 M 805.37 34.55 C 811.58 28.66 818.64 19.74 831.61 4.36 M 805.37 34.55 C 810.35 25.85 817.45 19.43 831.61 4.36 M 810.35 34.91 C 817.37 29.29 826.55 15.41 836.6 4.72 M 810.35 34.91 C 818.11 24.86 828.24 12.42 836.6 4.72 M 816 34.51 C 821.74 27.74 832.57 17.15 842.24 4.32 M 816 34.51 C 823.21 26.47 830.38 19.85 842.24 4.32 M 820.98 34.87 C 825.75 28.01 836.2 20 847.23 4.68 M 820.98 34.87 C 830.53 26.77 838.53 18.52 847.23 4.68 M 826.63 34.48 C 833.94 28.47 839.98 20.02 852.87 4.29 M 826.63 34.48 C 834.85 26.66 841.66 16.35 852.87 4.29 M 831.61 34.84 C 842 26.79 844.21 11.91 857.86 4.65 M 831.61 34.84 C 842.04 23.62 853.84 11.78 857.86 4.65 M 836.6 35.2 C 845.86 24.28 855.07 18.79 863.5 4.25 M 836.6 35.2 C 843.37 25.89 850.6 20.69 863.5 4.25 M 842.24 34.8 C 847.41 26.89 853.54 17.14 868.49 4.61 M 842.24 34.8 C 846.46 25.91 855.12 18.37 868.49 4.61 M 847.23 35.16 C 857.84 20.22 869.01 9.11 873.47 4.97 M 847.23 35.16 C 858.39 21.95 867.78 10.18 873.47 4.97 M 852.87 34.77 C 860.8 29.2 864.97 19.48 879.12 4.58 M 852.87 34.77 C 864.19 25.01 871.39 12.19 879.12 4.58 M 857.86 35.13 C 866.31 22.73 877.5 12.47 884.1 4.94 M 857.86 35.13 C 866.14 26.57 870.22 20.56 884.1 4.94 M 863.5 34.73 C 867.97 28.8 881.39 18.2 889.75 4.55 M 863.5 34.73 C 875.33 24.28 882.97 11.29 889.75 4.55 M 868.49 35.09 C 875.93 22.24 885.29 15.89 894.73 4.91 M 868.49 35.09 C 877.6 24.14 887.17 13.32 894.73 4.91 M 874.13 34.7 C 880.11 22.54 891.64 14.55 900.38 4.51 M 874.13 34.7 C 882.85 23.39 896.06 12.98 900.38 4.51 M 879.12 35.06 C 890.9 28.57 896.07 19.35 905.36 4.87 M 879.12 35.06 C 887.84 25.72 895.73 16.13 905.36 4.87 M 884.76 34.67 C 891.43 23.45 905.28 11.19 911.01 4.48 M 884.76 34.67 C 892.85 24.56 900.54 17.14 911.01 4.48 M 889.75 35.03 C 897.24 29.37 902.47 17.36 915.99 4.84 M 889.75 35.03 C 898.25 27.11 904.93 17.78 915.99 4.84 M 895.39 34.63 C 900.33 26.26 915.32 14.76 921.64 4.44 M 895.39 34.63 C 905.03 24.38 913.69 15 921.64 4.44 M 900.38 34.99 C 910.77 24.8 915.44 20.74 926.62 4.8 M 900.38 34.99 C 904.65 29.67 909.59 22.24 926.62 4.8 M 906.02 34.6 C 910.68 29.99 923.17 15.35 932.27 4.41 M 906.02 34.6 C 914.49 26.26 918.28 16.73 932.27 4.41 M 911.01 34.96 C 915.97 23.03 926.9 10.95 937.25 4.77 M 911.01 34.96 C 917.5 27.87 927.54 16.99 937.25 4.77 M 916.65 34.56 C 924.14 24.22 928.59 17.88 942.9 4.37 M 916.65 34.56 C 925.64 25.76 933.37 15.53 942.9 4.37 M 921.64 34.92 C 932.65 28.62 934.09 13.7 947.88 4.73 M 921.64 34.92 C 932.11 24.63 939.55 17.6 947.88 4.73 M 927.28 34.53 C 938.16 27.91 938.29 13.9 953.53 4.34 M 927.28 34.53 C 935.9 23.21 946.4 11.49 953.53 4.34 M 932.27 34.89 C 940.9 24.09 944.17 13.28 958.51 4.7 M 932.27 34.89 C 941.17 25.86 952.18 13.06 958.51 4.7 M 937.91 34.49 C 948.05 23.56 959.86 10.7 964.16 4.3 M 937.91 34.49 C 944.24 27.28 949.59 22.06 964.16 4.3 M 942.9 34.85 C 952.21 26.52 954.87 22.35 969.14 4.66 M 942.9 34.85 C 950.3 27.04 956.22 19.51 969.14 4.66 M 948.54 34.46 C 958.82 29.06 968.56 14.26 974.79 4.27 M 948.54 34.46 C 956.53 26.3 963.67 16.25 974.79 4.27 M 953.53 34.82 C 963.89 24.78 970.16 20.03 979.77 4.63 M 953.53 34.82 C 963.36 22.51 974.35 12.36 979.77 4.63 M 958.52 35.18 C 967.99 28.59 972.4 11 984.76 4.99 M 958.52 35.18 C 966.56 24.66 976.78 14.25 984.76 4.99 M 964.16 34.78 C 972.63 28.41 976.6 15.9 990.4 4.6 M 964.16 34.78 C 968.55 26.29 977.19 22.38 990.4 4.6 M 969.15 35.14 C 976.74 24.49 989.03 16.78 995.39 4.96 M 969.15 35.14 C 972.03 31.3 978.85 22.84 995.39 4.96 M 974.79 34.75 C 984.54 24.75 993.27 22.09 1001.03 4.56 M 974.79 34.75 C 978.45 26.32 983.87 22.6 1001.03 4.56 M 979.78 35.11 C 990.17 30.82 995.01 15.43 1006.02 4.92 M 979.78 35.11 C 990.02 23.51 999.39 14 1006.02 4.92 M 985.42 34.71 C 992.36 30.62 995.63 21.87 1011.66 4.53 M 985.42 34.71 C 995.26 24.07 1001.2 15.17 1011.66 4.53 M 990.41 35.07 C 995 27.31 999.71 25.62 1016.65 4.89 M 990.41 35.07 C 997.91 27.81 1002.59 19.19 1016.65 4.89 M 996.05 34.68 C 1008.68 20.84 1018.05 13.26 1022.29 4.49 M 996.05 34.68 C 1003.66 29.03 1007.14 22.87 1022.29 4.49 M 1001.04 35.04 C 1006.62 29.21 1020.23 17.84 1027.28 4.85 M 1001.04 35.04 C 1010.49 25.8 1016.77 17.77 1027.28 4.85 M 1006.68 34.65 C 1012.56 24.73 1023.43 16.63 1032.92 4.46 M 1006.68 34.65 C 1018.26 25.07 1027.15 14.17 1032.92 4.46 M 1011.67 35.01 C 1022.97 23.2 1030.12 9.22 1037.91 4.82 M 1011.67 35.01 C 1019.11 27.94 1023.73 20.07 1037.91 4.82 M 1017.31 34.61 C 1025.47 26.5 1031.87 13.8 1043.55 4.42 M 1017.31 34.61 C 1024.79 25.32 1030.71 17.54 1043.55 4.42 M 1022.3 34.97 C 1025.38 29.54 1032.13 20.73 1048.54 4.78 M 1022.3 34.97 C 1028.76 26.85 1032.57 19.58 1048.54 4.78 M 1027.94 34.58 C 1038.52 24.84 1043.14 16.91 1054.18 4.39 M 1027.94 34.58 C 1036.11 24.25 1043.99 18.13 1054.18 4.39 M 1032.93 34.94 C 1038.72 22.66 1051.44 14.67 1059.17 4.75 M 1032.93 34.94 C 1039.59 27.01 1045.44 19.65 1059.17 4.75 M 1038.57 34.54 C 1046.37 26.43 1056.86 8.8 1064.81 4.35 M 1038.57 34.54 C 1043.91 29.32 1051.42 20.7 1064.81 4.35 M 1043.56 34.9 C 1048.73 30.82 1056.19 19.51 1069.8 4.71 M 1043.56 34.9 C 1047.17 28.16 1053.93 21.92 1069.8 4.71 M 1049.2 34.51 C 1060.95 21.37 1065.22 13.5 1075.44 4.32 M 1049.2 34.51 C 1054.1 27.49 1062.69 20.97 1075.44 4.32 M 1054.19 34.87 C 1058.26 27.43 1066.53 19.99 1080.43 4.68 M 1054.19 34.87 C 1061.6 22.63 1072.46 14.62 1080.43 4.68 M 1059.83 34.47 C 1062.13 31.74 1072.66 17.71 1086.08 4.28 M 1059.83 34.47 C 1071.13 23.9 1079.95 11.34 1086.08 4.28 M 1064.82 34.83 C 1077.16 25.5 1086.12 8.75 1091.06 4.64 M 1064.82 34.83 C 1069.91 29.25 1075.92 19.57 1091.06 4.64 M 1069.81 35.19 C 1079.9 28.56 1087.68 18.53 1096.71 4.25 M 1069.81 35.19 C 1079.04 24.47 1087.21 12.37 1096.71 4.25 M 1075.45 34.8 C 1086.19 27.54 1095.52 11.23 1101.69 4.61 M 1075.45 34.8 C 1084.48 23.39 1095.39 12.98 1101.69 4.61 M 1080.44 35.16 C 1088 29.61 1093.12 23.58 1106.68 4.97 M 1080.44 35.16 C 1087.6 28.1 1094.99 19.03 1106.68 4.97 M 1086.08 34.76 C 1097.67 25.34 1103.57 11.12 1110.35 6.84 M 1086.08 34.76 C 1090.17 28.37 1096.22 20.75 1110.35 6.84 M 1091.07 35.12 C 1100.15 25.71 1103.86 18.73 1110.09 13.24 M 1091.07 35.12 C 1097.9 26.96 1105.56 18.64 1110.09 13.24 M 1096.71 34.73 C 1100 32.23 1102.79 24.24 1110.49 18.88 M 1096.71 34.73 C 1099.82 30.57 1105.39 27.03 1110.49 18.88 M 1101.7 35.09 C 1104.34 32.7 1106.39 28.86 1110.23 25.28 M 1101.7 35.09 C 1104.3 31.36 1107.94 28.68 1110.23 25.28" fill="none" stroke="#006600" stroke-width="0.5" stroke-linejoin="round" stroke-linecap="round" stroke-miterlimit="10" pointer-events="all" />
                        </g>
                        <g>
                            <g transform="translate(-0.5 -0.5)">
                                <switch>
                                    <foreignObject pointer-events="none" width="100%" height="100%" requiredFeatures="http://www.w3.org/TR/SVG11/feature#Extensibility" style="overflow: visible; text-align: left;">
                                        <div xmlns="http://www.w3.org/1999/xhtml" style="display: flex; align-items: unsafe center; justify-content: unsafe center; width: 1077px; height: 1px; padding-top: 18px; margin-left: 31px;">
                                            <div data-drawio-colors="color: #fffffe; " style="box-sizing: border-box; font-size: 0px; text-align: center;">
                                                <div style="display: inline-block; font-size: 20px; font-family: Helvetica; color: rgb(255, 255, 254); line-height: 1.2; pointer-events: all; white-space: normal; overflow-wrap: normal;">Intelligence de se méfier d'une partie des "Catholiques", mais aussi danger de rejeter tout le catholicisme sans distinction</div>
                                            </div>
                                        </div>
                                    </foreignObject><text x="570" y="24" fill="#fffffe" font-family="&quot;Helvetica&quot;" font-size="20px" text-anchor="middle">Intelligence de se méfier d'une partie des "Catholiques", mais aussi danger de rejeter tout le catholicisme...</text>
                                </switch>
                            </g>
                        </g>
                    </g>
                </g>
                <g data-cell-id="3O4y-KfbGrVBriH-kvUl-11">
                    <g id="cell-3O4y-KfbGrVBriH-kvUl-11">
                        <g>
                            <rect x="200" y="210" width="60" height="30" fill="none" stroke="none" pointer-events="all" />
                        </g>
                        <g>
                            <g fill="#fffffe" font-family="&quot;Helvetica&quot;" text-anchor="middle" font-size="12px"><text x="229.5" y="229.5">Catholique moyen</text></g>
                        </g>
                    </g>
                </g>
                <g data-cell-id="3O4y-KfbGrVBriH-kvUl-12">
                    <g id="cell-3O4y-KfbGrVBriH-kvUl-12">
                        <g>
                            <rect x="99" y="110" width="231" height="30" fill="none" stroke="none" pointer-events="all" />
                        </g>
                        <g>
                            <g transform="translate(-0.5 -0.5)">
                                <switch>
                                    <foreignObject pointer-events="none" width="100%" height="100%" requiredFeatures="http://www.w3.org/TR/SVG11/feature#Extensibility" style="overflow: visible; text-align: left;">
                                        <div xmlns="http://www.w3.org/1999/xhtml" style="display: flex; align-items: unsafe center; justify-content: unsafe center; width: 229px; height: 1px; padding-top: 125px; margin-left: 100px;">
                                            <div data-drawio-colors="color: #fffffe; " style="box-sizing: border-box; font-size: 0px; text-align: center;">
                                                <div style="display: inline-block; font-size: 12px; font-family: Helvetica; color: rgb(255, 255, 254); line-height: 1.2; pointer-events: all; white-space: normal; overflow-wrap: normal;">grandes figures du catholicisme (par ex. Hildegarde de bingen), Mystiques</div>
                                            </div>
                                        </div>
                                    </foreignObject><text x="215" y="129" fill="#fffffe" font-family="&quot;Helvetica&quot;" font-size="12px" text-anchor="middle">grandes figures du catholicisme (par e...</text>
                                </switch>
                            </g>
                        </g>
                    </g>
                </g>
                <g data-cell-id="3O4y-KfbGrVBriH-kvUl-13">
                    <g id="cell-3O4y-KfbGrVBriH-kvUl-13">
                        <g>
                            <rect x="1080" y="70" width="60" height="20" rx="5" fill="#990000" stroke="none" pointer-events="all" />
                        </g>
                        <g>
                            <g fill="#FFFFFF" font-family="&quot;Helvetica&quot;" font-weight="bold" font-size="14px"><text x="1084.5" y="85.5">Danger</text></g>
                        </g>
                    </g>
                </g>
                <g data-cell-id="3O4y-KfbGrVBriH-kvUl-14">
                    <g id="cell-3O4y-KfbGrVBriH-kvUl-14">
                        <g>
                            <rect x="881" y="120" width="269" height="30" fill="none" stroke="none" pointer-events="all" />
                        </g>
                        <g>
                            <g transform="translate(-0.5 -0.5)">
                                <switch>
                                    <foreignObject pointer-events="none" width="100%" height="100%" requiredFeatures="http://www.w3.org/TR/SVG11/feature#Extensibility" style="overflow: visible; text-align: left;">
                                        <div xmlns="http://www.w3.org/1999/xhtml" style="display: flex; align-items: unsafe center; justify-content: unsafe center; width: 267px; height: 1px; padding-top: 135px; margin-left: 882px;">
                                            <div data-drawio-colors="color: #fffffe; " style="box-sizing: border-box; font-size: 0px; text-align: center;">
                                                <div style="display: inline-block; font-size: 14px; font-family: Helvetica; color: rgb(255, 255, 254); line-height: 1.2; pointer-events: all; white-space: normal; overflow-wrap: normal;">Autrement rédigé, le danger c'est de se dégouter du catholicisme à cause des "95%", et de louper les 5%</div>
                                            </div>
                                        </div>
                                    </foreignObject><text x="1016" y="139" fill="#fffffe" font-family="&quot;Helvetica&quot;" font-size="14px" text-anchor="middle">Autrement rédigé, le danger c'est de s...</text>
                                </switch>
                            </g>
                        </g>
                    </g>
                </g>
                <g data-cell-id="3O4y-KfbGrVBriH-kvUl-15">
                    <g id="cell-3O4y-KfbGrVBriH-kvUl-15">
                        <g>
                            <path d="M 943 218 L 950.01 173.29" fill="none" stroke="#dddedd" stroke-miterlimit="10" pointer-events="stroke" />
                            <path d="M 950.83 168.1 L 953.2 175.56 L 950.01 173.29 L 946.28 174.48 Z" fill="#dddedd" stroke="#dddedd" stroke-miterlimit="10" pointer-events="all" />
                        </g>
                    </g>
                </g>
                <g data-cell-id="3O4y-KfbGrVBriH-kvUl-16">
                    <g id="cell-3O4y-KfbGrVBriH-kvUl-16">
                        <g>
                            <rect x="904" y="240" width="135" height="30" fill="none" stroke="none" pointer-events="all" />
                        </g>
                        <g>
                            <g transform="translate(-0.5 -0.5)">
                                <switch>
                                    <foreignObject pointer-events="none" width="100%" height="100%" requiredFeatures="http://www.w3.org/TR/SVG11/feature#Extensibility" style="overflow: visible; text-align: left;">
                                        <div xmlns="http://www.w3.org/1999/xhtml" style="display: flex; align-items: unsafe center; justify-content: unsafe center; width: 133px; height: 1px; padding-top: 255px; margin-left: 905px;">
                                            <div data-drawio-colors="color: #fffffe; " style="box-sizing: border-box; font-size: 0px; text-align: center;">
                                                <div style="display: inline-block; font-size: 12px; font-family: Helvetica; color: rgb(255, 255, 254); line-height: 1.2; pointer-events: all; white-space: normal; overflow-wrap: normal;">Chiffre donné à titre approximatif, voire très approximatif</div>
                                            </div>
                                        </div>
                                    </foreignObject><text x="972" y="259" fill="#fffffe" font-family="&quot;Helvetica&quot;" font-size="12px" text-anchor="middle">Chiffre donné à titre...</text>
                                </switch>
                            </g>
                        </g>
                    </g>
                </g>
                <g data-cell-id="DDhN5DSaP5eOaKILaRLJ-1">
                    <g id="cell-DDhN5DSaP5eOaKILaRLJ-1">
                        <g>
                            <ellipse cx="762.5" cy="112.75" rx="3.75" ry="3.75" fill="#242415" stroke="#fffffe" pointer-events="all" />
                            <path d="M 762.5 116.5 L 762.5 129 M 762.5 119 L 755 119 M 762.5 119 L 770 119 M 762.5 129 L 755 139 M 762.5 129 L 770 139" fill="none" stroke="#fffffe" stroke-miterlimit="10" pointer-events="all" />
                        </g>
                        <g>
                            <g fill="#fffffe" font-family="&quot;Helvetica&quot;" text-anchor="middle" font-size="12px"><text x="762" y="156.5">"bébé"</text></g>
                        </g>
                    </g>
                </g>
                <g data-cell-id="DDhN5DSaP5eOaKILaRLJ-2">
                    <g id="cell-DDhN5DSaP5eOaKILaRLJ-2">
                        <g>
                            <rect x="670" y="196" width="60" height="30" fill="none" stroke="none" pointer-events="all" />
                        </g>
                        <g>
                            <g fill="#fffffe" font-family="&quot;Helvetica&quot;" text-anchor="middle" font-size="12px"><text x="699.5" y="215.5">eau du bain</text></g>
                        </g>
                    </g>
                </g>
                <g data-cell-id="DDhN5DSaP5eOaKILaRLJ-3">
                    <g id="cell-DDhN5DSaP5eOaKILaRLJ-3">
                        <g>
                            <path d="M 778.75 104.67 L 773.75 104.67 Q 768.75 104.67 768.75 114.67 L 768.75 201.67 Q 768.75 211.67 763.75 211.67 L 761.25 211.67 Q 758.75 211.67 763.75 211.67 L 766.25 211.67 Q 768.75 211.67 768.75 221.67 L 768.75 308.67 Q 768.75 318.67 773.75 318.67 L 778.75 318.67" fill="none" stroke="#fffffe" stroke-width="3" stroke-miterlimit="10" transform="rotate(-150,768.75,211.67)" pointer-events="all" />
                        </g>
                    </g>
                </g>
                <g data-cell-id="DDhN5DSaP5eOaKILaRLJ-4">
                    <g id="cell-DDhN5DSaP5eOaKILaRLJ-4">
                        <g>
                            <rect x="770" y="215" width="60" height="30" fill="none" stroke="none" pointer-events="all" />
                        </g>
                        <g>
                            <g fill="#fffffe" font-family="&quot;Helvetica&quot;" text-anchor="middle" font-size="12px"><text x="799.5" y="234.5">le "bain"</text></g>
                        </g>
                    </g>
                </g>
            </g>
        </g>
    </g>
    <switch>
        <g requiredFeatures="http://www.w3.org/TR/SVG11/feature#Extensibility" /><a transform="translate(0,-5)" xlink:href="https://www.drawio.com/doc/faq/svg-export-text-problems" target="_blank"><text text-anchor="middle" font-size="10px" x="50%" y="100%">Text is not SVG - cannot display</text></a>
    </switch>
</svg>