<?xml version="1.0" encoding="UTF-8" standalone="no"?>
<svg
   width="68.075394"
   height="47.821568"
   fill="currentColor"
   class="bi bi-youtube"
   viewBox="0 0 68.075394 47.821568"
   version="1.1"
   id="svg1"
   sodipodi:docname="youtube.svg"
   inkscape:export-filename="youtube3.svg"
   inkscape:export-xdpi="420.02628"
   inkscape:export-ydpi="420.02628"
   xmlns:inkscape="http://www.inkscape.org/namespaces/inkscape"
   xmlns:sodipodi="http://sodipodi.sourceforge.net/DTD/sodipodi-0.dtd"
   xmlns="http://www.w3.org/2000/svg"
   xmlns:svg="http://www.w3.org/2000/svg">
  <defs
     id="defs1" />
  <sodipodi:namedview
     id="namedview1"
     pagecolor="#198752"
     bordercolor="#eeeeee"
     borderopacity="1"
     inkscape:showpageshadow="0"
     inkscape:pageopacity="0"
     inkscape:pagecheckerboard="0"
     inkscape:deskcolor="#515151"
     inkscape:export-bgcolor="#00000000" />
  <path
     d="m 24.899937,10.526015 v 25.856581 l 22.309185,-12.9209 z"
     style="fill:#ffffff;stroke-width:5.36678"
     id="path2" />
  <path
     d="m 34.256732,-7.7514648e-7 h 0.378694 C 38.133007,0.01280922 55.854945,0.14041322 60.633271,1.4254132 a 8.5524823,8.5524823 0 0 1 6.020776,6.042054 c 0.429745,1.616886 0.731856,3.7571338 0.936093,5.9654618 l 0.04254,0.442517 0.09362,1.10629 0.03421,0.442518 c 0.276558,3.889039 0.310633,7.531291 0.314886,8.326969 v 0.319122 c -0.004,0.825463 -0.04254,4.714501 -0.348918,8.765232 l -0.03421,0.446771 -0.03816,0.442516 c -0.212734,2.433843 -0.527607,4.850661 -0.999908,6.629241 a 8.5397176,8.5397176 0 0 1 -6.020778,6.042051 c -4.935758,1.327546 -23.695906,1.421158 -26.295692,1.425412 h -0.604366 c -1.314786,0 -6.752634,-0.02537 -12.454288,-0.221248 L 20.555733,47.57494 20.185552,47.55779 19.457954,47.52796 18.730353,47.49813 C 14.007347,47.289695 9.5098482,46.953556 7.4376792,46.391899 A 8.5397176,8.5397176 0 0 1 1.4169022,40.354105 C 0.94460117,38.579781 0.62973417,36.158707 0.41698517,33.724864 l -0.03404,-0.446771 -0.03404,-0.442516 A 133.60594,133.60594 0 0 1 1.1699219e-6,24.172464 V 23.649103 C 0.00850117,22.734285 0.04255117,19.572845 0.27231817,16.083773 l 0.02978,-0.438263 0.01277,-0.221257 0.03404,-0.442517 0.09361,-1.106291 0.04255,-0.442517 c 0.204237,-2.208327 0.50634,-4.3528278 0.93609103,-5.9654608 a 8.5397176,8.5397176 0 0 1 6.020778,-6.042054 C 9.5141052,0.87226722 14.011604,0.53187122 18.734618,0.31912222 l 0.723345,-0.02979 0.731853,-0.02552 0.365927,-0.01281 0.727599,-0.02979 a 424.59457,424.59457 0 0 1 12.152185,-0.217025 h 0.821207 z M 27.231783,13.658442 v 20.50043 L 44.919682,23.912911 Z"
     id="path1"
     inkscape:export-filename=".\path1.svg"
     inkscape:export-xdpi="112.72978"
     inkscape:export-ydpi="112.72978"
     style="fill:#aa0000;stroke-width:4.25497" />
</svg>
