<?xml version="1.0" encoding="UTF-8" standalone="no"?>
<svg
   width="15.999"
   height="11.239"
   fill="currentColor"
   class="bi bi-youtube"
   viewBox="0 0 15.999 11.239"
   version="1.1"
   id="svg1"
   xmlns="http://www.w3.org/2000/svg"
   xmlns:svg="http://www.w3.org/2000/svg">
  <defs
     id="defs1" />
  <path
     d="M 8.051,-4.2825318e-8 H 8.14 C 8.962,0.00299996 13.127,0.03299996 14.25,0.33499996 A 2.01,2.01 0 0 1 15.665,1.755 c 0.101,0.38 0.172,0.883 0.22,1.402 l 0.01,0.104 0.022,0.26 0.008,0.104 c 0.065,0.914 0.073,1.77 0.074,1.957 v 0.075 c -0.001,0.194 -0.01,1.108 -0.082,2.0600001 l -0.008,0.105 -0.009,0.104 c -0.05,0.572 -0.124,1.14 -0.235,1.558 A 2.007,2.007 0 0 1 14.25,10.904 c -1.16,0.312 -5.569,0.334 -6.18,0.335 H 7.928 c -0.309,0 -1.587,-0.006 -2.927,-0.052 L 4.831,11.181 4.744,11.177 4.573,11.17 4.402,11.163 C 3.292,11.114 2.235,11.035 1.748,10.903 A 2.007,2.007 0 0 1 0.333,9.4840001 c -0.111,-0.417 -0.185,-0.986 -0.235,-1.558 l -0.008,-0.105 -0.008,-0.104 A 31.4,31.4 0 0 1 0,5.681 V 5.558 C 0.002,5.343 0.01,4.6 0.064,3.78 L 0.071,3.677 0.074,3.625 0.082,3.521 0.104,3.261 0.114,3.157 C 0.162,2.638 0.233,2.134 0.334,1.755 A 2.007,2.007 0 0 1 1.749,0.33499996 c 0.487,-0.13 1.544,-0.21 2.654,-0.26 l 0.17,-0.007 0.172,-0.006 0.086,-0.003 0.171,-0.007 A 99.788,99.788 0 0 1 7.858,9.9995717e-4 H 8.051 Z M 6.4,3.21 V 8.0280001 L 10.557,5.62 Z"
     id="path1"
     style="fill:#ff0000" />
</svg>
